<svg width="123" height="45" viewBox="0 0 123 45" fill="none" xmlns="http://www.w3.org/2000/svg">
<path d="M2.55002 21.8533C5.67968 19.9992 4.55717 20.2172 9.07325 18.1721C10.0768 12.4459 10.42 8.65268 15 4.6993C19.58 0.745927 28 2.70305 35.3677 3.60385C35.3677 3.60385 41.5 0.707281 56 0.707275C69.5 0.70727 79.0506 6.02578 79.0506 6.02578C95 0.70728 110.5 8.19208 114 20.6671C114 20.6671 116.976 20.6886 119.5 22.633C122.161 24.685 123.466 29.9847 122 32.6131C121.455 33.5853 119.947 35.4651 119 36.1061C113.219 40.0122 103 41.5951 103 41.5951C100.5 42.0941 95.4997 42.0941 92.4999 42.0941C88.4949 41.9694 83.5 40.1285 83.5 40.1285C73 45.1185 52 47.1145 35.9478 42.0536C22.2486 40.1823 27.7141 41.7868 16.8646 40.9781C12.7935 40.6727 8.0303 40.5135 3.88796 36.8914C-0.127159 33.3811 -1.76025 24.4043 2.55002 21.8533Z" fill="white"/>
</svg>
