<svg width="35" height="35" viewBox="0 0 35 35" fill="none" xmlns="http://www.w3.org/2000/svg">
<path d="M31.4222 2.33333C32.0444 2.33333 32.6667 2.95556 32.6667 3.57778V31.5C32.6667 32.1222 32.0444 32.7444 31.4222 32.7444H21.5444H13.4556H3.57778C2.95556 32.6667 2.33333 32.0444 2.33333 31.4222V3.57778C2.33333 2.95556 2.95556 2.33333 3.57778 2.33333H31.4222ZM31.4222 0H3.57778C1.63333 0 0 1.63333 0 3.57778V31.5C0 33.3667 1.63333 35 3.57778 35H13.4556H21.5444H31.4222C33.3667 35 35 33.3667 35 31.4222V3.57778C35 1.63333 33.3667 0 31.4222 0Z" fill="black"/>
<path d="M16.5174 5C16.7002 5 16.9744 5 17.1572 5C17.4314 5.09141 17.7971 5.27422 18.0713 5.45704C21.4534 7.74223 24.9269 9.93601 28.309 12.2212C28.9488 12.6782 29.3144 13.2267 29.3144 14.0494C29.3144 16.426 29.3144 18.8026 29.3144 21.0878C29.3144 21.9104 28.9488 22.4589 28.309 22.9159C24.9269 25.1097 21.5448 27.3949 18.2541 29.5887C17.4314 30.1371 16.6088 30.1371 15.8775 29.5887C12.5868 27.3949 9.29616 25.2011 6.00548 23.0987C5.36563 22.6417 5 22.0018 5 21.1792C5 18.8026 5 16.426 5 14.0494C5 13.2267 5.27422 12.5868 6.00548 12.1298C9.02194 10.0274 12.0384 7.92505 15.0548 5.82267C15.5119 5.54845 15.9689 5.09141 16.5174 5ZM25.6581 13.4095C23.1901 11.6728 20.7221 10.0274 18.2541 8.29068C18.2541 8.38208 18.2541 8.38208 18.2541 8.38208C18.2541 10.0274 18.2541 11.5814 18.2541 13.2267C18.2541 13.3181 18.3455 13.4095 18.4369 13.5009C19.5338 14.3236 20.6307 15.0548 21.6362 15.8775C21.7276 15.9689 21.819 15.9689 22.0018 15.8775C23.0987 15.1463 24.287 14.3236 25.3839 13.5923C25.4753 13.5009 25.5667 13.4095 25.6581 13.4095ZM8.38208 21.5448C10.8501 23.1901 13.3181 24.8355 15.7861 26.4808C15.7861 24.8355 15.7861 23.1901 15.7861 21.5448C15.7861 21.4534 15.6947 21.362 15.6947 21.362C14.5064 20.6307 13.4095 19.808 12.2212 19.0768C12.1298 19.0768 12.0384 19.0768 11.947 19.0768C10.7587 19.808 9.57038 20.7221 8.38208 21.5448ZM8.38208 13.3181L8.47349 13.4095C9.57038 14.1408 10.7587 14.9634 11.8556 15.6947C11.947 15.7861 12.0384 15.6947 12.2212 15.6947C13.3181 14.9634 14.415 14.1408 15.5119 13.4095C15.6033 13.3181 15.6947 13.2267 15.6947 13.0439C15.6947 11.5814 15.6947 10.0274 15.6947 8.5649C15.6947 8.47349 15.6947 8.38208 15.6947 8.29068C13.2267 9.93601 10.7587 11.6728 8.38208 13.3181ZM18.3455 26.4808C20.8135 24.8355 23.1901 23.1901 25.6581 21.5448L25.5667 21.4534C24.3784 20.6307 23.1901 19.8995 22.0018 19.0768C21.9104 18.9854 21.819 19.0768 21.7276 19.0768C20.6307 19.808 19.6252 20.4479 18.5283 21.1792C18.3455 21.2706 18.3455 21.362 18.3455 21.5448C18.3455 22.8245 18.3455 24.0128 18.3455 25.2925C18.3455 25.7495 18.3455 26.1152 18.3455 26.4808ZM19.5338 17.5229C18.8026 17.0658 18.0713 16.6088 17.4314 16.1517C17.2486 15.9689 16.9744 15.7861 16.7916 15.7861C16.6088 15.7861 16.3346 16.0603 16.1517 16.1517C15.6033 16.5174 14.9634 16.9744 14.415 17.34C15.3291 17.8885 16.1517 18.5283 17.0658 19.0768H17.2486C17.8885 18.6197 18.7112 18.0713 19.5338 17.5229ZM24.1956 17.5229C25.0183 18.0713 25.841 18.6197 26.6636 19.1682C26.6636 18.0713 26.6636 16.9744 26.6636 15.8775C25.841 16.426 25.0183 16.883 24.1956 17.5229ZM7.3766 19.0768C8.19927 18.5283 8.93053 17.9799 9.7532 17.4314C8.93053 16.883 8.19927 16.426 7.3766 15.8775C7.3766 16.883 7.3766 17.9799 7.3766 19.0768Z" fill="black"/>
</svg>
