<?xml version="1.0" encoding="utf-8"?>
<!-- Generator: Adobe Illustrator 26.0.1, SVG Export Plug-In . SVG Version: 6.00 Build 0)  -->
<svg version="1.1" id="Laag_1" xmlns="http://www.w3.org/2000/svg" xmlns:xlink="http://www.w3.org/1999/xlink" x="0px" y="0px"
	 viewBox="0 0 35 35" style="enable-background:new 0 0 35 35;" xml:space="preserve">
<g>
	<path d="M6.8,15.7c0,1.2,0,2.3,0,3.5c0.9-0.6,1.7-1.2,2.6-1.8C8.5,16.8,7.7,16.3,6.8,15.7z"/>
	<path d="M17.8,16c-0.2-0.2-0.5-0.4-0.7-0.4c-0.2,0-0.5,0.3-0.7,0.4c-0.6,0.4-1.3,0.9-1.9,1.3c1,0.6,1.9,1.3,2.9,1.9
		c0,0,0.2,0,0.2,0c0.9-0.6,1.7-1.1,2.6-1.7C19.3,17,18.5,16.5,17.8,16z"/>
	<path d="M11.7,15.6c0.1,0.1,0.2,0,0.4,0c1.2-0.8,2.4-1.7,3.6-2.5c0.1-0.1,0.2-0.2,0.2-0.4c0-1.6,0-3.3,0-4.9c0-0.1,0-0.2,0-0.3
		c-2.7,1.9-5.3,3.7-8,5.6C8,13,8,13,8,13.1C9.3,13.9,10.5,14.7,11.7,15.6z"/>
	<path d="M18.9,13.1c1.2,0.9,2.4,1.7,3.5,2.6c0.1,0.1,0.2,0.1,0.4,0c1.2-0.8,2.5-1.7,3.7-2.5c0.1,0,0.1-0.1,0.2-0.2
		c-2.7-1.9-5.4-3.7-8.1-5.6c0,0.1,0,0.1,0,0.1c0,1.8,0,3.5,0,5.3C18.8,12.9,18.8,13,18.9,13.1z"/>
	<path d="M15.8,21.7c-1.3-0.8-2.5-1.7-3.8-2.5c-0.1,0-0.2,0-0.3,0c-1.3,0.9-2.6,1.8-3.9,2.7c2.7,1.8,5.4,3.6,8.1,5.4
		c0-1.8,0-3.6,0-5.4C16,21.9,15.9,21.8,15.8,21.7z"/>
	<path d="M31.4,0H3.6C1.6,0,0,1.6,0,3.6v27.9C0,33.4,1.6,35,3.6,35h9.9h8.1h9.9c1.9,0,3.6-1.6,3.6-3.6V3.6C35,1.6,33.4,0,31.4,0z
		 M30.8,21.4c0,0.9-0.4,1.5-1.1,2c-3.7,2.4-7.4,4.9-11,7.3c-0.9,0.6-1.8,0.6-2.6,0c-3.6-2.4-7.2-4.8-10.8-7.1
		c-0.7-0.5-1.1-1.2-1.1-2.1c0-2.6,0-5.2,0-7.8c0-0.9,0.3-1.6,1.1-2.1c3.3-2.3,6.6-4.6,9.9-6.9c0.5-0.4,1.1-0.8,1.7-1
		c0.2,0,0.5,0,0.7,0c0.3,0.1,0.7,0.3,1,0.5c3.7,2.5,7.5,4.9,11.2,7.4c0.7,0.5,1.1,1.1,1.1,2C30.8,16.3,30.8,18.9,30.8,21.4z"/>
	<path d="M28,19.3c0-1.2,0-2.4,0-3.6c-0.9,0.6-1.8,1.2-2.7,1.8C26.2,18.1,27.1,18.7,28,19.3z"/>
	<path d="M22.8,19.3c-0.1-0.1-0.2,0-0.3,0c-1.2,0.8-2.3,1.5-3.5,2.3c-0.2,0.1-0.2,0.2-0.2,0.4c0,1.4,0,2.7,0,4.1c0,0.4,0,0.7,0,1.1
		c2.7-1.8,5.3-3.6,8-5.4c0,0-0.1-0.1-0.1-0.1C25.4,21,24.1,20.2,22.8,19.3z"/>
</g>
</svg>
