<svg width="35" height="35" viewBox="0 0 35 35" fill="none" xmlns="http://www.w3.org/2000/svg">
<path d="M31.4222 2.33333C32.0444 2.33333 32.6667 2.95556 32.6667 3.57778V31.5C32.6667 32.1222 32.0444 32.7444 31.4222 32.7444H21.5444H13.4556H3.57778C2.95556 32.6667 2.33333 32.0444 2.33333 31.4222V3.57778C2.33333 2.95556 2.95556 2.33333 3.57778 2.33333H31.4222ZM31.4222 0H3.57778C1.63333 0 0 1.63333 0 3.57778V31.5C0 33.3667 1.63333 35 3.57778 35H13.4556H21.5444H31.4222C33.3667 35 35 33.3667 35 31.4222V3.57778C35 1.63333 33.3667 0 31.4222 0Z" fill="black"/>
<path d="M16.6 4C16.8 4 17.1 4 17.3 4C17.6 4.1 18 4.3 18.3 4.5C22 7 25.8 9.4 29.5 11.9C30.2 12.4 30.6 13 30.6 13.9C30.6 16.5 30.6 19.1 30.6 21.6C30.6 22.5 30.2 23.1 29.5 23.6C25.8 26 22.1 28.5 18.5 30.9C17.6 31.5 16.7 31.5 15.9 30.9C12.3 28.5 8.7 26.1 5.1 23.8C4.4 23.3 4 22.6 4 21.7C4 19.1 4 16.5 4 13.9C4 13 4.3 12.3 5.1 11.8C8.4 9.5 11.7 7.2 15 4.9C15.5 4.6 16 4.1 16.6 4ZM26.6 13.2C23.9 11.3 21.2 9.5 18.5 7.6C18.5 7.7 18.5 7.7 18.5 7.7C18.5 9.5 18.5 11.2 18.5 13C18.5 13.1 18.6 13.2 18.7 13.3C19.9 14.2 21.1 15 22.2 15.9C22.3 16 22.4 16 22.6 15.9C23.8 15.1 25.1 14.2 26.3 13.4C26.4 13.3 26.5 13.2 26.6 13.2ZM7.7 22.1C10.4 23.9 13.1 25.7 15.8 27.5C15.8 25.7 15.8 23.9 15.8 22.1C15.8 22 15.7 21.9 15.7 21.9C14.4 21.1 13.2 20.2 11.9 19.4C11.8 19.4 11.7 19.4 11.6 19.4C10.3 20.2 9 21.2 7.7 22.1ZM7.7 13.1L7.8 13.2C9 14 10.3 14.9 11.5 15.7C11.6 15.8 11.7 15.7 11.9 15.7C13.1 14.9 14.3 14 15.5 13.2C15.6 13.1 15.7 13 15.7 12.8C15.7 11.2 15.7 9.5 15.7 7.9C15.7 7.8 15.7 7.7 15.7 7.6C13 9.4 10.3 11.3 7.7 13.1ZM18.6 27.5C21.3 25.7 23.9 23.9 26.6 22.1L26.5 22C25.2 21.1 23.9 20.3 22.6 19.4C22.5 19.3 22.4 19.4 22.3 19.4C21.1 20.2 20 20.9 18.8 21.7C18.6 21.8 18.6 21.9 18.6 22.1C18.6 23.5 18.6 24.8 18.6 26.2C18.6 26.7 18.6 27.1 18.6 27.5ZM19.9 17.7C19.1 17.2 18.3 16.7 17.6 16.2C17.4 16 17.1 15.8 16.9 15.8C16.7 15.8 16.4 16.1 16.2 16.2C15.6 16.6 14.9 17.1 14.3 17.5C15.3 18.1 16.2 18.8 17.2 19.4H17.4C18.1 18.9 19 18.3 19.9 17.7ZM25 17.7C25.9 18.3 26.8 18.9 27.7 19.5C27.7 18.3 27.7 17.1 27.7 15.9C26.8 16.5 25.9 17 25 17.7ZM6.6 19.4C7.5 18.8 8.3 18.2 9.2 17.6C8.3 17 7.5 16.5 6.6 15.9C6.6 17 6.6 18.2 6.6 19.4Z" fill="black"/>
</svg>
