<svg width="35" height="35" viewBox="0 0 35 35" fill="none" xmlns="http://www.w3.org/2000/svg">
<path fill-rule="evenodd" clip-rule="evenodd" d="M31.3105 0H3.58975C1.59545 0 0 1.60001 0 3.60001V31.5C0 33.4 1.59545 35 3.58975 35H31.4103C33.3048 35 35 33.4 35 31.4V3.60001C34.9003 1.60001 33.3048 0 31.3105 0ZM17.1572 5H16.5174C16.1322 5.0642 15.7921 5.30876 15.4654 5.54366C15.3269 5.64322 15.1909 5.74104 15.0548 5.82267L6.00548 12.1298C5.27422 12.5868 5 13.2267 5 14.0494V21.1792C5 22.0018 5.36563 22.6417 6.00548 23.0987C9.29611 25.2011 12.5867 27.3948 15.8774 29.5886L15.8775 29.5887C16.6088 30.1371 17.4314 30.1371 18.2541 29.5887C19.0726 29.043 19.8967 28.4918 20.725 27.9376C23.2271 26.2638 25.7681 24.5641 28.309 22.9159C28.9488 22.4589 29.3144 21.9104 29.3144 21.0878V14.0494C29.3144 13.2267 28.9488 12.6782 28.309 12.2212C26.6179 11.0786 24.904 9.95886 23.1901 8.83912C21.4762 7.71938 19.7623 6.59963 18.0713 5.45704C17.7971 5.27422 17.4314 5.09141 17.1572 5ZM21.9561 10.8501C23.1901 11.6956 24.4241 12.5411 25.6581 13.4095C25.5667 13.4095 25.4753 13.5009 25.3839 13.5923C24.8355 13.958 24.2642 14.3464 23.6929 14.7349C23.1216 15.1234 22.5503 15.5119 22.0018 15.8775C21.819 15.9689 21.7276 15.9689 21.6362 15.8775C21.0005 15.3574 20.3282 14.8738 19.6425 14.3805C19.2437 14.0936 18.8403 13.8034 18.4369 13.5009C18.3455 13.4095 18.2541 13.3181 18.2541 13.2267V8.38208V8.29068C19.4881 9.15905 20.7221 10.0046 21.9561 10.8501ZM15.7861 26.4808L8.38208 21.5448C8.77818 21.2706 9.17429 20.9862 9.57039 20.7018C10.3626 20.133 11.1548 19.5643 11.947 19.0768H12.2212C12.8154 19.4424 13.3867 19.8309 13.958 20.2194C14.5293 20.6079 15.1005 20.9963 15.6947 21.362C15.6947 21.362 15.7861 21.4534 15.7861 21.5448V26.4808ZM8.47349 13.4095L8.38208 13.3181C8.93749 12.9336 9.4979 12.5441 10.0621 12.1519C11.9122 10.866 13.8035 9.5515 15.6947 8.29068V8.5649V13.0439C15.6947 13.2267 15.6033 13.3181 15.5119 13.4095C14.9634 13.7751 14.415 14.1636 13.8665 14.5521C13.3181 14.9406 12.7697 15.3291 12.2212 15.6947C12.1514 15.6947 12.0949 15.708 12.0466 15.7194C11.9686 15.7379 11.9121 15.7512 11.8556 15.6947C11.3071 15.3291 10.7358 14.9406 10.1645 14.5521C9.59324 14.1636 9.02194 13.7751 8.47349 13.4095ZM22.0018 24.0128C20.7907 24.8355 19.5795 25.6581 18.3455 26.4808V25.2925V21.5448C18.3455 21.362 18.3455 21.2706 18.5283 21.1792C19.0768 20.8135 19.6024 20.4708 20.128 20.128C20.6536 19.7852 21.1792 19.4424 21.7276 19.0768C21.7581 19.0768 21.7885 19.0666 21.819 19.0565C21.8799 19.0362 21.9409 19.0158 22.0018 19.0768C22.596 19.4881 23.1901 19.8766 23.7843 20.2651C24.3784 20.6536 24.9726 21.042 25.5667 21.4534L25.6581 21.5448C24.4241 22.3675 23.213 23.1901 22.0018 24.0128ZM17.4314 16.1517C18.0713 16.6088 18.8026 17.0658 19.5338 17.5229L19.5338 17.5229C18.7111 18.0713 17.8885 18.6198 17.2486 19.0768H17.0658C16.6088 18.8026 16.1746 18.5055 15.7404 18.2084C15.3062 17.9113 14.872 17.6143 14.415 17.34C14.6892 17.1572 14.9863 16.9516 15.2834 16.7459C15.5804 16.5402 15.8775 16.3346 16.1517 16.1517C16.2173 16.1189 16.2947 16.0626 16.3754 16.0038C16.5196 15.8988 16.6744 15.7861 16.7916 15.7861C16.9744 15.7861 17.2486 15.9689 17.4314 16.1517ZM26.6636 19.1682L24.1956 17.5229C24.7441 17.0963 25.2925 16.751 25.841 16.4056C26.1152 16.233 26.3894 16.0603 26.6636 15.8775V19.1682ZM8.5649 18.2541C8.17642 18.5283 7.78794 18.8026 7.3766 19.0768V15.8775C7.78793 16.1517 8.17641 16.4031 8.56489 16.6545C8.95338 16.9058 9.34186 17.1572 9.7532 17.4314C9.34187 17.7057 8.95338 17.9799 8.5649 18.2541Z" fill="black"/>
</svg>
