<svg width="210" height="40" viewBox="0 0 210 40" fill="none" xmlns="http://www.w3.org/2000/svg">
<path d="M143.524 24.2291C142.114 23.0837 140.969 22.9075 139.912 23.4361C139.648 23.5242 139.207 23.7004 138.855 23.9647C138.238 24.2291 137.269 24.5815 135.947 24.9339C134.625 25.2863 132.511 25.4625 129.603 25.4625C128.018 25.4625 126.696 25.4625 125.639 25.3744C125.11 25.3744 124.581 25.2863 124.141 25.2863C125.374 24.4053 126.696 23.348 128.194 22.2907C130.22 20.7929 132.159 19.3833 134.097 17.9736C135.771 16.7401 137.445 15.5066 139.031 14.2731C140.705 12.9515 142.114 11.6299 143.172 10.3084C144.405 8.81057 145.022 7.31277 145.022 5.81497C145.022 4.31718 144.405 3.0837 143.172 2.29075C142.203 1.5859 140.881 1.14537 139.295 0.792948C137.797 0.528631 136.211 0.35242 134.537 0.264314C131.101 0.176209 128.018 0.0881028 124.67 0.35242C122.996 0.440526 121.41 0.616737 119.912 0.881054C118.326 1.14537 117.092 1.5859 116.123 2.20264C114.537 3.1718 114.273 4.49339 114.273 5.37445C114.273 6.51982 114.714 7.57709 115.683 8.54625C116.564 9.42731 117.445 9.86784 118.326 9.86784C119.207 9.86784 119.648 9.51541 119.912 9.2511C119.912 9.2511 120 9.16299 120.264 9.07488C120.793 8.81057 121.586 8.54625 122.467 8.37004C123.524 8.19383 124.581 8.01762 125.727 7.92951C128.634 7.66519 131.101 7.7533 132.951 7.92951C134.185 8.01762 134.802 8.10572 135.154 8.19383C134.537 8.81057 133.744 9.60352 132.599 10.5727C131.366 11.63 129.956 12.7753 128.458 14.0088C126.96 15.2423 125.374 16.4758 123.788 17.7092C122.203 18.9427 120.705 20.0881 119.383 21.0573C118.062 22.0264 117.004 22.9075 116.123 23.4361C115.154 24.2291 114.361 24.8458 113.833 25.4625C113.128 26.2555 112.775 27.1366 112.775 28.1938C112.775 29.5154 113.392 30.6608 114.537 31.3656C115.507 31.9824 116.652 32.4229 118.15 32.6872C119.559 32.9515 121.057 33.1277 122.731 33.2158C124.405 33.304 126.079 33.304 127.665 33.304C129.427 33.304 131.277 33.2158 133.216 33.1277C135.066 33.0396 136.916 32.7753 138.502 32.511C140.176 32.1586 141.674 31.6299 142.731 31.0132C144.405 29.9559 144.758 28.5462 144.758 27.489C144.934 26.0793 144.493 25.022 143.524 24.2291Z" fill="black"/>
<path d="M39.7356 30.2203C38.6784 30.2203 37.7973 29.7797 37.0925 28.9868C36.3876 28.1057 36.1233 26.8723 36.1233 25.2864C36.1233 24.141 36.2995 22.9956 36.6519 21.8502C37.0043 20.7049 37.533 19.7357 38.2378 18.7665C38.9427 17.8855 39.6475 17.0925 40.6167 16.5639C41.5858 16.0353 42.6431 15.7709 43.7885 15.7709C44.8458 15.7709 45.8149 16.0353 46.5198 16.4758C47.3127 16.9163 47.6651 17.533 47.6651 18.4141C47.6651 18.5903 47.6651 18.8546 47.577 19.2071C47.4889 19.5595 47.4889 19.8238 47.4008 20C47.3127 20.1762 47.2246 20.3524 47.1365 20.5286C47.0484 20.7049 46.8722 20.793 46.696 20.793C46.6079 20.793 46.4317 20.7049 46.2554 20.7049C46.1673 21.1454 46.0792 21.674 46.0792 22.1145C45.9911 22.5551 45.9911 22.9956 45.9911 23.4361C45.9911 24.3172 46.0792 25.1101 46.3436 25.7269C46.6079 26.4317 46.9603 26.7841 47.577 26.9604C47.7532 27.0485 47.8413 27.0485 48.0176 27.1366C48.1057 27.2247 48.1938 27.4009 48.1938 27.7533C48.1938 28.0176 48.1057 28.2819 48.0176 28.7225C47.9295 29.163 47.7532 29.4273 47.4008 29.7797C47.1365 30.1322 46.696 30.2203 46.1673 30.2203C45.4625 30.2203 44.9339 29.8678 44.4933 29.2511C44.1409 28.6344 43.8766 27.6652 43.8766 26.5198C43.348 27.6652 42.8193 28.5463 42.0264 29.2511C41.5858 29.8678 40.7048 30.2203 39.7356 30.2203ZM40.7048 26.696C41.4096 26.696 41.9383 26.4317 42.555 25.815C43.0836 25.2864 43.5242 24.5815 43.7885 23.7004C43.9647 23.1718 44.1409 22.5551 44.229 21.9383C44.3171 21.3216 44.4052 20.7049 44.4933 20C44.229 19.8238 43.8766 19.6476 43.5242 19.5595C43.0836 19.4714 42.7312 19.3833 42.2907 19.3833C41.2334 19.3833 40.3524 19.8238 39.7356 20.6167C39.0308 21.4097 38.7665 22.467 38.7665 23.7004C38.7665 24.5815 38.9427 25.3745 39.2951 25.9031C39.6475 26.3436 40.088 26.696 40.7048 26.696Z" fill="black"/>
<path d="M46.1674 30.6608C45.3745 30.6608 44.6696 30.3084 44.141 29.5154C43.8767 29.0749 43.7005 28.5463 43.6124 28.0176C43.26 28.6344 42.8194 29.163 42.3789 29.5154C41.8503 30.2203 40.8811 30.6608 39.7357 30.6608C38.5903 30.6608 37.6212 30.2203 36.7401 29.2511C36.0353 28.282 35.6829 27.0485 35.6829 25.2864C35.6829 24.141 35.8591 22.9075 36.2115 21.7621C36.5639 20.6168 37.0926 19.6476 37.8855 18.5903C38.5903 17.7093 39.2952 16.8282 40.4406 16.2996C41.4978 15.7709 42.6432 15.4185 43.7886 15.4185C44.934 15.4185 45.9912 15.6828 46.7842 16.2115C47.6652 16.7401 48.1058 17.4449 48.1058 18.5022C48.1058 18.6784 48.1058 19.0309 48.0177 19.3833C48.0177 19.5595 47.9296 19.6476 47.9296 19.7357C47.9296 19.9119 47.8414 20.0881 47.7533 20.2643L47.489 20.793C47.3128 21.1454 46.9604 21.3216 46.608 21.3216C46.5199 21.674 46.5199 21.9383 46.5199 22.2027C46.4318 22.6432 46.4318 23.0837 46.4318 23.5242C46.4318 24.4934 46.5199 25.1101 46.7842 25.6388C47.0485 26.2555 47.2247 26.5198 47.7533 26.6079C47.9296 26.696 47.9296 26.696 48.0177 26.696C48.1058 26.696 48.1939 26.7842 48.282 26.7842L48.3701 26.8723C48.5463 27.0485 48.6344 27.4009 48.6344 27.8414C48.6344 28.1057 48.5463 28.282 48.5463 28.5463C48.5463 28.6344 48.4582 28.8106 48.4582 28.8987C48.3701 29.4273 48.1058 29.7797 47.7533 30.2203C47.3128 30.5727 46.6961 30.6608 46.1674 30.6608ZM44.3172 24.4934V26.5198C44.3172 27.489 44.4934 28.4582 44.8459 29.0749C45.1983 29.6035 45.6388 29.7797 46.1674 29.7797C46.608 29.7797 46.8723 29.6916 47.0485 29.5154C47.4009 29.163 47.489 28.9868 47.5771 28.6344C47.5771 28.4582 47.6652 28.3701 47.6652 28.2819C47.7533 28.1057 47.7533 27.9295 47.7533 27.7533C47.7533 27.5771 47.7533 27.489 47.7533 27.489C47.7533 27.489 47.7533 27.489 47.6652 27.489C47.5771 27.489 47.489 27.4009 47.4009 27.4009C46.6961 27.2247 46.2555 26.7842 45.9912 25.9031C45.7269 25.2864 45.6388 24.4934 45.6388 23.4361C45.6388 22.9956 45.6388 22.5551 45.7269 22.0264C45.7269 21.7621 45.815 21.2335 45.9031 20.6168L45.9912 20.2643H46.3436C46.5199 20.2643 46.6961 20.2643 46.7842 20.3524L47.1366 19.8238C47.1366 19.8238 47.1366 19.6476 47.2247 19.5595C47.2247 19.4714 47.3128 19.2952 47.3128 19.119C47.4009 18.8546 47.4009 18.5903 47.4009 18.4141C47.4009 17.7093 47.1366 17.1806 46.5199 16.8282C45.815 16.3877 44.934 16.2115 43.9648 16.2115C42.9075 16.2115 41.9384 16.4758 40.9692 16.9163C40 17.4449 39.3833 18.2379 38.7666 19.0309C38.0617 20 37.5331 20.9692 37.2688 21.9383C36.9163 22.9956 36.7401 24.141 36.7401 25.2864C36.7401 26.8723 37.0044 27.9295 37.6212 28.7225C38.2379 29.4273 39.0309 29.7797 39.9119 29.7797C40.793 29.7797 41.4978 29.5154 41.8503 28.9868L41.9384 28.8987C42.6432 28.2819 43.0837 27.5771 43.7005 26.3436L44.3172 24.4934ZM40.7049 27.1366C40 27.1366 39.4714 26.7842 38.9428 26.1674C38.5022 25.5507 38.326 24.6696 38.326 23.7005C38.326 22.2027 38.6785 21.1454 39.3833 20.3524C40.0881 19.4714 41.0573 18.9427 42.2908 18.9427C42.7313 18.9427 43.0837 19.0309 43.4362 19.119H43.6124C44.141 19.2071 44.5815 19.4714 44.7577 19.6476L45.0221 19.8238V20.0881C44.934 20.793 44.8459 21.4097 44.7577 21.9383C44.6696 22.5551 44.4934 23.1718 44.3172 23.8767C44.0529 24.7577 43.6124 25.5507 42.9956 26.1674C42.2027 26.8723 41.4978 27.1366 40.7049 27.1366ZM42.2908 19.8238C41.4097 19.8238 40.6168 20.1762 40.0881 20.8811C39.4714 21.5859 39.2071 22.467 39.2071 23.7005C39.2071 24.4934 39.3833 25.1983 39.6476 25.6388C40 26.0793 40.2644 26.2555 40.7049 26.2555C41.3216 26.2555 41.6741 26.0793 42.2027 25.4626C42.7313 24.9339 43.0837 24.3172 43.3481 23.5242C43.5243 22.9075 43.7005 22.2908 43.7886 21.8502C43.8767 21.3216 43.9648 20.793 44.0529 20.1762C43.8767 20.0881 43.6124 20 43.4362 19.9119H43.26C42.9075 19.9119 42.6432 19.8238 42.2908 19.8238Z" fill="black"/>
<path d="M39.7357 30.6608C38.5022 30.6608 37.5331 30.1322 36.7401 29.2511C36.0353 28.3701 35.6829 26.9604 35.6829 25.2864C35.6829 24.141 35.8591 22.9075 36.2115 21.7621C36.5639 20.6168 37.0926 19.5595 37.7974 18.5903C38.5022 17.6212 39.3833 16.8282 40.3525 16.2996C41.3216 15.7709 42.467 15.4185 43.7886 15.4185C44.934 15.4185 45.9912 15.6828 46.7842 16.2115C47.6652 16.7401 48.1058 17.5331 48.1058 18.5022C48.1058 18.7665 48.1058 19.0309 48.0177 19.3833C47.9296 19.7357 47.9296 20 47.8414 20.2643C47.7533 20.5286 47.6652 20.7049 47.5771 20.8811C47.4009 21.1454 47.1366 21.3216 46.7842 21.3216C46.6961 21.4978 46.6961 21.7621 46.6961 22.0264C46.608 22.467 46.608 22.9075 46.608 23.348C46.608 24.141 46.6961 24.9339 46.8723 25.5507C47.0485 26.0793 47.3128 26.3436 47.7533 26.5198C48.0177 26.6079 48.1939 26.696 48.3701 26.8723C48.6344 27.1366 48.7225 27.489 48.7225 27.7533C48.7225 28.0176 48.6344 28.3701 48.5463 28.8106C48.3701 29.2511 48.1939 29.6916 47.8414 30.0441C47.489 30.4846 46.9604 30.6608 46.2555 30.6608C45.3745 30.6608 44.6696 30.2203 44.2291 29.5154C43.9648 29.0749 43.7886 28.6344 43.7005 28.1057C43.3481 28.6344 42.9075 29.163 42.467 29.6035C41.8503 30.2203 40.793 30.6608 39.7357 30.6608ZM43.7005 16.2996C42.6432 16.2996 41.5859 16.5639 40.7049 17.0925C39.8238 17.6212 39.0309 18.2379 38.4141 19.119C37.7974 20 37.2688 20.9692 37.0044 22.0264C36.652 23.0837 36.4758 24.2291 36.4758 25.2864C36.4758 26.7842 36.8282 27.9295 37.3569 28.7225C37.9736 29.4273 38.6785 29.7797 39.6476 29.7797C40.5287 29.7797 41.3216 29.4273 41.9384 28.8106C42.6432 28.1057 43.1718 27.2247 43.7005 26.2555L44.5815 24.2291V26.4317C44.5815 27.5771 44.7577 28.3701 45.1102 28.9868C45.4626 29.5154 45.815 29.6916 46.3436 29.6916C46.7842 29.6916 47.0485 29.6035 47.2247 29.3392C47.489 29.0749 47.5771 28.8106 47.6652 28.4582C47.7533 28.1057 47.8414 27.8414 47.8414 27.5771C47.8414 27.4009 47.8414 27.3128 47.7533 27.3128C47.7533 27.3128 47.7533 27.3128 47.6652 27.3128C46.8723 27.1366 46.4318 26.6079 46.0793 25.7269C45.815 25.022 45.7269 24.141 45.7269 23.2599C45.7269 22.8194 45.7269 22.2908 45.815 21.8502C45.9031 21.4097 45.9031 20.8811 45.9912 20.4405L46.0793 19.9119L46.608 20.0881C46.7842 20.1762 46.8723 20.1762 46.8723 20.1762C46.9604 20 47.0485 19.9119 47.0485 19.7357C47.1366 19.5595 47.1366 19.2952 47.2247 19.0309C47.3128 18.6784 47.3128 18.5022 47.3128 18.2379C47.3128 17.6212 46.9604 17.0925 46.3436 16.7401C45.6388 16.4758 44.7577 16.2996 43.7005 16.2996ZM40.7049 27.1366C39.9119 27.1366 39.2952 26.7842 38.7666 26.0793C38.326 25.4626 38.1498 24.6696 38.1498 23.6123C38.1498 22.2908 38.5022 21.1454 39.2952 20.2643C40.0881 19.3833 41.0573 18.8546 42.2908 18.8546C42.7313 18.8546 43.1718 18.9427 43.6124 19.0309C44.0529 19.2071 44.4053 19.2952 44.7577 19.5595L45.0221 19.7357V20C44.934 20.6168 44.934 21.3216 44.7577 21.9383C44.6696 22.6432 44.4934 23.2599 44.3172 23.7886C43.9648 24.6696 43.5243 25.4626 42.9956 26.0793C42.2908 26.7842 41.5859 27.1366 40.7049 27.1366ZM42.2027 19.8238C41.3216 19.8238 40.5287 20.1762 40 20.8811C39.3833 21.5859 39.119 22.5551 39.119 23.6123C39.119 24.4053 39.2952 25.022 39.6476 25.5507C39.9119 25.9912 40.3525 26.1674 40.793 26.1674C41.3216 26.1674 41.8503 25.9031 42.2908 25.4626C42.8194 24.9339 43.1718 24.3172 43.4362 23.4361C43.6124 22.9075 43.7886 22.3789 43.8767 21.674C43.9648 21.1454 44.0529 20.6168 44.0529 20.0881C43.8767 20 43.6124 19.9119 43.3481 19.8238C42.9956 19.8238 42.6432 19.8238 42.2027 19.8238Z" fill="black"/>
<path d="M51.718 39.1189C51.1894 39.1189 50.7489 38.9427 50.4845 38.5902C50.1321 38.2378 50.044 37.533 50.044 36.5638C50.044 35.859 50.1321 35.066 50.2202 34.0969C50.3964 33.1277 50.4845 32.0704 50.6608 30.9251C50.837 30.044 50.9251 29.0748 51.0132 28.1938C51.1894 27.2246 51.2775 26.2554 51.3656 25.3744C51.4537 24.4052 51.5418 23.6123 51.5418 22.8193C51.5418 21.9383 51.4537 21.2334 51.2775 20.6167C51.1013 19.9999 50.837 19.5594 50.3083 19.3832C50.1321 19.2951 49.9559 19.207 49.7797 19.0308C49.6035 18.9427 49.5154 18.7665 49.5154 18.5021C49.5154 18.1497 49.6035 17.7973 49.8678 17.4449C50.044 17.0925 50.3964 16.74 50.7489 16.4757C51.1013 16.2114 51.5418 16.0352 51.9823 16.0352C52.5991 16.0352 53.2158 16.2995 53.392 16.8281C53.6563 17.3568 53.7445 18.0616 53.7445 18.9427C53.7445 19.207 53.7445 19.4713 53.6563 19.7356C53.6563 19.9999 53.5682 20.2643 53.5682 20.5286C54.0969 19.2951 54.8017 18.1497 55.6828 17.2687C56.5638 16.3876 57.533 15.9471 58.5903 15.9471C59.6475 15.9471 60.5286 16.3876 61.1453 17.2687C61.7621 18.1497 62.1145 19.4713 62.1145 20.9691C62.1145 22.1145 61.9383 23.2599 61.674 24.4052C61.4097 25.4625 60.9691 26.5198 60.4405 27.4008C59.9119 28.2819 59.2951 28.9867 58.5903 29.5154C57.8854 30.044 57.0044 30.3083 56.1233 30.3083C55.5066 30.3083 54.8898 30.1321 54.3612 29.8678C53.8326 29.6035 53.4801 29.251 53.1277 28.8105C53.0396 29.4273 52.9515 30.1321 52.9515 30.9251C52.9515 31.718 52.8634 32.5991 52.8634 33.3039C52.8634 34.0969 52.9515 34.8017 53.1277 35.2422C53.3039 35.7709 53.5682 36.0352 54.0088 36.2995C54.185 36.3876 54.3612 36.5638 54.3612 36.8281C54.3612 37.0043 54.2731 37.2687 54.0969 37.7092C53.9207 38.0616 53.7445 38.414 53.392 38.7665C53.0396 39.0308 52.3348 39.1189 51.718 39.1189ZM56.74 26.5198C57.7973 26.5198 58.5903 26.0792 59.1189 25.2863C59.6475 24.4933 60 23.5242 60 22.4669C60 21.5858 59.8237 20.7929 59.3832 20.2643C58.9427 19.7356 58.4141 19.4713 57.7973 19.4713C57.0925 19.4713 56.5638 19.7356 55.9471 20.2643C55.4185 20.7929 54.9779 21.4096 54.6255 22.2907C54.2731 23.0836 53.9207 23.9647 53.7445 24.9339C54.6255 25.9911 55.5947 26.5198 56.74 26.5198Z" fill="black"/>
<path d="M51.718 39.5594C51.0132 39.5594 50.4845 39.2951 50.044 38.8546C49.6916 38.4141 49.5154 37.6211 49.5154 36.5639C49.5154 35.859 49.6035 34.9779 49.6916 34.0088C49.8678 33.0396 49.9559 31.8943 50.1321 30.837C50.3083 29.9559 50.3964 28.9868 50.4845 28.1057C50.6607 27.1365 50.7488 26.1674 50.8369 25.2863C50.925 24.4053 51.0132 23.5242 51.0132 22.8194C51.0132 22.0264 50.925 21.2335 50.7488 20.7048C50.5726 20.1762 50.3964 19.9119 50.1321 19.8238C49.8678 19.6476 49.6916 19.5595 49.5154 19.4713C49.3391 19.2951 49.0748 19.0308 49.0748 18.5903C49.0748 18.1498 49.251 17.7973 49.4272 17.3568C49.6916 16.9163 49.9559 16.5639 50.3964 16.2114C50.8369 15.859 51.3656 15.6828 51.9823 15.6828C52.8634 15.6828 53.5682 16.1233 53.8325 16.7401C54.0969 17.2687 54.185 17.7973 54.185 18.5903C54.5374 18.0617 54.9779 17.533 55.3303 17.0925C56.2995 16.1233 57.3568 15.6828 58.5902 15.6828C59.8237 15.6828 60.7929 16.2114 61.5858 17.2687C62.2907 18.2379 62.555 19.5595 62.555 21.2335C62.555 22.3788 62.3788 23.6123 62.1145 24.7577C61.762 25.9031 61.4096 26.9603 60.881 27.8414C60.3524 28.8106 59.6475 29.5154 58.8546 30.1321C58.0616 30.7489 57.0924 31.0132 56.1233 31.0132C55.4184 31.0132 54.8017 30.837 54.185 30.4846C53.9206 30.3083 53.6563 30.1321 53.4801 29.9559C53.392 30.3083 53.392 30.7489 53.392 31.1013C53.3039 31.8942 53.3039 32.6872 53.3039 33.392C53.3039 34.185 53.392 34.8017 53.5682 35.2423C53.7444 35.5947 53.9206 35.859 54.2731 36.0352C54.6255 36.2114 54.8017 36.5639 54.8017 37.0044C54.8017 37.2687 54.7136 37.533 54.5374 37.9735C54.3612 38.4141 54.0969 38.8546 53.7444 39.207C53.2158 39.3832 52.511 39.5594 51.718 39.5594ZM51.8942 16.3876C51.5418 16.3876 51.1894 16.4758 50.925 16.7401C50.5726 17.0044 50.3964 17.2687 50.2202 17.6211C50.044 17.9735 49.9559 18.2379 49.9559 18.5022C49.9559 18.5903 49.9559 18.6784 50.044 18.6784C50.2202 18.7665 50.3083 18.8546 50.4845 18.9427C51.1013 19.207 51.4537 19.6476 51.6299 20.5286C51.8061 21.2335 51.8942 21.9383 51.8942 22.9075C51.8942 23.7004 51.8061 24.5815 51.718 25.4625C51.6299 26.4317 51.5418 27.4009 51.3656 28.37C51.1894 29.3392 51.1013 30.3083 51.0132 31.1894C50.8369 32.2467 50.6607 33.392 50.5726 34.3612C50.3964 35.3304 50.3964 36.1233 50.3964 36.8282C50.3964 37.8854 50.5726 38.4141 50.7488 38.5903C51.0132 38.8546 51.2775 39.0308 51.6299 39.0308C52.1585 39.0308 52.6872 38.8546 52.8634 38.6784C53.1277 38.4141 53.392 38.1498 53.4801 37.7973C53.6563 37.3568 53.6563 37.1806 53.6563 37.0925C53.6563 37.0044 53.5682 36.9163 53.5682 36.9163C53.0396 36.5639 52.6872 36.1233 52.4228 35.5947C52.2466 35.0661 52.1585 34.3612 52.1585 33.4802C52.1585 32.7753 52.2466 31.8942 52.2466 31.1013C52.3347 30.2202 52.4228 29.5154 52.5109 28.8987L52.6872 27.8414L53.392 28.7224C53.7444 29.163 54.0969 29.4273 54.5374 29.6916C54.9779 29.9559 55.4184 30.044 56.0352 30.044C56.8281 30.044 57.6211 29.7797 58.2378 29.3392C58.9427 28.8105 59.4713 28.1938 59.9999 27.4009C60.5286 26.5198 60.881 25.5506 61.1453 24.5815C61.4096 23.5242 61.5858 22.3788 61.5858 21.3216C61.5858 19.9119 61.3215 18.6784 60.7048 17.7973C60.1761 17.0044 59.4713 16.652 58.5021 16.652C57.533 16.652 56.6519 17.0044 55.9471 17.7973C55.1541 18.5903 54.4493 19.6476 53.9206 20.881L52.5991 24.1409L53.0396 20.7048C53.1277 20.4405 53.1277 20.1762 53.1277 19.9119C53.1277 19.6476 53.2158 19.3832 53.2158 19.207C53.2158 18.4141 53.1277 17.7973 52.8634 17.2687C52.7753 16.4758 52.2466 16.3876 51.8942 16.3876ZM56.74 26.9603C55.5065 26.9603 54.3612 26.3436 53.392 25.1982L53.2158 25.022L53.3039 24.7577C53.5682 23.7885 53.8325 22.9075 54.2731 22.1145C54.7136 21.2335 55.1541 20.5286 55.6828 20C56.2995 19.3832 57.0043 19.1189 57.7973 19.1189C58.5902 19.1189 59.207 19.4713 59.7356 20.0881C60.1761 20.7048 60.4405 21.4978 60.4405 22.555C60.4405 23.7004 60.088 24.7577 59.5594 25.6387C58.8546 26.5198 57.8854 26.9603 56.74 26.9603ZM54.185 24.7577C54.9779 25.6387 55.7709 25.9912 56.74 25.9912C57.6211 25.9912 58.3259 25.6387 58.7665 24.9339C59.2951 24.2291 59.5594 23.348 59.5594 22.3788C59.5594 21.5859 59.3832 20.9691 59.0308 20.5286C58.6783 20.0881 58.3259 19.9119 57.7973 19.9119C57.1806 19.9119 56.74 20.1762 56.2995 20.5286C55.7709 20.9691 55.4184 21.5859 55.066 22.3788C54.7136 23.1718 54.4493 23.9647 54.185 24.7577Z" fill="black"/>
<path d="M51.7181 40C50.9252 40 50.3084 39.7357 49.6917 39.207C49.2512 38.6784 49.075 37.7973 49.075 36.5639C49.075 35.9471 49.1631 35.0661 49.2512 34.2731V34.0088C49.3393 33.4802 49.4274 32.9515 49.5155 32.3348C49.6036 31.8062 49.6036 31.2775 49.6917 30.7489C49.8679 29.9559 49.956 29.0749 50.0441 28.2819V28.0176C50.2203 27.1365 50.3084 26.2555 50.3965 25.4625V25.1982C50.4846 24.3172 50.5728 23.4361 50.5728 22.7313C50.5728 21.9383 50.4846 21.2335 50.3084 20.7929C50.2203 20.3524 50.0441 20.2643 49.956 20.2643L49.8679 20.1762C49.6036 20 49.4274 19.9119 49.3393 19.8238L49.2512 19.7357C49.075 19.5595 48.7225 19.207 48.7225 18.5022C48.7225 18.0617 48.8987 17.7092 49.075 17.2687L49.1631 17.0925C49.4274 16.652 49.7798 16.2114 50.3084 15.7709C50.8371 15.3304 51.4538 15.1542 52.1587 15.1542C53.2159 15.1542 54.097 15.6828 54.4494 16.4758C54.5375 16.7401 54.7137 17.0044 54.7137 17.2687C54.8018 17.1806 54.8899 17.0044 54.978 16.9163L55.1542 16.7401C56.2115 15.6828 57.3569 15.1542 58.7666 15.1542C60.0882 15.1542 61.2335 15.7709 62.1146 16.9163C62.8194 17.8855 63.1719 19.2951 63.1719 21.1454C63.1719 22.2026 62.9957 23.5242 62.7313 24.7577C62.3789 25.9031 62.0265 27.0484 61.4098 27.9295C60.9692 28.8106 60.2644 29.6035 59.2952 30.3084C58.5023 30.9251 57.445 31.2775 56.2996 31.2775C55.5067 31.2775 54.8018 31.1013 54.1851 30.6608C54.097 30.6608 54.097 30.5727 54.097 30.5727C54.097 30.6608 54.097 30.7489 54.097 30.9251C53.7446 31.8943 53.7446 32.6872 53.7446 33.3921C53.7446 34.0969 53.8327 34.7136 54.0089 35.0661C54.1851 35.3304 54.2732 35.5066 54.5375 35.5947C55.0661 35.859 55.3305 36.2995 55.3305 36.9163C55.3305 37.2687 55.2424 37.6211 55.0661 38.0617C54.8899 38.5903 54.5375 39.0308 54.1851 39.4713L54.097 39.5595H54.0089C53.1278 39.9119 52.423 40 51.7181 40ZM52.9516 28.8987C52.8635 29.6035 52.7754 30.3084 52.6873 31.1894C52.6873 31.5418 52.6873 31.9824 52.5992 32.4229C52.5992 32.7753 52.5992 33.2158 52.5992 33.4802C52.5992 34.2731 52.6873 34.978 52.8635 35.4185C53.1278 35.859 53.3921 36.2114 53.8327 36.4758C53.9208 36.5639 54.097 36.7401 54.097 37.0044C54.097 37.1806 54.097 37.4449 53.9208 37.8854C53.8327 38.2379 53.5683 38.5903 53.304 38.8546C53.3921 38.8546 53.4802 38.8546 53.5683 38.7665C53.8327 38.5022 54.0089 38.1498 54.1851 37.7973C54.3613 37.4449 54.4494 37.1806 54.4494 37.0044C54.4494 36.7401 54.3613 36.5639 54.1851 36.3876C53.6565 36.1233 53.4802 35.7709 53.304 35.4185C53.1278 34.8899 52.9516 34.185 52.9516 33.3921C52.9516 32.6872 52.9516 31.8943 53.0397 31.0132C53.0397 30.6608 53.0397 30.2202 53.1278 29.7797L53.304 29.163C53.2159 29.0749 53.2159 29.0749 53.1278 28.9868L52.9516 28.8987ZM52.0706 26.696C51.9824 27.3128 51.8943 27.8414 51.8062 28.4581C51.63 29.3392 51.5419 30.1321 51.4538 31.0132V31.2775C51.2776 32.2467 51.1014 33.3921 51.0133 34.4493C50.8371 35.4185 50.8371 36.2114 50.8371 36.9163C50.8371 37.8854 51.0133 38.326 51.1014 38.326C51.3657 38.5903 51.5419 38.6784 51.63 38.6784C52.0706 38.6784 52.5111 38.5022 52.5111 38.4141C52.7754 38.1498 52.9516 37.9736 53.0397 37.7092C53.1278 37.4449 53.2159 37.2687 53.2159 37.1806C52.6873 36.8282 52.3349 36.3876 52.0706 35.7709C51.8943 35.1542 51.7181 34.3612 51.7181 33.4802C51.7181 33.1277 51.7181 32.7753 51.7181 32.3348C51.7181 31.8943 51.8062 31.5418 51.8062 31.1013C51.8943 30.1321 51.9824 29.4273 52.0706 28.8106L52.423 26.7841L53.7446 28.4581C54.097 28.8987 54.3613 29.0749 54.8018 29.3392C55.1543 29.5154 55.5067 29.6035 56.0353 29.6035C56.7402 29.6035 57.445 29.3392 57.9736 28.9868C58.5904 28.5462 59.119 28.0176 59.6476 27.1365C60.0882 26.4317 60.4406 25.5506 60.7049 24.4053C60.9692 23.2599 61.1454 22.2026 61.1454 21.2335C61.1454 19.8238 60.8811 18.6784 60.3525 17.9736C59.912 17.2687 59.3833 17.0044 58.5023 17.0044C57.6212 17.0044 56.8283 17.3568 56.2996 17.9736C55.5067 18.7665 54.8018 19.7357 54.3613 20.9691V21.0573C54.7137 20.4405 55.0661 20 55.4186 19.5595C56.1234 18.8546 56.9164 18.5903 57.8855 18.5903C58.7666 18.5903 59.4714 18.9427 60.1763 19.7357C60.7049 20.5286 60.9692 21.4097 60.9692 22.4669C60.9692 23.6123 60.6168 24.7577 60.0001 25.815C59.2071 26.8722 58.0617 27.3128 56.8283 27.3128C55.5067 27.3128 54.1851 26.6079 53.1278 25.3744L52.7754 25.022L52.9516 24.4934L52.0706 26.696ZM49.956 36.3876C49.956 36.4758 49.956 36.4758 49.956 36.5639C49.956 36.5639 49.956 36.5639 49.956 36.652C49.956 36.5639 49.956 36.4758 49.956 36.3876ZM50.2203 33.3039C50.2203 33.5683 50.1322 33.8326 50.1322 34.0969V34.3612C50.1322 34.5374 50.1322 34.6255 50.1322 34.7136C50.1322 34.5374 50.1322 34.4493 50.2203 34.2731C50.1322 34.0088 50.2203 33.6564 50.2203 33.3039ZM50.6609 30.5727C50.6609 30.6608 50.5728 30.837 50.5728 30.9251C50.4847 31.3656 50.3965 31.8943 50.3965 32.4229C50.3965 32.5991 50.3084 32.8634 50.3084 33.0396C50.3965 32.3348 50.4847 31.718 50.5728 31.1013V30.9251C50.5728 30.7489 50.6609 30.6608 50.6609 30.5727ZM54.8018 30.3084C55.2424 30.4846 55.6829 30.5727 56.1234 30.5727C57.0926 30.5727 57.8855 30.3084 58.5904 29.7797C59.4714 29.0749 60.0882 28.4581 60.5287 27.6652C61.0573 26.7841 61.4098 25.7269 61.7622 24.6696C62.0265 23.5242 62.2027 22.2907 62.2027 21.2335C62.2027 19.5595 61.9384 18.326 61.3216 17.533C60.6168 16.5639 59.7357 16.1233 58.6785 16.1233C57.5331 16.1233 56.5639 16.5639 55.771 17.4449L55.5067 17.6211C55.4186 17.7092 55.3305 17.8855 55.2424 17.9736C55.4186 17.7973 55.5067 17.7092 55.6829 17.533C56.3877 16.652 57.3569 16.2995 58.5904 16.2995C59.7357 16.2995 60.5287 16.7401 61.1454 17.6211C61.7622 18.5022 62.1146 19.8238 62.1146 21.4097C62.1146 22.4669 61.9384 23.6123 61.6741 24.7577C61.3217 25.9031 60.9692 26.8722 60.4406 27.6652C59.8239 28.5462 59.2952 29.2511 58.5904 29.6916C57.8855 30.2202 57.0045 30.4846 56.1234 30.4846C55.5067 30.4846 55.1543 30.3965 54.8018 30.3084ZM51.4538 22.8194C51.4538 23.5242 51.3657 24.4053 51.2776 25.2863V25.5506C51.1895 26.3436 51.1014 27.2247 50.9252 28.1938V28.37C50.9252 28.4581 50.9252 28.5462 50.9252 28.6343C50.9252 28.5462 50.9252 28.4581 51.0133 28.2819C51.1895 27.3128 51.2776 26.3436 51.3657 25.3744C51.3657 24.5815 51.4538 23.7004 51.4538 22.8194C51.4538 22.9075 51.4538 22.9075 51.4538 22.8194ZM53.7446 24.9339C54.6256 25.9912 55.6829 26.5198 56.7402 26.5198C57.7974 26.5198 58.5904 26.1674 59.2071 25.3744C59.7357 24.4934 60.0001 23.5242 60.0001 22.5551V22.4669C60.0001 23.5242 59.6476 24.4934 59.119 25.1982C58.5904 25.9912 57.7974 26.4317 56.7402 26.4317C55.5948 26.4317 54.7137 25.9912 53.8327 25.022L53.7446 24.9339ZM54.7137 24.6696C55.3305 25.2863 55.9472 25.5506 56.7402 25.5506C57.445 25.5506 58.0617 25.2863 58.4142 24.6696C58.8547 24.0529 59.119 23.2599 59.119 22.3788C59.119 21.674 58.9428 21.1454 58.6785 20.7929C58.4142 20.4405 58.1498 20.3524 57.7974 20.3524C57.3569 20.3524 57.0045 20.5286 56.5639 20.881C56.1234 21.2335 55.8591 21.674 55.4186 22.5551C55.1543 23.2599 54.8899 23.9647 54.7137 24.6696ZM50.3965 18.4141L50.4846 18.5022C50.5728 18.5022 50.5728 18.5903 50.6609 18.5903C51.4538 18.9427 51.8062 19.4714 52.0706 20.4405C52.2468 21.1454 52.3349 21.8502 52.3349 22.7313L52.5992 20.6167C52.6873 20.3524 52.6873 20.0881 52.6873 19.9119C52.6873 19.7357 52.6873 19.5595 52.7754 19.3832C52.7754 19.2951 52.7754 19.207 52.7754 19.207C52.7754 18.4141 52.6873 17.8855 52.5111 17.4449V17.2687C52.423 16.8282 52.3349 16.7401 51.9824 16.7401C51.7181 16.7401 51.4538 16.8282 51.3657 17.0044C51.0133 17.2687 50.9252 17.4449 50.749 17.7973C50.4846 18.0617 50.3965 18.2379 50.3965 18.4141ZM50.3084 19.4714C50.749 19.6476 51.0133 20.0881 51.1014 20.6167C51.1895 20.7929 51.1895 20.9692 51.2776 21.2335C51.2776 21.0573 51.1895 20.881 51.1895 20.7048C51.0133 19.8238 50.749 19.5595 50.3084 19.4714C50.1322 19.2951 50.0441 19.2951 49.956 19.207L49.8679 19.1189C49.6917 19.0308 49.6036 18.9427 49.5155 18.7665C49.5155 18.6784 49.5155 18.5903 49.5155 18.5903C49.5155 18.7665 49.6036 18.9427 49.7798 19.1189C49.956 19.207 50.1322 19.2951 50.3084 19.4714ZM53.304 17.1806C53.5683 17.7092 53.6565 18.326 53.6565 19.207C53.6565 19.2951 53.6565 19.4714 53.5683 19.5595C53.5683 19.6476 53.5683 19.8238 53.5683 19.9119C53.5683 20.1762 53.5683 20.5286 53.4802 20.881L53.5683 20.7048C53.7446 20.2643 54.0089 19.8238 54.2732 19.3832L53.7446 20.0881V18.5903C53.7446 17.7973 53.6565 17.3568 53.4802 16.9163C53.3921 16.7401 53.2159 16.5639 53.0397 16.3877C53.2159 16.652 53.2159 16.9163 53.304 17.1806Z" fill="black"/>
<path d="M65.2864 30.1321C65.0221 30.1321 64.8459 30.044 64.6697 29.8678C64.4935 29.6916 64.4054 29.5154 64.4054 29.2511C64.6697 27.4009 64.934 25.5506 65.1102 23.7004C65.2864 21.8502 65.3745 19.9119 65.3745 18.0617C65.3745 16.3876 65.2864 14.8017 65.1983 13.4802C65.1102 12.1586 64.8459 10.837 64.3173 9.6035C64.2292 9.33919 64.1411 9.16298 64.0529 8.98676C63.9648 8.81055 63.9648 8.63434 63.9648 8.45813C63.9648 8.0176 64.1411 7.57707 64.5816 7.22465C65.0221 6.78412 65.1983 6.60791 65.6389 6.60791C66.2556 6.60791 66.8723 7.13654 67.1366 8.10571C67.401 9.07487 67.4891 10.5727 67.4891 12.5991C67.4891 14.978 67.401 16.9163 67.1366 18.7665C66.8723 20.5286 66.6961 21.8502 66.5199 22.7313L66.608 22.8194C66.9604 21.5859 67.401 20.5286 67.9296 19.4713C68.4582 18.4141 69.075 17.6211 69.7798 17.0044C70.4847 16.3876 71.2776 16.0352 72.1587 16.0352C73.1278 16.0352 73.8327 16.3876 74.3613 17.0925C74.89 17.7973 75.0662 18.7665 75.0662 19.7357C75.0662 20.1762 74.9781 20.6167 74.9781 21.0572C74.89 21.4978 74.8018 21.8502 74.7137 22.2907C74.6256 22.6431 74.5375 22.9956 74.4494 23.348C74.3613 23.7004 74.3613 24.1409 74.3613 24.4934C74.3613 25.1982 74.5375 25.7268 74.8018 26.2555C75.0662 26.696 75.4186 27.0484 75.8591 27.2246C76.0353 27.3127 76.1234 27.3128 76.1234 27.4009C76.2115 27.489 76.2115 27.6652 76.2115 27.8414C76.2115 28.1057 76.1234 28.37 76.0353 28.7224C75.9472 29.163 75.6829 29.4273 75.4186 29.7797C75.1543 30.1321 74.7137 30.3083 74.1851 30.3083C73.4803 30.3083 72.9516 29.9559 72.5111 29.3392C72.0706 28.7224 71.8944 27.8414 71.8944 26.8722C71.8944 26.3436 71.9825 25.9031 72.0706 25.2863C72.1587 24.7577 72.2468 24.3172 72.3349 23.7885C72.423 23.348 72.5111 22.9075 72.5992 22.4669C72.6873 22.0264 72.6873 21.674 72.6873 21.4097C72.6873 20.3524 72.2468 19.8238 71.3657 19.8238C70.6609 19.8238 70.0441 20.1762 69.4274 20.7929C68.8988 21.4097 68.4582 22.2026 68.0177 23.2599C67.5772 24.2291 67.3129 25.2863 67.0485 26.3436V27.3128C67.0485 28.1938 66.8723 28.8987 66.4318 29.4273C66.3437 29.8678 65.8151 30.1321 65.2864 30.1321Z" fill="black"/>
<path d="M65.2863 30.5727C64.9339 30.5727 64.5815 30.4846 64.3172 30.2203C63.9647 29.956 63.8766 29.6035 63.9647 29.2511C64.229 27.4009 64.4934 25.5507 64.6696 23.7886C64.8458 21.9383 64.9339 20.0881 64.9339 18.1498C64.9339 16.4758 64.8458 14.978 64.7577 13.5683C64.6696 12.2467 64.4053 11.0132 63.9647 9.77975C63.8766 9.51544 63.7885 9.25112 63.7004 9.07491C63.6123 8.81059 63.6123 8.63438 63.6123 8.45817C63.6123 7.92953 63.8766 7.4009 64.3172 6.87227C64.7577 6.43174 65.1101 6.16742 65.7268 6.16742C66.6079 6.16742 67.4009 6.87227 67.6652 8.01764C67.9295 9.07491 68.0176 10.5727 68.0176 12.5991C68.0176 14.978 67.9295 17.0044 67.6652 18.7665C67.5771 18.9427 67.5771 19.119 67.5771 19.2952C67.5771 19.2071 67.6652 19.2071 67.6652 19.119C68.1938 18.0617 68.8105 17.0925 69.6035 16.4758C70.3964 15.7709 71.2775 15.4185 72.2467 15.4185C73.3039 15.4185 74.185 15.859 74.8017 16.652C75.3304 17.4449 75.5947 18.4141 75.5947 19.6476C75.5947 20.0881 75.5066 20.6168 75.4185 21.0573C75.3304 21.4978 75.2423 21.9383 75.1542 22.2908C75.0661 22.6432 74.9779 22.9956 74.8898 23.348C74.8017 23.7005 74.8017 24.0529 74.8017 24.4053C74.8017 25.022 74.9779 25.5507 75.1542 25.9031C75.4185 26.2555 75.6828 26.5198 76.0352 26.696C76.2114 26.7842 76.3876 26.8723 76.4757 27.0485C76.652 27.2247 76.652 27.489 76.652 27.7533C76.652 28.0176 76.5638 28.3701 76.4757 28.7225C76.2995 29.163 76.1233 29.6035 75.7709 29.956C75.4185 30.3965 74.8898 30.5727 74.0969 30.5727C73.2158 30.5727 72.511 30.1322 71.9823 29.4273C71.5418 28.7225 71.2775 27.7533 71.2775 26.696C71.2775 26.1674 71.3656 25.6388 71.4537 25.1101C71.5418 24.5815 71.6299 24.0529 71.718 23.5242C71.8061 23.0837 71.8942 22.6432 71.9823 22.2027C72.0705 21.7621 72.0705 21.4978 72.0705 21.2335C72.0705 20.2643 71.6299 20.1762 71.1894 20.1762C70.5727 20.1762 70.1321 20.4405 69.6035 20.9692C69.0749 21.5859 68.6343 22.3789 68.2819 23.2599C67.9295 24.2291 67.5771 25.1982 67.4009 26.2555V27.3128C67.4009 28.2819 67.1365 29.0749 66.696 29.6916C66.6079 30.2203 66.0793 30.5727 65.2863 30.5727ZM65.8149 7.04848C65.5506 7.04848 65.3744 7.13658 65.022 7.57711C64.6696 7.92953 64.4934 8.19385 64.4934 8.54627C64.4934 8.72248 64.4934 8.81059 64.5815 8.8987C64.6696 9.07491 64.7577 9.25112 64.8458 9.51544C65.3744 10.7489 65.6387 12.1586 65.7268 13.5683C65.8149 14.8899 65.9031 16.4758 65.9031 18.1498C65.9031 20.0881 65.815 21.9383 65.6387 23.8767C65.4625 25.7269 65.1982 27.5771 64.9339 29.4273C64.9339 29.5154 64.9339 29.6035 65.022 29.6035C65.1101 29.6916 65.2863 29.7797 65.3744 29.7797C65.8149 29.7797 66.1674 29.6035 66.4317 29.163C66.7841 28.7225 66.9603 28.1057 66.9603 27.3128V26.0793C67.2246 25.022 67.5771 23.9648 67.9295 22.9956C68.37 21.9383 68.8105 21.0573 69.4273 20.4405C70.044 19.6476 70.837 19.2952 71.718 19.2952C72.3348 19.2952 73.4801 19.5595 73.4801 21.3216C73.4801 21.674 73.392 22.0264 73.3039 22.467C73.2158 22.9075 73.1277 23.348 73.0396 23.7886C72.9515 24.3172 72.8634 24.7577 72.7753 25.2864C72.6872 25.815 72.5991 26.2555 72.5991 26.696C72.5991 27.6652 72.7753 28.3701 73.1277 28.9868C73.4801 29.5154 73.8326 29.7797 74.3612 29.7797C74.8017 29.7797 75.066 29.6916 75.3304 29.4273C75.5947 29.163 75.7709 28.8106 75.859 28.5463C76.0352 28.1057 76.0352 27.9295 76.0352 27.7533C76.0352 27.6652 76.0352 27.5771 76.0352 27.5771C76.0352 27.5771 75.9471 27.5771 75.9471 27.489C75.4185 27.2247 74.9779 26.8723 74.6255 26.3436C74.2731 25.815 74.185 25.1983 74.185 24.4053C74.185 23.9648 74.2731 23.6123 74.3612 23.1718C74.4493 22.8194 74.5374 22.3789 74.6255 22.0264C74.7136 21.674 74.8017 21.2335 74.8898 20.8811C74.9779 20.4405 74.9779 20.0881 74.9779 19.6476C74.9779 18.6784 74.7136 17.8855 74.2731 17.1806C73.8326 16.5639 73.3039 16.2996 72.4229 16.2996C71.6299 16.2996 71.0132 16.5639 70.3083 17.0925C69.6916 17.7093 69.0749 18.5022 68.5462 19.4714C68.0176 20.4405 67.5771 21.5859 67.3127 22.8194L67.1365 23.4361L66.2555 22.9075L66.3436 22.5551C66.5198 21.674 66.696 20.3524 66.8722 18.5903C67.1365 16.8282 67.2246 14.8018 67.2246 12.511C67.2246 10.5727 67.0484 9.16301 66.8722 8.19385C66.696 7.48901 66.2555 7.04848 65.8149 7.04848Z" fill="black"/>
<path d="M74.097 31.0132C73.1278 31.0132 72.2467 30.5727 71.63 29.6916C71.1014 28.8987 70.837 27.8414 70.837 26.696C70.837 26.1674 70.9251 25.5507 71.0133 25.022L71.2776 23.4361L71.5419 22.1145C71.63 21.674 71.63 21.4978 71.63 21.2335C71.63 20.6167 71.4538 20.6167 71.1895 20.6167C70.7489 20.6167 70.3965 20.7929 69.956 21.3216C69.5155 21.8502 69.0749 22.5551 68.7225 23.4361C68.3701 24.4053 68.0177 25.2863 67.8414 26.3436V27.3128C67.8414 28.2819 67.5771 29.163 67.1366 29.8678C66.9604 30.5727 66.2555 31.0132 65.2864 31.0132C64.7577 31.0132 64.3172 30.837 63.9648 30.5727C63.5243 30.2203 63.3481 29.7797 63.5243 29.163C63.7886 27.4009 64.0529 25.4625 64.2291 23.7885C64.4053 21.9383 64.4934 20.0881 64.4934 18.1498C64.4934 16.5639 64.4053 15.0661 64.3172 13.5683C64.2291 12.3348 63.9648 11.1013 63.5243 9.86784C63.4362 9.60352 63.3481 9.3392 63.26 9.2511C63.0837 8.89867 63.0837 8.63436 63.0837 8.45814C63.0837 7.8414 63.3481 7.22466 63.8767 6.60792C64.3172 6.1674 64.8459 5.72687 65.6388 5.72687C66.7842 5.72687 67.6652 6.60792 68.0177 7.92951C68.282 8.98678 68.3701 10.3084 68.3701 12.5991C68.3701 14.4493 68.282 15.9471 68.1939 17.1806C68.5463 16.7401 68.8987 16.3877 69.2511 16.1233C70.1322 15.3304 71.1014 14.978 72.1586 14.978C73.304 14.978 74.3613 15.5066 75.0661 16.3877C75.6829 17.2687 75.9472 18.326 75.9472 19.6476C75.9472 20 75.8591 20.5286 75.771 21.1454C75.6829 21.5859 75.5947 22.0264 75.5066 22.3788L75.2423 23.4361C75.1542 23.7004 75.1542 24.0529 75.1542 24.4053C75.1542 25.022 75.3304 25.4625 75.4185 25.7269C75.5947 25.9912 75.8591 26.1674 76.1234 26.3436C76.2996 26.4317 76.5639 26.6079 76.7401 26.8722C77.0044 27.1366 77.0044 27.5771 77.0044 27.8414C77.0044 28.1938 76.9163 28.5462 76.8282 28.8987C76.652 29.4273 76.3877 29.9559 76.0353 30.3084C75.5948 30.9251 74.7137 31.0132 74.097 31.0132ZM71.4538 19.7357C72.1586 19.8238 72.5111 20.3524 72.5111 21.2335C72.5111 21.4978 72.511 21.8502 72.4229 22.2907L71.8943 25.1982C71.8062 25.7269 71.7181 26.2555 71.7181 26.696C71.7181 27.6652 71.9824 28.5462 72.3348 29.163C72.6873 29.6916 73.1278 29.9559 73.6564 30.044C73.2159 29.8678 72.9516 29.5154 72.6873 29.163C72.2467 28.4581 72.0705 27.6652 72.0705 26.6079C72.0705 26.1674 72.1586 25.815 72.2467 25.3744V25.1101C72.3348 24.8458 72.3348 24.5815 72.4229 24.3172C72.4229 24.0529 72.5111 23.8766 72.5111 23.6123L72.8635 22.0264C72.9516 21.674 72.9516 21.4097 72.9516 21.2335C72.9516 20.1762 72.5111 19.6476 71.63 19.6476C71.63 19.7357 71.5419 19.7357 71.4538 19.7357ZM64.2291 9.16299C64.3172 9.3392 64.3172 9.51541 64.4053 9.69162C64.8459 11.0132 65.1102 12.2467 65.1983 13.5683C65.2864 15.0661 65.3745 16.5639 65.3745 18.1498C65.3745 20.0881 65.2864 21.9383 65.1102 23.7885C64.934 25.5507 64.6696 27.4009 64.4053 29.2511C64.3172 29.5154 64.4053 29.6916 64.5815 29.8678C64.6696 29.9559 64.8459 30.044 64.934 30.044C64.8459 30.044 64.8459 29.9559 64.7577 29.9559C64.5815 29.8678 64.4053 29.7797 64.4053 29.4273C64.6696 27.5771 64.934 25.6388 65.1102 23.8766C65.2864 21.9383 65.3745 20.0881 65.3745 18.1498C65.3745 16.4758 65.2864 14.8018 65.1983 13.5683C65.1102 12.0705 64.8459 10.7489 64.3172 9.69162C64.3172 9.42731 64.3172 9.2511 64.2291 9.16299ZM65.3745 29.3392C65.6388 29.3392 65.9031 29.2511 66.0793 28.9868C66.4318 28.5462 66.5199 28.0176 66.5199 27.4009V26.0793C66.6961 25.4625 66.8723 24.7577 67.1366 24.0529L66.1674 23.4361C66.1674 23.6123 66.1674 23.7885 66.0793 23.9647C65.9031 25.7269 65.6388 27.5771 65.3745 29.3392ZM71.7181 18.8546C72.7754 18.8546 73.9207 19.4714 73.9207 21.3216C73.9207 21.674 73.8326 21.9383 73.7445 22.2907L73.3921 23.8766C73.3921 24.141 73.304 24.4053 73.304 24.5815C73.304 24.8458 73.2159 25.022 73.2159 25.2863V25.5507C73.1278 25.9912 73.1278 26.3436 73.1278 26.696C73.1278 27.5771 73.304 28.1938 73.5683 28.8106C73.9207 29.2511 74.097 29.3392 74.4494 29.3392C74.8018 29.3392 74.978 29.2511 75.0661 29.0749C75.3304 28.8106 75.4185 28.4581 75.5066 28.37C75.6829 28.0176 75.6829 27.9295 75.6829 27.7533C75.1542 27.489 74.7137 27.0484 74.3613 26.5198C73.9207 25.815 73.8326 25.1101 73.8326 24.3172C73.8326 23.8766 73.9207 23.5242 74.0088 23.1718V22.9956C74.097 22.8194 74.097 22.6432 74.1851 22.3788C74.2732 22.2026 74.2732 21.9383 74.3613 21.7621C74.3613 21.5859 74.4494 21.4097 74.4494 21.2335C74.5375 21.0573 74.5375 20.7929 74.6256 20.6167C74.7137 20.2643 74.7137 19.9119 74.7137 19.4714C74.7137 18.6784 74.5375 17.8855 74.097 17.2687C73.5683 16.9163 73.1278 16.7401 72.4229 16.7401C71.8062 16.7401 71.2776 16.9163 70.5727 17.4449C69.956 18.0617 69.4273 18.8546 68.8987 19.6476C68.5463 20.2643 68.282 20.881 68.1058 21.4978C68.3701 20.9692 68.7225 20.5286 69.0749 20.0881C69.7798 19.2951 70.6608 18.8546 71.7181 18.8546ZM66.7842 22.7313C67.1366 21.5859 67.5771 20.3524 68.1058 19.2951C68.6344 18.326 69.2511 17.533 69.956 16.8282C70.837 16.2114 71.4538 15.9471 72.2467 15.9471C71.3657 15.9471 70.5727 16.2114 69.7798 16.9163C69.163 17.4449 68.5463 18.2379 67.9296 19.3833C67.9296 19.5595 67.8415 19.6476 67.7533 19.6476C67.7533 19.6476 67.8414 19.5595 67.8414 19.3833H67.0485C67.0485 20.7048 66.9604 21.8502 66.7842 22.7313ZM64.934 8.63436C65.1102 8.89867 65.1983 9.07488 65.2864 9.3392C65.815 10.4846 66.0793 11.8943 66.1674 13.4802C66.2555 14.7136 66.3437 16.3877 66.3437 18.0617C66.3437 18.5022 66.3437 19.0308 66.3437 19.4714C66.3437 19.1189 66.4318 18.8546 66.4318 18.5022C66.6961 16.9163 66.7842 14.978 66.7842 12.4229C66.7842 10.837 66.6961 9.42731 66.4318 8.19383C66.3437 7.7533 65.9912 7.40088 65.815 7.40088C65.7269 7.40088 65.6388 7.40088 65.3745 7.7533C65.0221 8.19383 64.934 8.37004 64.934 8.63436ZM65.7269 6.60792C65.2864 6.60792 65.0221 6.78414 64.6696 7.22466C64.3172 7.66519 64.0529 8.10572 64.0529 8.45814V8.54625C64.0529 8.01762 64.3172 7.66519 64.6696 7.31277C65.0221 6.87224 65.2864 6.60792 65.7269 6.60792Z" fill="black"/>
<path d="M79.7357 30.1321C79.1189 30.1321 78.7665 29.8678 78.8546 29.3391C79.0308 28.37 79.207 27.4008 79.3832 26.3436C79.5594 25.3744 79.5595 24.3171 79.5595 23.4361C79.5595 22.2907 79.4713 21.3215 79.3832 20.7929C79.207 20.2643 79.1189 19.8237 78.9427 19.6475C78.7665 19.3832 78.5022 19.2951 78.2379 19.1189C78.0617 19.0308 77.9735 18.9427 77.8854 18.8546C77.7973 18.7665 77.7092 18.5903 77.7092 18.414C77.7092 18.0616 77.7973 17.7092 78.0617 17.3568C78.2379 17.0044 78.5903 16.6519 78.9427 16.3876C79.2951 16.1233 79.7357 15.9471 80.1762 15.9471C80.7929 15.9471 81.2335 16.2114 81.4097 16.74C81.674 17.2687 81.7621 17.9735 81.7621 18.8546C81.7621 19.4713 81.674 20.0881 81.5859 20.7929C81.4978 21.4977 81.4097 22.1145 81.3216 22.7312L81.4097 22.8193C81.7621 21.674 82.2026 20.5286 82.7313 19.4713C83.2599 18.414 83.8766 17.6211 84.5815 17.0043C85.2863 16.3876 86.0793 16.0352 86.9603 16.0352C87.9295 16.0352 88.6343 16.3876 89.163 17.0925C89.6916 17.7973 89.9559 18.7665 89.9559 19.8237C89.9559 20.2643 89.8678 20.7048 89.7797 21.1453C89.6916 21.5858 89.6035 21.9383 89.5154 22.2907C89.4273 22.6431 89.3392 22.9955 89.2511 23.4361C89.163 23.8766 89.163 24.229 89.163 24.5814C89.163 25.903 89.6916 26.7841 90.5727 27.2246C90.837 27.4008 90.9251 27.577 90.9251 27.8414C90.9251 28.1057 90.837 28.37 90.7489 28.7224C90.6608 29.1629 90.3965 29.4273 90.1321 29.7797C89.8678 30.1321 89.4273 30.3083 88.8987 30.3083C88.1938 30.3083 87.6652 29.9559 87.2246 29.3391C86.7841 28.7224 86.6079 27.9295 86.6079 26.8722C86.6079 26.3436 86.696 25.7268 86.7841 25.1101C86.8722 24.4933 86.9603 23.9647 87.1365 23.4361C87.2246 23.0836 87.3128 22.6431 87.3128 22.2907C87.4009 21.9383 87.4009 21.5858 87.4009 21.3215C87.4009 20.2643 86.9603 19.7356 86.0793 19.7356C85.3744 19.7356 84.6696 20.0881 84.1409 20.7929C83.6123 21.4977 83.0837 22.3788 82.7313 23.348C82.2907 24.4052 82.0264 25.4625 81.7621 26.5198V27.3127C81.7621 28.1938 81.5859 28.8986 81.2335 29.4273C80.881 29.8678 80.3524 30.1321 79.7357 30.1321Z" fill="black"/>
<path d="M79.7356 30.5727C79.207 30.5727 78.8546 30.3965 78.6784 30.1321C78.4141 29.9559 78.3259 29.6916 78.4141 29.2511C78.5903 28.2819 78.7665 27.2246 78.9427 26.2555C79.1189 25.2863 79.1189 24.3172 79.1189 23.4361C79.1189 22.2907 79.0308 21.4097 78.9427 20.881C78.7665 20.2643 78.6784 20 78.5903 19.9119C78.4141 19.7357 78.2378 19.6476 78.0616 19.5595H77.9735C77.7973 19.4713 77.6211 19.2951 77.533 19.207C77.3568 19.0308 77.2687 18.7665 77.2687 18.4141C77.2687 17.9736 77.4449 17.6211 77.6211 17.1806C77.8854 16.7401 78.1497 16.3876 78.5903 16.0352C79.0308 15.6828 79.5594 15.5066 80.1762 15.5066C80.9691 15.5066 81.4978 15.859 81.8502 16.5639C82.1145 17.1806 82.2907 17.8854 82.2907 18.8546C82.2907 19.0308 82.2907 19.207 82.2907 19.4713C82.3788 19.3832 82.3788 19.2951 82.4669 19.207C82.9955 18.1498 83.6123 17.2687 84.4052 16.5639C85.1982 15.859 86.0793 15.5066 87.0484 15.5066C88.1057 15.5066 88.9867 15.9471 89.6035 16.7401C90.1321 17.533 90.4845 18.5903 90.4845 19.7357C90.4845 20.2643 90.3964 20.7048 90.3083 21.0573C90.2202 21.4978 90.1321 21.8502 90.044 22.2907C89.9559 22.6432 89.8678 22.9956 89.7797 23.348C89.6916 23.7004 89.6916 24.0528 89.6916 24.4053C89.6916 25.4625 90.1321 26.2555 90.837 26.6079C91.2775 26.8722 91.4537 27.2246 91.4537 27.6652C91.4537 27.9295 91.3656 28.2819 91.2775 28.6343C91.1013 29.0749 90.9251 29.5154 90.5726 29.8678C90.2202 30.3084 89.6916 30.4846 88.8986 30.4846C88.0176 30.4846 87.3127 30.044 86.7841 29.3392C86.3436 28.6343 86.0792 27.6652 86.0792 26.6079C86.0792 25.9912 86.1674 25.4625 86.2555 24.7577C86.3436 24.141 86.5198 23.6123 86.6079 23.0837C86.696 22.7313 86.7841 22.3788 86.7841 21.9383C86.8722 21.5859 86.8722 21.2335 86.8722 21.0573C86.8722 20.0881 86.4317 20 85.9911 20C85.3744 20 84.8458 20.2643 84.4052 20.881C83.8766 21.4978 83.4361 22.3788 83.0837 23.348C82.7312 24.3172 82.3788 25.3744 82.1145 26.4317V27.3128C82.1145 28.1938 81.8502 29.0749 81.4978 29.6035C81.1453 30.2202 80.4405 30.5727 79.7356 30.5727ZM78.3259 18.6784C78.6784 18.8546 78.9427 19.0308 79.207 19.2951C79.4713 19.5595 79.6475 20 79.8237 20.6167C80 21.2335 80 22.1145 80 23.348C80 24.3172 79.9119 25.2863 79.7356 26.3436C79.5594 27.3128 79.3832 28.37 79.207 29.3392C79.207 29.4273 79.207 29.5154 79.2951 29.5154C79.2951 29.5154 79.3832 29.6035 79.7356 29.6035C80.2643 29.6035 80.6167 29.4273 80.881 28.9868C81.2334 28.5462 81.4096 27.9295 81.4096 27.1365V26.2555C81.674 25.1982 82.0264 24.0528 82.3788 22.9956C82.8193 21.9383 83.2599 20.9691 83.8766 20.2643C84.4933 19.4713 85.2863 19.0308 86.1674 19.0308C86.7841 19.0308 87.9295 19.2951 87.9295 21.0573C87.9295 21.4097 87.8414 21.7621 87.8414 22.1145C87.7533 22.4669 87.6652 22.9075 87.577 23.2599C87.4889 23.7885 87.3127 24.3172 87.2246 24.8458C87.1365 25.3744 87.0484 25.9031 87.0484 26.5198C87.0484 27.4009 87.2246 28.1938 87.577 28.7224C87.9295 29.2511 88.2819 29.5154 88.8105 29.5154C89.2511 29.5154 89.5154 29.4273 89.7797 29.163C90.044 28.8987 90.2202 28.5462 90.3083 28.2819C90.4845 27.8414 90.4845 27.6652 90.4845 27.489C90.4845 27.4009 90.4845 27.3128 90.3083 27.2246C89.163 26.696 88.5462 25.6387 88.5462 24.1409C88.5462 23.7004 88.6343 23.348 88.6343 22.9075C88.7224 22.4669 88.8105 22.1145 88.8986 21.7621C88.9867 21.4097 89.0748 20.9691 89.1629 20.6167C89.2511 20.2643 89.2511 19.8238 89.2511 19.3832C89.2511 18.4141 88.9867 17.533 88.5462 16.9163C88.1057 16.2995 87.577 16.0352 86.696 16.0352C85.903 16.0352 85.2863 16.2995 84.5815 16.8282C83.9647 17.4449 83.348 18.2379 82.8193 19.207C82.2907 20.1762 81.8502 21.3216 81.5859 22.4669L81.4096 22.9956L80.5286 22.6432L80.6167 22.2907C80.7048 21.7621 80.7929 21.1454 80.881 20.3524C80.9691 19.6476 81.0572 19.0308 81.0572 18.5022C81.0572 17.7092 80.9691 17.0925 80.7048 16.5639C80.5286 16.2114 80.2643 16.0352 79.8237 16.0352C79.4713 16.0352 79.1189 16.1233 78.8546 16.3876C78.5022 16.652 78.3259 16.9163 78.1497 17.2687C77.9735 17.6211 77.8854 17.8854 77.8854 18.1498C77.8854 18.2379 77.8854 18.326 77.9735 18.326C78.2378 18.5903 78.3259 18.6784 78.3259 18.6784Z" fill="black"/>
<path d="M79.7356 31.0132C79.1189 31.0132 78.6784 30.837 78.3259 30.4846C77.9735 30.2203 77.7973 29.7797 77.9735 29.163C78.0616 28.7225 78.1497 28.1938 78.2378 27.6652C78.326 27.1366 78.4141 26.6079 78.5022 26.1674C78.6784 25.1982 78.6784 24.3172 78.6784 23.4361C78.6784 22.1145 78.5903 21.2335 78.5022 20.9692C78.4141 20.7929 78.326 20.2643 78.2378 20.1762C78.1497 20.0881 78.0616 20 77.9735 20H77.8854L77.7973 19.9119C77.533 19.8238 77.3568 19.5595 77.2687 19.4714C77.0044 19.207 76.9163 18.8546 76.9163 18.326C76.9163 17.8855 77.0925 17.533 77.2687 17.0925L77.3568 16.9163C77.6211 16.4758 77.8854 16.0352 78.5022 15.5947C79.0308 15.1542 79.6475 14.978 80.3524 14.978C81.3215 14.978 82.0264 15.4185 82.3788 16.2996C82.555 16.8282 82.7312 17.3568 82.8193 17.8855C83.2599 17.1806 83.7004 16.652 84.229 16.2114C85.1101 15.4185 86.0793 15.0661 87.1365 15.0661C88.2819 15.0661 89.3392 15.5947 90.044 16.4758C90.6607 17.4449 91.0132 18.5903 91.0132 19.7357C91.0132 20.3524 90.9251 20.7929 90.837 21.1454C90.837 21.3216 90.7489 21.5859 90.7489 21.7621C90.7489 21.9383 90.6607 22.1145 90.6607 22.3788L90.3964 23.4361C90.3083 23.7004 90.3083 24.0529 90.3083 24.4053C90.3083 25.2863 90.6607 25.9031 91.1894 26.2555C91.8061 26.6079 92.0704 27.0484 92.0704 27.6652C92.0704 28.0176 91.9823 28.37 91.8942 28.7225C91.718 29.2511 91.4537 29.7797 91.1013 30.1321C90.5726 30.837 89.6916 30.837 89.0748 30.837C88.1057 30.837 87.2246 30.3965 86.6079 29.5154C86.0793 28.7225 85.8149 27.6652 85.8149 26.5198C85.8149 25.9912 85.903 25.5507 85.903 25.022L85.9911 24.6696C86.0792 24.3172 86.0793 23.9647 86.1674 23.7004C86.2555 23.4361 86.2555 23.2599 86.3436 22.9956C86.4317 22.6432 86.5198 22.2907 86.5198 21.9383V21.8502C86.6079 21.5859 86.6079 21.2335 86.6079 21.0573C86.6079 20.4405 86.4317 20.4405 86.1674 20.4405C85.6387 20.4405 85.2863 20.7048 84.9339 21.1454C84.4933 21.674 84.0528 22.467 83.7004 23.5242C83.2599 24.6696 82.9956 25.6388 82.7312 26.5198V27.3128C82.7312 28.1938 82.4669 29.2511 82.0264 29.8678C81.4978 30.5727 80.6167 31.0132 79.7356 31.0132ZM79.0308 29.8678C79.1189 30.044 79.3832 30.1321 79.7356 30.1321C80.1762 30.1321 80.6167 29.9559 80.9691 29.6035C80.7048 29.8678 80.2643 30.044 79.7356 30.044C79.4713 30.044 79.207 29.9559 79.0308 29.8678ZM87.2246 22.0264C87.2246 22.467 87.1365 22.9075 87.0484 23.2599C87.0484 23.4361 86.9603 23.7004 86.8722 23.9647C86.7841 24.2291 86.696 24.5815 86.696 24.8458L86.6079 25.1982C86.5198 25.7269 86.5198 26.1674 86.5198 26.6079C86.5198 27.5771 86.7841 28.4581 87.1365 29.0749C87.577 29.6916 88.1938 30.044 88.8986 30.044C89.7797 30.044 90.044 29.7797 90.2202 29.6035C90.5726 29.2511 90.6607 28.8987 90.837 28.4581C90.9251 28.1938 91.0132 27.8414 91.0132 27.6652C91.0132 27.489 91.0132 27.3128 90.9251 27.2247C90.9251 27.3128 90.9251 27.4009 90.9251 27.489C90.9251 27.7533 90.9251 27.9295 90.7489 28.4581C90.6607 28.6343 90.4845 29.0749 90.1321 29.5154C89.7797 29.8678 89.4273 29.9559 88.8105 29.9559C88.0176 29.9559 87.4889 29.4273 87.2246 28.9868C86.8722 28.37 86.6079 27.5771 86.6079 26.5198C86.6079 25.9031 86.696 25.2863 86.7841 24.7577C86.8722 24.4934 86.8722 24.2291 86.9603 23.9647C87.0484 23.7004 87.0484 23.4361 87.1365 23.1718C87.2246 22.9956 87.2246 22.7313 87.3127 22.5551C87.3127 22.3788 87.4008 22.2026 87.4008 22.0264C87.4008 21.8502 87.4008 21.674 87.4889 21.4978C87.4889 21.3216 87.4889 21.1454 87.4889 21.0573C87.4889 20 87.0484 19.4714 86.1674 19.4714C85.8149 19.4714 85.5506 19.5595 85.2863 19.6476C85.5506 19.5595 85.7268 19.5595 85.9911 19.5595C86.8722 19.5595 87.3127 20.0881 87.3127 21.0573C87.3127 21.2335 87.3127 21.5859 87.2246 22.0264ZM79.6475 29.163C79.7356 29.163 79.7356 29.163 79.6475 29.163C80.0881 29.163 80.2643 29.0749 80.4405 28.7225C80.7929 28.2819 80.881 27.7533 80.881 27.1366V26.1674C81.1453 25.1982 81.4096 24.141 81.8502 22.9075C82.2907 21.8502 82.7312 20.7929 83.4361 20C84.1409 19.1189 85.022 18.5903 86.0792 18.5903C87.1365 18.5903 88.2819 19.207 88.2819 21.0573C88.2819 21.2335 88.2819 21.4097 88.1938 21.674C88.1938 21.8502 88.1938 22.0264 88.1938 22.1145V22.2026C88.1938 22.3788 88.1057 22.5551 88.1057 22.7313C88.0176 22.9075 88.0176 23.1718 87.9295 23.348C87.9295 23.6123 87.8414 23.8766 87.7533 24.141C87.6652 24.4053 87.6652 24.6696 87.577 24.9339C87.4889 25.4625 87.4008 25.9912 87.4008 26.5198C87.4008 27.3128 87.577 28.0176 87.8414 28.4581C88.1938 28.9868 88.4581 29.0749 88.7224 29.0749C89.0748 29.0749 89.2511 28.9868 89.3392 28.8106C89.6035 28.5462 89.6916 28.1938 89.7797 28.1057C89.8678 27.8414 89.9559 27.6652 89.9559 27.5771C88.7224 26.9603 88.0176 25.7269 88.0176 24.141C88.0176 23.8766 88.0176 23.7004 88.1057 23.4361C88.1057 23.2599 88.1057 23.0837 88.1057 22.9075C88.1938 22.3788 88.2819 22.0264 88.37 21.674C88.37 21.4978 88.4581 21.3216 88.4581 21.1454C88.5462 20.9692 88.5462 20.7048 88.6343 20.5286C88.7224 20.2643 88.7224 19.8238 88.7224 19.3833C88.7224 18.5022 88.4581 17.7092 88.1057 17.1806C87.7533 16.652 87.3127 16.4758 86.6079 16.4758C85.9911 16.4758 85.4625 16.652 84.7577 17.1806C84.1409 17.7973 83.6123 18.5903 83.0837 19.3833C82.555 20.3524 82.1145 21.4097 81.8502 22.5551L81.4978 23.5242L80.2643 22.9956C80.2643 23.0837 80.2643 23.1718 80.2643 23.2599C80.2643 24.2291 80.1762 25.1982 80 26.3436C79.9119 26.8722 79.8237 27.3128 79.7356 27.8414C79.8237 28.37 79.7356 28.7225 79.6475 29.163ZM88.8105 16.5639L88.8986 16.652C89.4273 17.3568 89.6916 18.326 89.6916 19.3833C89.6916 19.8238 89.6916 20.3524 89.6035 20.7048C89.6035 20.881 89.5154 21.0573 89.5154 21.2335C89.4273 21.4097 89.4273 21.674 89.3392 21.8502C89.2511 22.2026 89.1629 22.5551 89.0748 22.9956C89.0748 23.1718 89.0748 23.348 89.0748 23.6123C89.0748 23.7885 89.0748 23.9647 89.0748 24.141C89.0748 25.1982 89.4273 25.9912 90.1321 26.5198C89.6916 25.9912 89.3392 25.2863 89.3392 24.4053C89.3392 24.0529 89.3392 23.6123 89.4273 23.2599L89.6916 22.2026C89.6916 22.0264 89.7797 21.7621 89.7797 21.5859C89.7797 21.4097 89.8678 21.2335 89.8678 20.9692C89.9559 20.6167 90.044 20.2643 90.044 19.7357C90.044 18.7665 89.7797 17.7973 89.2511 17.0044C89.0748 16.8282 88.9867 16.652 88.8105 16.5639ZM79.0308 19.8238C79.1189 20 79.207 20.2643 79.3832 20.7929C79.4713 21.1454 79.5594 22.0264 79.5594 23.4361C79.5594 22.2026 79.5594 21.4097 79.3832 20.7929C79.2951 20.4405 79.207 20.0881 79.0308 19.8238ZM81.0572 22.3788L81.1453 22.2907C81.3215 21.5859 81.4978 20.881 81.8502 20.1762V18.8546C81.8502 18.0617 81.7621 17.3568 81.4096 16.7401C81.3215 16.4758 81.1453 16.2996 80.9691 16.2114C80.9691 16.2996 81.0572 16.2996 81.0572 16.3877C81.3215 16.9163 81.4978 17.6211 81.4978 18.5022C81.4978 19.0308 81.4097 19.5595 81.3215 20.1762V20.4405C81.2334 21.2335 81.1453 21.8502 81.0572 22.3788ZM78.5903 18.326C78.9427 18.5022 79.2951 18.7665 79.5594 19.0308C79.9119 19.3833 80.0881 20 80.2643 20.5286C80.3524 20.7048 80.3524 20.881 80.3524 21.0573C80.3524 20.7929 80.4405 20.6167 80.4405 20.3524V20.0881C80.5286 19.4714 80.6167 19.0308 80.6167 18.5903C80.6167 17.7973 80.5286 17.2687 80.3524 16.8282C80.2643 16.652 80.1762 16.5639 79.8237 16.5639C79.5594 16.5639 79.2951 16.652 79.207 16.8282C78.8546 17.0925 78.7665 17.2687 78.5903 17.6211C78.5022 17.8855 78.4141 18.0617 78.4141 18.2379L78.5903 18.326ZM78.0616 19.1189L78.2378 19.207C78.326 19.2951 78.5022 19.2951 78.5903 19.3833C78.5022 19.2951 78.3259 19.207 78.0616 19.1189L77.9735 19.0308L77.7092 18.7665C77.7092 18.8546 77.7973 18.8546 77.7973 18.9427C77.8854 18.9427 77.9735 19.0308 78.0616 19.1189Z" fill="black"/>
<path d="M150.837 30.2203C150.308 30.2203 149.868 30.0441 149.603 29.6917C149.251 29.3392 149.075 28.6344 148.987 27.5771C148.899 26.7842 148.899 25.9031 148.722 25.0221C148.546 24.141 148.458 23.1718 148.282 22.3789C148.106 21.5859 147.929 20.9692 147.665 20.4406C147.489 20.1762 147.401 20 147.225 19.9119C147.048 19.7357 146.872 19.6476 146.52 19.6476C146.167 19.6476 145.991 19.2952 145.991 18.7666C145.991 17.8855 146.167 17.0925 146.608 16.7401C147.048 16.2996 147.489 16.0353 147.929 16.0353C148.458 16.0353 148.899 16.2996 149.251 16.7401C149.603 17.1807 149.868 17.7974 150.044 18.5022C150.22 19.2071 150.396 20.0881 150.484 20.9692C150.573 21.8503 150.661 22.8194 150.661 23.7005C150.661 24.0529 150.661 24.4053 150.661 24.6696C150.661 24.934 150.661 25.2864 150.661 25.6388C150.661 25.9031 150.749 26.0793 150.749 26.1674C150.837 26.3436 151.013 26.4318 151.277 26.4318C151.718 26.4318 152.158 26.2555 152.687 25.9912C153.216 25.7269 153.656 25.2864 154.097 24.6696C154.537 24.0529 154.714 23.2599 154.714 22.2027C154.714 21.674 154.625 21.2335 154.537 20.8811C154.361 20.5287 154.185 20.1762 154.009 19.9119C153.921 19.8238 153.833 19.6476 153.833 19.5595C153.744 19.4714 153.744 19.2952 153.744 19.119C153.744 18.6784 153.921 18.326 154.185 18.0617C154.449 17.7974 154.802 17.6212 155.154 17.445C155.507 17.2688 155.771 17.2688 156.035 17.2688C156.299 17.2688 156.476 17.3569 156.564 17.5331C156.74 17.7093 156.828 17.9736 156.916 18.4141C157.004 18.6784 157.092 19.0309 157.092 19.3833C157.181 19.7357 157.181 20.1762 157.181 20.6168C157.181 21.3216 157.181 21.8503 157.092 22.3789C157.004 22.8194 157.004 23.1718 156.916 23.5243C156.828 23.8767 156.828 24.141 156.74 24.4053C156.652 24.6696 156.652 25.0221 156.652 25.3745C156.652 25.815 156.74 26.0793 156.828 26.1674C157.004 26.3436 157.181 26.4318 157.445 26.4318C158.502 26.4318 159.295 25.9912 160 25.1102C160.617 24.2291 160.969 23.0837 160.969 21.8503C160.969 21.4097 160.881 20.9692 160.793 20.6168C160.705 20.1762 160.44 19.8238 160.176 19.4714C160 19.2071 159.912 19.0309 159.824 18.9428C159.736 18.7666 159.647 18.5903 159.647 18.4141C159.647 17.9736 159.824 17.6212 160.088 17.2688C160.44 16.9163 160.705 16.652 161.145 16.4758C161.586 16.2115 161.938 16.1234 162.203 16.1234C162.731 16.1234 162.995 16.3877 163.172 17.0044C163.348 17.6212 163.436 18.2379 163.436 18.9428C163.436 20.1762 163.26 21.4097 162.995 22.7313C162.731 24.0529 162.291 25.2864 161.762 26.4318C161.233 27.5771 160.617 28.5463 159.824 29.2511C159.119 29.956 158.15 30.3084 157.269 30.3084C156.388 30.3084 155.595 29.956 155.242 29.2511C154.89 28.5463 154.714 27.6652 154.802 26.6961C154.273 27.7533 153.656 28.6344 152.863 29.2511C152.335 29.8679 151.63 30.2203 150.837 30.2203Z" fill="black"/>
<path d="M158.15 31.1894C156.828 31.1894 155.859 30.5727 155.33 29.6035C155.242 29.4273 155.154 29.2511 155.154 29.0749C154.89 29.3392 154.626 29.6035 154.361 29.7797C153.656 30.5727 152.687 31.0132 151.718 31.0132C150.925 31.0132 150.22 30.7489 149.78 30.2202C149.339 29.6916 149.075 28.8987 148.987 27.5771C148.987 27.3128 148.899 27.0484 148.899 26.696C148.899 26.1674 148.811 25.6387 148.722 25.1101C148.634 24.6696 148.546 24.2291 148.546 23.7885C148.458 23.348 148.458 22.9075 148.282 22.4669C148.106 21.674 147.929 21.1454 147.753 20.7929L147.665 20.7048C147.665 20.6167 147.577 20.6167 147.577 20.6167H147.489L147.401 20.5286C147.401 20.5286 147.401 20.5286 147.313 20.5286C146.608 20.5286 145.903 20 145.903 18.7665C145.903 17.8854 146.079 16.7401 146.784 16.1233C148.194 14.7136 149.692 14.978 150.749 16.2114C151.189 16.7401 151.454 17.4449 151.718 18.326C151.894 18.9427 152.07 19.9119 152.159 20.881C152.247 21.7621 152.335 22.7313 152.335 23.7004V25.5506C152.511 25.4625 152.775 25.3744 153.128 25.1982C153.48 25.022 153.833 24.6696 154.185 24.1409C154.537 23.7004 154.626 23.0837 154.626 22.2026C154.626 21.7621 154.537 21.4978 154.537 21.1454C154.361 20.881 154.273 20.6167 154.097 20.4405C154.009 20.2643 153.833 20.0881 153.833 19.9119C153.656 19.6476 153.656 19.2951 153.656 19.1189C153.656 18.5022 153.921 17.8854 154.361 17.4449C154.714 17.0925 155.154 16.8282 155.595 16.652C156.123 16.3876 156.564 16.3876 156.916 16.3876C157.445 16.3876 157.885 16.652 158.15 17.0044C158.414 17.3568 158.59 17.7973 158.678 18.1498C158.767 18.5022 158.855 18.8546 158.855 19.207C158.943 19.6476 158.943 20.0881 158.943 20.5286C158.943 21.2335 158.943 21.8502 158.855 22.4669C158.855 22.6432 158.767 22.8194 158.767 22.9956C158.767 23.2599 158.678 23.4361 158.678 23.7004C158.678 23.7885 158.59 23.9647 158.59 24.0528C158.59 24.2291 158.502 24.4934 158.502 24.6696C158.502 24.7577 158.502 25.1101 158.502 25.3744C158.502 25.4625 158.502 25.4625 158.502 25.5506C159.207 25.5506 159.736 25.1982 160.264 24.5815C160.793 23.8766 161.057 22.9075 161.057 21.8502C161.057 21.5859 160.969 21.2335 160.881 20.7929C160.793 20.5286 160.617 20.2643 160.441 20C160.352 19.8238 160.264 19.7357 160.264 19.6476C160.264 19.5595 160.176 19.5595 160.176 19.4713L160 19.2951C159.912 19.0308 159.736 18.7665 159.736 18.4141C159.736 17.6211 160.088 17.0925 160.352 16.7401L160.441 16.652C160.793 16.2995 161.145 15.9471 161.762 15.6828C162.291 15.4185 162.731 15.2423 163.172 15.2423C164.053 15.2423 164.67 15.7709 165.022 16.7401C165.198 17.4449 165.286 18.1498 165.286 18.9427C165.286 20.0881 165.11 21.3216 164.846 22.9075C164.581 24.2291 164.141 25.4625 163.524 26.7841C162.907 28.1057 162.203 29.163 161.41 29.8678C160.529 30.6608 159.295 31.1894 158.15 31.1894Z" fill="black"/>
<path d="M169.868 30.2203C168.987 30.2203 168.282 29.8679 167.753 29.2511C167.225 28.6344 167.048 27.6652 167.048 26.4317C167.048 25.5507 167.137 24.6696 167.401 23.7005C167.489 23.348 167.577 22.9075 167.665 22.5551C167.753 22.2027 167.753 21.7621 167.753 21.4097C167.753 20.4406 167.489 19.7357 167.048 19.4714C166.608 19.119 166.344 18.8547 166.344 18.5022C166.344 18.1498 166.52 17.7974 166.696 17.445C166.96 17.0925 167.225 16.7401 167.577 16.5639C167.93 16.2996 168.282 16.2115 168.634 16.2115C169.692 16.2115 170.22 17.2688 170.22 19.3833C170.22 20.0881 170.132 20.7049 170.044 21.3216C169.956 21.9384 169.868 22.467 169.78 22.9956C169.692 23.348 169.604 23.7005 169.604 24.0529C169.515 24.4053 169.515 24.7577 169.515 25.0221C169.515 26.1674 169.956 26.7842 170.837 26.7842C171.63 26.7842 172.423 26.2555 173.128 25.1102C173.833 24.0529 174.449 22.467 174.89 20.4406L174.802 19.8238C174.714 18.6784 174.978 17.7974 175.242 17.2688C175.595 16.652 176.123 16.3877 176.828 16.3877C177.445 16.3877 177.709 16.652 177.709 17.0925C177.709 17.2688 177.621 17.445 177.621 17.7093C177.533 17.9736 177.533 18.2379 177.445 18.5903C177.269 19.4714 177.093 20.3525 177.004 21.2335C176.828 22.2027 176.828 23.0837 176.828 23.7886C176.828 24.6696 176.916 25.4626 177.181 25.9912C177.445 26.608 177.797 26.9604 178.414 27.1366C178.59 27.2247 178.678 27.2247 178.855 27.3128C178.943 27.4009 179.031 27.6652 179.031 27.9295C179.031 28.4582 178.855 28.9868 178.502 29.5154C178.15 30.0441 177.621 30.3084 176.916 30.3084C175.595 30.3084 174.89 29.163 174.89 26.7842C174.89 26.3436 174.978 25.815 174.978 24.934L174.89 24.8458C173.833 28.3701 172.07 30.2203 169.868 30.2203Z" fill="black"/>
<path d="M177.797 31.1894C176.916 31.1894 175.507 30.837 175.066 28.5462C173.568 30.6607 171.894 31.1013 170.749 31.1013C169.604 31.1013 168.722 30.6607 167.93 29.8678C167.313 29.163 167.048 28.1057 167.048 26.4317C167.048 25.3744 167.137 24.4052 167.401 23.4361C167.401 23.2599 167.489 23.0837 167.489 22.9074C167.577 22.7312 167.577 22.4669 167.665 22.2907C167.753 22.0264 167.753 21.674 167.753 21.3215C167.753 20.5286 167.489 20.1762 167.489 20.1762L167.401 20.0881C166.96 19.7356 166.344 19.2951 166.344 18.4141C166.344 17.8854 166.608 17.3568 166.784 17.0044L166.872 16.8282C167.137 16.4757 167.489 16.0352 168.018 15.6828C168.458 15.3304 168.987 15.2422 169.515 15.2422C170.661 15.2422 171.982 15.9471 171.982 19.2951C171.982 20.0881 171.894 20.7048 171.806 21.3215C171.718 21.9383 171.63 22.4669 171.542 22.9074V23.0837C171.454 23.348 171.366 23.7004 171.366 23.9647V24.1409C171.278 24.4052 171.278 24.6696 171.278 24.9339C171.278 25.8149 171.542 25.8149 171.718 25.8149C172.247 25.8149 172.775 25.3744 173.216 24.5815C173.921 23.6123 174.449 22.1145 174.802 20.3524L174.714 19.9119C174.626 18.4141 174.978 17.3568 175.242 16.8282C175.771 15.9471 176.564 15.4185 177.621 15.4185C178.943 15.4185 179.383 16.2995 179.383 17.0044C179.383 17.1806 179.383 17.3568 179.295 17.4449C179.295 17.533 179.295 17.533 179.295 17.6211V17.7973L179.207 17.9735C179.207 18.0616 179.207 18.1497 179.119 18.2378C179.119 18.4141 179.031 18.5903 179.031 18.7665C178.855 19.6475 178.678 20.4405 178.59 21.3215C178.414 22.2907 178.414 23.0837 178.414 23.7885C178.414 24.8458 178.59 25.3744 178.678 25.6387C178.855 26.1674 179.031 26.2555 179.383 26.3436L179.559 26.4317H179.648C179.736 26.4317 179.824 26.5198 180 26.6079L180.088 26.696L180.176 26.7841C180.529 27.1365 180.617 27.6652 180.617 28.0176C180.617 28.7224 180.352 29.4273 179.912 30.1321C179.559 30.7489 178.767 31.1894 177.797 31.1894Z" fill="black"/>
<path d="M184.846 30.2203C183.965 30.2203 183.26 29.8679 182.731 29.2511C182.203 28.6344 182.026 27.6652 182.026 26.4317C182.026 25.5507 182.114 24.6696 182.379 23.7005C182.467 23.348 182.555 22.9075 182.643 22.5551C182.731 22.2027 182.731 21.7621 182.731 21.4097C182.731 20.4406 182.467 19.7357 182.026 19.4714C181.586 19.119 181.322 18.8547 181.322 18.5022C181.322 18.1498 181.498 17.7974 181.674 17.445C181.938 17.0925 182.203 16.7401 182.555 16.5639C182.907 16.2996 183.26 16.2115 183.612 16.2115C184.67 16.2115 185.198 17.2688 185.198 19.3833C185.198 20.0881 185.11 20.7049 185.022 21.3216C184.934 21.9384 184.846 22.467 184.758 22.9956C184.67 23.348 184.581 23.7005 184.581 24.0529C184.493 24.4053 184.493 24.7577 184.493 25.0221C184.493 26.1674 184.934 26.7842 185.815 26.7842C186.608 26.7842 187.401 26.2555 188.106 25.1102C188.811 24.0529 189.427 22.467 189.868 20.4406L189.78 19.8238C189.692 18.6784 189.956 17.7974 190.22 17.2688C190.573 16.652 191.101 16.3877 191.806 16.3877C192.423 16.3877 192.687 16.652 192.687 17.0925C192.687 17.2688 192.687 17.445 192.599 17.7093C192.511 17.9736 192.511 18.2379 192.423 18.5903C192.247 19.4714 192.07 20.3525 191.982 21.2335C191.806 22.2027 191.806 23.0837 191.806 23.7886C191.806 24.6696 191.894 25.4626 192.159 25.9912C192.423 26.608 192.775 26.9604 193.392 27.1366C193.568 27.2247 193.656 27.2247 193.833 27.3128C193.921 27.4009 194.009 27.6652 194.009 27.9295C194.009 28.4582 193.833 28.9868 193.48 29.5154C193.128 30.0441 192.599 30.3084 191.894 30.3084C190.573 30.3084 189.868 29.163 189.868 26.7842C189.868 26.3436 189.956 25.815 189.956 24.934L189.868 24.8458C188.634 28.3701 186.96 30.2203 184.846 30.2203Z" fill="black"/>
<path d="M192.775 31.1894C191.894 31.1894 190.485 30.7489 190.044 28.4581C188.899 30.2202 187.401 31.1013 185.727 31.1013C184.581 31.1013 183.7 30.6607 182.907 29.8678C182.291 29.163 182.026 28.1057 182.026 26.4317C182.026 25.3744 182.114 24.4052 182.379 23.4361C182.379 23.2599 182.467 23.0837 182.467 22.9074C182.555 22.7312 182.555 22.4669 182.643 22.2907C182.731 22.0264 182.731 21.674 182.731 21.3215C182.731 20.5286 182.467 20.1762 182.467 20.1762L182.379 20.0881C181.938 19.7356 181.322 19.2951 181.322 18.4141C181.322 17.8854 181.586 17.3568 181.762 17.0044L181.85 16.8282C182.114 16.4757 182.467 16.0352 182.996 15.6828C183.436 15.3304 183.965 15.2422 184.493 15.2422C185.639 15.2422 186.96 15.9471 186.96 19.2951C186.96 20.0881 186.872 20.7048 186.784 21.3215C186.696 21.9383 186.608 22.4669 186.52 22.9074V23.0837C186.432 23.348 186.344 23.7004 186.344 23.9647V24.1409C186.255 24.4052 186.255 24.6696 186.255 24.9339C186.255 25.8149 186.52 25.8149 186.696 25.8149C187.225 25.8149 187.753 25.3744 188.194 24.5815C188.899 23.6123 189.427 22.1145 189.78 20.3524L189.692 19.9119C189.603 18.4141 189.956 17.3568 190.22 16.8282C190.749 15.9471 191.542 15.4185 192.599 15.4185C193.921 15.4185 194.361 16.2995 194.361 17.0044C194.361 17.1806 194.361 17.533 194.185 17.8854C194.185 17.9735 194.185 18.0616 194.097 18.1497C194.097 18.3259 194.009 18.5022 194.009 18.6784C193.833 19.5594 193.656 20.3524 193.568 21.2334C193.392 22.2026 193.392 22.9956 193.392 23.7004C193.392 24.7577 193.568 25.2863 193.656 25.5506C193.833 26.0793 194.009 26.1674 194.361 26.2555L194.537 26.3436H194.625C194.714 26.3436 194.802 26.4317 194.978 26.5198L195.066 26.6079L195.154 26.696C195.507 27.0484 195.595 27.577 195.595 27.9295C195.595 28.6343 195.33 29.3392 194.89 30.044C194.537 30.7489 193.744 31.1894 192.775 31.1894Z" fill="black"/>
<path d="M198.062 39.1189C197.533 39.1189 197.092 38.9427 196.828 38.5902C196.476 38.2378 196.388 37.533 196.388 36.5638C196.388 35.859 196.476 35.066 196.564 34.0969C196.74 33.1277 196.828 32.0704 197.004 30.9251C197.181 30.044 197.269 29.0748 197.357 28.1938C197.533 27.2246 197.621 26.2554 197.709 25.3744C197.797 24.4052 197.885 23.6123 197.885 22.8193C197.885 21.9383 197.797 21.2334 197.621 20.6167C197.445 19.9999 197.181 19.5594 196.652 19.3832C196.476 19.2951 196.3 19.207 196.123 19.0308C195.947 18.8546 195.859 18.7665 195.859 18.5021C195.859 18.1497 195.947 17.7973 196.211 17.4449C196.388 17.0925 196.74 16.74 197.092 16.4757C197.445 16.2114 197.885 16.0352 198.326 16.0352C198.943 16.0352 199.383 16.2995 199.559 16.8281C199.824 17.3568 199.912 18.0616 199.912 18.9427C199.912 19.207 199.912 19.4713 199.824 19.7356C199.824 19.9999 199.736 20.2643 199.736 20.5286C200.264 19.2951 200.969 18.1497 201.85 17.2687C202.731 16.3876 203.7 15.9471 204.758 15.9471C205.815 15.9471 206.696 16.3876 207.313 17.2687C207.929 18.1497 208.282 19.4713 208.282 20.9691C208.282 22.1145 208.106 23.2599 207.841 24.4052C207.577 25.4625 207.137 26.5198 206.608 27.4008C206.079 28.2819 205.463 28.9867 204.758 29.5154C204.053 30.044 203.172 30.3083 202.291 30.3083C201.674 30.3083 201.057 30.1321 200.529 29.8678C200 29.6035 199.648 29.251 199.295 28.8105C199.207 29.4273 199.119 30.1321 199.119 30.9251C199.031 31.718 199.031 32.5991 199.031 33.3039C199.031 34.0969 199.119 34.8017 199.295 35.2422C199.471 35.7709 199.736 36.0352 200.176 36.2995C200.352 36.3876 200.529 36.5638 200.529 36.8281C200.529 37.0043 200.441 37.2687 200.264 37.7092C200.088 38.0616 199.912 38.414 199.559 38.7665C199.119 39.0308 198.59 39.1189 198.062 39.1189ZM202.819 26.5198C203.877 26.5198 204.67 26.0792 205.198 25.2863C205.815 24.4933 206.079 23.5242 206.079 22.4669C206.079 21.5858 205.903 20.7929 205.463 20.2643C205.022 19.7356 204.493 19.4713 203.877 19.4713C203.172 19.4713 202.643 19.7356 202.026 20.2643C201.498 20.7929 201.057 21.4096 200.705 22.2907C200.264 23.0836 200 23.9647 199.824 24.9339C200.705 25.9911 201.674 26.5198 202.819 26.5198Z" fill="black"/>
<path d="M198.943 40C198.15 40 197.445 39.7357 197.004 39.207C196.476 38.5903 196.388 37.7092 196.388 36.5639C196.388 35.9471 196.476 35.2423 196.564 34.5374V34.0969C196.652 33.4802 196.74 32.9515 196.828 32.3348C196.916 31.8943 196.916 31.3656 197.004 30.837C197.181 30.044 197.269 29.163 197.357 28.37V28.1938C197.533 27.3128 197.621 26.4317 197.709 25.6388L197.797 24.9339C197.885 24.141 197.885 23.5242 197.885 22.9075C197.885 22.1145 197.797 21.4978 197.621 20.9691C197.445 20.4405 197.269 20.3524 197.181 20.3524L197.092 20.2643C196.916 20.1762 196.652 20 196.3 19.7357C196.035 19.4714 195.771 19.207 195.771 18.5903C195.771 18.0617 195.947 17.533 196.211 17.0925C196.476 16.5639 197.004 16.1233 197.357 15.859C197.885 15.4185 198.502 15.2423 199.119 15.2423C200.088 15.2423 200.881 15.7709 201.145 16.5639C201.233 16.8282 201.322 17.0925 201.41 17.3568C201.586 17.0925 201.762 16.9163 202.026 16.7401C203.084 15.6828 204.229 15.1542 205.551 15.1542C206.872 15.1542 208.018 15.7709 208.811 16.8282C209.515 17.8855 209.956 19.3832 209.956 21.0573C209.956 22.1145 209.78 23.348 209.515 24.6696C209.251 25.815 208.722 26.9603 208.194 27.9295C207.577 28.8987 206.872 29.6916 206.079 30.3084C204.67 31.3656 202.731 31.6299 200.969 30.7489L200.881 30.6608C200.881 30.7489 200.881 30.9251 200.881 31.0132V31.1013C200.793 31.8062 200.793 32.6872 200.793 33.3921C200.793 34.0969 200.881 34.7136 200.969 34.978C201.057 35.3304 201.145 35.4185 201.498 35.5947C201.938 35.859 202.291 36.2995 202.291 36.9163C202.291 37.2687 202.203 37.6211 201.938 38.1498C201.674 38.5903 201.498 39.0308 201.057 39.4713L200.881 39.6476C200.352 39.8238 199.736 40 198.943 40ZM197.885 18.5903C198.943 18.9427 199.295 20 199.383 20.3524C199.559 21.0573 199.648 21.8502 199.648 22.8194C199.648 23.5242 199.559 24.2291 199.471 25.022L199.383 25.7269C199.295 26.5198 199.207 27.489 199.031 28.37V28.4581C198.943 29.2511 198.855 30.2202 198.678 31.1013C198.59 31.5418 198.59 31.9824 198.502 32.511C198.414 33.1277 198.326 33.7445 198.238 34.2731V34.7136C198.15 35.4185 198.15 36.0352 198.15 36.652C198.15 37.7973 198.326 37.9736 198.326 38.0617L198.414 38.1498C198.502 38.326 198.855 38.326 198.943 38.326C199.295 38.326 199.648 38.2379 199.912 38.1498C200.088 37.8854 200.264 37.7092 200.352 37.4449C200.44 37.2687 200.44 37.1806 200.44 37.0925C200 36.8282 199.559 36.3876 199.295 35.5947C199.031 34.978 198.943 34.0088 198.943 33.3921C198.943 32.6872 198.943 31.8062 199.031 30.9251C199.031 30.1321 199.119 29.4273 199.207 28.7225L199.471 26.696L200.705 28.2819C200.969 28.6343 201.233 28.8987 201.674 29.0749C202.819 29.6916 204.141 29.4273 205.022 28.8106C205.639 28.37 206.167 27.7533 206.608 26.9603C207.137 26.1674 207.489 25.1982 207.753 24.2291C208.018 22.9956 208.194 21.9383 208.194 20.9691C208.194 19.6476 207.929 18.5022 207.401 17.7973C206.96 17.1806 206.344 16.8282 205.551 16.8282C204.758 16.8282 203.965 17.1806 203.26 17.8855C202.643 18.5022 202.026 19.3832 201.586 20.3524C201.762 20.0881 201.938 19.9119 202.203 19.6476C202.819 19.1189 203.612 18.5903 204.67 18.5903C205.551 18.5903 206.344 18.9427 206.96 19.7357C207.489 20.3524 207.753 21.3216 207.753 22.4669C207.753 23.7885 207.401 24.9339 206.696 25.815C205.991 26.7841 204.934 27.4009 203.612 27.4009C202.203 27.4009 200.969 26.7841 199.912 25.4625L199.648 25.1101L199.736 24.6696C199.736 24.5815 199.736 24.4053 199.824 24.3172L199.648 24.7577V20.4405C199.648 20.2643 199.648 20.0881 199.736 19.9119C199.736 19.8238 199.736 19.7357 199.736 19.6476V19.4714L199.824 19.2951C199.824 19.207 199.824 19.0308 199.824 18.7665C199.824 17.9736 199.736 17.3568 199.559 17.0044L199.471 16.9163C199.471 16.8282 199.383 16.7401 199.031 16.7401C198.766 16.7401 198.59 16.8282 198.326 17.0044C198.062 17.1806 197.797 17.4449 197.709 17.6211L197.621 17.7973C197.533 17.9736 197.445 18.0617 197.445 18.2379C197.709 18.5022 197.797 18.5022 197.885 18.5903ZM201.674 24.6696C202.291 25.2863 202.996 25.6388 203.7 25.6388C204.405 25.6388 204.934 25.3744 205.374 24.7577C205.903 24.141 206.079 23.348 206.079 22.4669C206.079 21.7621 205.903 21.1454 205.639 20.7929C205.374 20.4405 205.11 20.3524 204.758 20.3524C204.405 20.3524 204.053 20.4405 203.436 20.9691C202.996 21.4097 202.643 21.9383 202.379 22.6432L202.291 22.7313C202.026 23.2599 201.85 23.8766 201.674 24.6696Z" fill="black"/>
<path fill-rule="evenodd" clip-rule="evenodd" d="M17.1806 0C22.7313 0 27.1366 1.32159 30.3965 3.96476C33.7445 6.60793 35.4185 10.3965 35.3304 15.1542C35.3304 17.8855 34.8018 20.4405 33.7445 22.8194C32.2467 26.3436 29.7797 28.5462 29.0749 29.163C25.022 32.7753 19.9119 33.2159 15.4185 33.2159H14.4493C14.3612 33.2159 7.40088 33.1277 2.73128 29.6035C0.528634 28.0176 0.264317 26.5198 0.352423 25.7269C0.352423 24.8458 0.792951 24.3172 1.23348 23.7885L1.32159 23.6123L1.5859 23.348C1.5859 23.2599 1.67401 23.1718 1.76211 23.0837C1.85022 22.9075 2.02643 22.2907 2.46696 18.8546C2.73128 16.7401 2.90749 14.7137 2.90749 12.8634C2.90749 12.5991 2.90749 12.3348 2.90749 12.0705C2.90749 11.8062 2.81938 11.4537 2.81938 11.1013V10.9251C2.81938 10.837 2.81938 10.7489 2.81938 10.6608C2.81938 10.5727 2.73128 10.4846 2.73128 10.3965C1.5859 10.5727 0.704846 10.1322 0.264317 9.16299C0.0881057 8.72246 0 8.19383 0 7.6652C0 6.43172 0.352423 5.37445 1.14537 4.40529C2.02643 3.52423 3.0837 2.90749 4.5815 2.29075C5.90308 1.67401 7.84141 1.14537 10.1322 0.704846C12.4229 0.264317 14.8018 0 17.1806 0ZM17.6211 7.48898C19.7357 7.48898 21.5859 7.7533 23.1718 8.37004C24.8458 8.89868 26.2555 9.86784 27.4009 11.3656C28.5462 12.6872 29.0749 14.4493 29.0749 16.3877C29.0749 18.1498 28.6344 19.6476 27.7533 20.9692C26.8722 22.2026 25.7269 23.1718 24.3172 23.9648C22.9075 24.6696 21.3216 25.2863 19.8238 25.6388C18.0617 25.9912 16.4758 26.1674 14.8899 26.1674C13.304 26.1674 12.0705 25.9031 11.1894 25.3744C10.3965 24.8458 9.42731 23.8766 9.42731 21.7621C9.42731 20.6167 9.51542 19.5595 9.60352 18.6784C9.69163 18.326 9.69163 17.9736 9.77973 17.6211C9.86784 16.9163 9.95595 16.2114 10.1322 15.5066C10.3084 14.5374 10.4846 13.5683 10.6608 12.511C10.7489 11.8943 10.7489 11.1013 10.837 10.3965C10.837 10.0441 10.9251 9.69163 10.9251 9.3392C10.9251 8.72246 11.3656 8.19383 11.9824 8.01762C12.4229 7.92951 13.304 7.7533 14.4493 7.6652C15.4185 7.57709 16.4758 7.48898 17.6211 7.48898Z" fill="black"/>
<path d="M103.436 24.7577C103.084 24.7577 102.203 25.9912 102.026 26.1674C101.322 26.7842 101.322 26.7842 101.057 26.8723C100.793 26.9604 99.9119 27.0485 99.2952 27.0485C98.5022 27.0485 97.7974 26.608 97.3569 26.0793C97.0926 25.7269 96.7401 24.4934 97.0045 24.2291C97.3569 23.9648 98.4141 24.6696 99.2952 24.6696C100.352 24.6696 101.322 24.4934 102.203 23.9648C103.172 23.4361 103.612 22.6432 104.141 21.9383C104.582 21.1454 104.934 20.1762 104.934 19.2071C104.934 18.1498 104.846 16.9163 103.965 16.1234C103.172 15.3304 102.115 14.8899 100.793 14.8899C99.4714 14.8899 98.1498 15.2423 97.0045 16.2115C95.9472 17.0925 95.0661 18.326 94.4494 19.7357C93.7445 21.1454 93.4802 22.7313 93.4802 24.4934C93.4802 26.4317 93.9208 28.0176 94.8018 29.0749C95.771 30.3084 97.0926 30.837 98.7666 30.837C100.705 30.837 102.467 30.0441 103.612 28.3701C104.317 27.5771 104.67 26.9604 104.67 26.1674C104.67 25.815 104.582 25.5507 104.405 25.2864C104.053 24.9339 103.789 24.7577 103.436 24.7577ZM98.2379 19.4714C98.8547 18.9428 99.5595 18.7665 100.176 18.7665C100.617 18.7665 101.145 18.8546 101.498 19.2071C101.674 19.3833 101.938 19.7357 101.938 20.0881C101.938 20.6168 101.762 20.9692 101.322 21.3216C100.705 21.7621 100.176 21.9383 99.3833 21.9383C98.9428 21.9383 98.4141 21.9383 98.0617 21.8502C97.7093 21.7621 97.445 21.674 97.0926 21.5859C97.2688 20.5287 97.6212 19.9119 98.2379 19.4714Z" fill="black" stroke="black" stroke-width="0.5"/>
</svg>
