<svg width="239" height="46" viewBox="0 0 239 46" fill="none" xmlns="http://www.w3.org/2000/svg">
<path d="M162.9 27.5C161.3 26.2 160 26 158.8 26.6C158.5 26.7 158 26.9 157.6 27.2C156.9 27.5 155.8 27.9 154.3 28.3C152.8 28.7 150.4 28.9 147.1 28.9C145.3 28.9 143.8 28.9 142.6 28.8C142 28.8 141.4 28.7 140.9 28.7C142.3 27.7 143.8 26.5 145.5 25.3C147.8 23.6 150 22 152.2 20.4C154.1 19 156 17.6 157.8 16.2C159.7 14.7 161.3 13.2 162.5 11.7C163.9 10 164.6 8.30001 164.6 6.60001C164.6 4.90001 163.9 3.50001 162.5 2.60001C161.4 1.80001 159.9 1.30001 158.1 0.900012C156.4 0.600012 154.6 0.400012 152.7 0.300012C148.8 0.200012 145.3 0.100012 141.5 0.400012C139.6 0.500012 137.8 0.700012 136.1 1.00001C134.3 1.30001 132.9 1.80001 131.8 2.50001C130 3.60001 129.7 5.10001 129.7 6.10001C129.7 7.40001 130.2 8.60001 131.3 9.70001C132.3 10.7 133.3 11.2 134.3 11.2C135.3 11.2 135.8 10.8 136.1 10.5C136.1 10.5 136.2 10.4 136.5 10.3C137.1 10 138 9.70001 139 9.50001C140.2 9.30001 141.4 9.10001 142.7 9.00001C146 8.70001 148.8 8.80001 150.9 9.00001C152.3 9.10001 153 9.20001 153.4 9.30001C152.7 10 151.8 10.9 150.5 12C149.1 13.2 147.5 14.5 145.8 15.9C144.1 17.3 142.3 18.7 140.5 20.1C138.7 21.5 137 22.8 135.5 23.9C134 25 132.8 26 131.8 26.6C130.7 27.5 129.8 28.2 129.2 28.9C128.4 29.8 128 30.8 128 32C128 33.5 128.7 34.8 130 35.6C131.1 36.3 132.4 36.8 134.1 37.1C135.7 37.4 137.4 37.6 139.3 37.7C141.2 37.8 143.1 37.8 144.9 37.8C146.9 37.8 149 37.7 151.2 37.6C153.3 37.5 155.4 37.2 157.2 36.9C159.1 36.5 160.8 35.9 162 35.2C163.9 34 164.3 32.4 164.3 31.2C164.5 29.6 164 28.4 162.9 27.5Z" fill="black"/>
<path d="M45.1 34.3C43.9 34.3 42.9 33.8 42.1 32.9C41.3 31.9 41 30.5 41 28.7C41 27.4 41.2 26.1 41.6 24.8C42 23.5 42.6 22.4 43.4 21.3C44.2 20.3 45 19.4 46.1 18.8C47.2 18.2 48.4 17.9 49.7 17.9C50.9 17.9 52 18.2 52.8 18.7C53.7 19.2 54.1 19.9 54.1 20.9C54.1 21.1 54.1 21.4 54 21.8C53.9 22.2 53.9 22.5 53.8 22.7C53.7 22.9 53.6 23.1 53.5 23.3C53.4 23.5 53.2 23.6 53 23.6C52.9 23.6 52.7 23.5 52.5 23.5C52.4 24 52.3 24.6 52.3 25.1C52.2 25.6 52.2 26.1 52.2 26.6C52.2 27.6 52.3 28.5 52.6 29.2C52.9 30 53.3 30.4 54 30.6C54.2 30.7 54.3 30.7 54.5 30.8C54.6 30.9 54.7 31.1 54.7 31.5C54.7 31.8 54.6 32.1 54.5 32.6C54.4 33.1 54.2 33.4 53.8 33.8C53.5 34.2 53 34.3 52.4 34.3C51.6 34.3 51 33.9 50.5 33.2C50.1 32.5 49.8 31.4 49.8 30.1C49.2 31.4 48.6 32.4 47.7 33.2C47.2 33.9 46.2 34.3 45.1 34.3ZM46.2 30.3C47 30.3 47.6 30 48.3 29.3C48.9 28.7 49.4 27.9 49.7 26.9C49.9 26.3 50.1 25.6 50.2 24.9C50.3 24.2 50.4 23.5 50.5 22.7C50.2 22.5 49.8 22.3 49.4 22.2C48.9 22.1 48.5 22 48 22C46.8 22 45.8 22.5 45.1 23.4C44.3 24.3 44 25.5 44 26.9C44 27.9 44.2 28.8 44.6 29.4C45 29.9 45.5 30.3 46.2 30.3Z" fill="black"/>
<path d="M52.4 34.8C51.5 34.8 50.7 34.4 50.1 33.5C49.8 33 49.6 32.4 49.5 31.8C49.1 32.5 48.6 33.1 48.1 33.5C47.5 34.3 46.4 34.8 45.1 34.8C43.8 34.8 42.7 34.3 41.7 33.2C40.9 32.1 40.5 30.7 40.5 28.7C40.5 27.4 40.7 26 41.1 24.7C41.5 23.4 42.1 22.3 43 21.1C43.8 20.1 44.6 19.1 45.9 18.5C47.1 17.9 48.4 17.5 49.7 17.5C51 17.5 52.2 17.8 53.1 18.4C54.1 19 54.6 19.8 54.6 21C54.6 21.2 54.6 21.6 54.5 22C54.5 22.2 54.4 22.3 54.4 22.4C54.4 22.6 54.3 22.8 54.2 23L53.9 23.6C53.7 24 53.3 24.2 52.9 24.2C52.8 24.6 52.8 24.9 52.8 25.2C52.7 25.7 52.7 26.2 52.7 26.7C52.7 27.8 52.8 28.5 53.1 29.1C53.4 29.8 53.6 30.1 54.2 30.2C54.4 30.3 54.4 30.3 54.5 30.3C54.6 30.3 54.7 30.4 54.8 30.4L54.9 30.5C55.1 30.7 55.2 31.1 55.2 31.6C55.2 31.9 55.1 32.1 55.1 32.4C55.1 32.5 55 32.7 55 32.8C54.9 33.4 54.6 33.8 54.2 34.3C53.7 34.7 53 34.8 52.4 34.8ZM50.3 27.8V30.1C50.3 31.2 50.5 32.3 50.9 33C51.3 33.6 51.8 33.8 52.4 33.8C52.9 33.8 53.2 33.7 53.4 33.5C53.8 33.1 53.9 32.9 54 32.5C54 32.3 54.1 32.2 54.1 32.1C54.2 31.9 54.2 31.7 54.2 31.5C54.2 31.3 54.2 31.2 54.2 31.2C54.2 31.2 54.2 31.2 54.1 31.2C54 31.2 53.9 31.1 53.8 31.1C53 30.9 52.5 30.4 52.2 29.4C51.9 28.7 51.8 27.8 51.8 26.6C51.8 26.1 51.8 25.6 51.9 25C51.9 24.7 52 24.1 52.1 23.4L52.2 23H52.6C52.8 23 53 23 53.1 23.1L53.5 22.5C53.5 22.5 53.5 22.3 53.6 22.2C53.6 22.1 53.7 21.9 53.7 21.7C53.8 21.4 53.8 21.1 53.8 20.9C53.8 20.1 53.5 19.5 52.8 19.1C52 18.6 51 18.4 49.9 18.4C48.7 18.4 47.6 18.7 46.5 19.2C45.4 19.8 44.7 20.7 44 21.6C43.2 22.7 42.6 23.8 42.3 24.9C41.9 26.1 41.7 27.4 41.7 28.7C41.7 30.5 42 31.7 42.7 32.6C43.4 33.4 44.3 33.8 45.3 33.8C46.3 33.8 47.1 33.5 47.5 32.9L47.6 32.8C48.4 32.1 48.9 31.3 49.6 29.9L50.3 27.8ZM46.2 30.8C45.4 30.8 44.8 30.4 44.2 29.7C43.7 29 43.5 28 43.5 26.9C43.5 25.2 43.9 24 44.7 23.1C45.5 22.1 46.6 21.5 48 21.5C48.5 21.5 48.9 21.6 49.3 21.7H49.5C50.1 21.8 50.6 22.1 50.8 22.3L51.1 22.5V22.8C51 23.6 50.9 24.3 50.8 24.9C50.7 25.6 50.5 26.3 50.3 27.1C50 28.1 49.5 29 48.8 29.7C47.9 30.5 47.1 30.8 46.2 30.8ZM48 22.5C47 22.5 46.1 22.9 45.5 23.7C44.8 24.5 44.5 25.5 44.5 26.9C44.5 27.8 44.7 28.6 45 29.1C45.4 29.6 45.7 29.8 46.2 29.8C46.9 29.8 47.3 29.6 47.9 28.9C48.5 28.3 48.9 27.6 49.2 26.7C49.4 26 49.6 25.3 49.7 24.8C49.8 24.2 49.9 23.6 50 22.9C49.8 22.8 49.5 22.7 49.3 22.6H49.1C48.7 22.6 48.4 22.5 48 22.5Z" fill="black"/>
<path d="M45.1 34.8C43.7 34.8 42.6 34.2 41.7 33.2C40.9 32.2 40.5 30.6 40.5 28.7C40.5 27.4 40.7 26 41.1 24.7C41.5 23.4 42.1 22.2 42.9 21.1C43.7 20 44.7 19.1 45.8 18.5C46.9 17.9 48.2 17.5 49.7 17.5C51 17.5 52.2 17.8 53.1 18.4C54.1 19 54.6 19.9 54.6 21C54.6 21.3 54.6 21.6 54.5 22C54.4 22.4 54.4 22.7 54.3 23C54.2 23.3 54.1 23.5 54 23.7C53.8 24 53.5 24.2 53.1 24.2C53 24.4 53 24.7 53 25C52.9 25.5 52.9 26 52.9 26.5C52.9 27.4 53 28.3 53.2 29C53.4 29.6 53.7 29.9 54.2 30.1C54.5 30.2 54.7 30.3 54.9 30.5C55.2 30.8 55.3 31.2 55.3 31.5C55.3 31.8 55.2 32.2 55.1 32.7C54.9 33.2 54.7 33.7 54.3 34.1C53.9 34.6 53.3 34.8 52.5 34.8C51.5 34.8 50.7 34.3 50.2 33.5C49.9 33 49.7 32.5 49.6 31.9C49.2 32.5 48.7 33.1 48.2 33.6C47.5 34.3 46.3 34.8 45.1 34.8ZM49.6 18.5C48.4 18.5 47.2 18.8 46.2 19.4C45.2 20 44.3 20.7 43.6 21.7C42.9 22.7 42.3 23.8 42 25C41.6 26.2 41.4 27.5 41.4 28.7C41.4 30.4 41.8 31.7 42.4 32.6C43.1 33.4 43.9 33.8 45 33.8C46 33.8 46.9 33.4 47.6 32.7C48.4 31.9 49 30.9 49.6 29.8L50.6 27.5V30C50.6 31.3 50.8 32.2 51.2 32.9C51.6 33.5 52 33.7 52.6 33.7C53.1 33.7 53.4 33.6 53.6 33.3C53.9 33 54 32.7 54.1 32.3C54.2 31.9 54.3 31.6 54.3 31.3C54.3 31.1 54.3 31 54.2 31C54.2 31 54.2 31 54.1 31C53.2 30.8 52.7 30.2 52.3 29.2C52 28.4 51.9 27.4 51.9 26.4C51.9 25.9 51.9 25.3 52 24.8C52.1 24.3 52.1 23.7 52.2 23.2L52.3 22.6L52.9 22.8C53.1 22.9 53.2 22.9 53.2 22.9C53.3 22.7 53.4 22.6 53.4 22.4C53.5 22.2 53.5 21.9 53.6 21.6C53.7 21.2 53.7 21 53.7 20.7C53.7 20 53.3 19.4 52.6 19C51.8 18.7 50.8 18.5 49.6 18.5ZM46.2 30.8C45.3 30.8 44.6 30.4 44 29.6C43.5 28.9 43.3 28 43.3 26.8C43.3 25.3 43.7 24 44.6 23C45.5 22 46.6 21.4 48 21.4C48.5 21.4 49 21.5 49.5 21.6C50 21.8 50.4 21.9 50.8 22.2L51.1 22.4V22.7C51 23.4 51 24.2 50.8 24.9C50.7 25.7 50.5 26.4 50.3 27C49.9 28 49.4 28.9 48.8 29.6C48 30.4 47.2 30.8 46.2 30.8ZM47.9 22.5C46.9 22.5 46 22.9 45.4 23.7C44.7 24.5 44.4 25.6 44.4 26.8C44.4 27.7 44.6 28.4 45 29C45.3 29.5 45.8 29.7 46.3 29.7C46.9 29.7 47.5 29.4 48 28.9C48.6 28.3 49 27.6 49.3 26.6C49.5 26 49.7 25.4 49.8 24.6C49.9 24 50 23.4 50 22.8C49.8 22.7 49.5 22.6 49.2 22.5C48.8 22.5 48.4 22.5 47.9 22.5Z" fill="black"/>
<path d="M58.7 44.4C58.1 44.4 57.5999 44.2 57.2999 43.8C56.8999 43.4 56.7999 42.6 56.7999 41.5C56.7999 40.7 56.9 39.8 57 38.7C57.2 37.6 57.3 36.4 57.5 35.1C57.7 34.1 57.8 33 57.9 32C58.1 30.9 58.1999 29.8 58.2999 28.8C58.3999 27.7 58.5 26.8 58.5 25.9C58.5 24.9 58.4 24.1 58.2 23.4C58 22.7 57.6999 22.2 57.0999 22C56.8999 21.9 56.7 21.8 56.5 21.6C56.3 21.5 56.2 21.3 56.2 21C56.2 20.6 56.2999 20.2 56.5999 19.8C56.7999 19.4 57.1999 19 57.5999 18.7C57.9999 18.4 58.5 18.2 59 18.2C59.7 18.2 60.3999 18.5 60.5999 19.1C60.8999 19.7 61 20.5 61 21.5C61 21.8 61 22.1 60.9 22.4C60.9 22.7 60.7999 23 60.7999 23.3C61.3999 21.9 62.2 20.6 63.2 19.6C64.2 18.6 65.3 18.1 66.5 18.1C67.7 18.1 68.7 18.6 69.4 19.6C70.1 20.6 70.5 22.1 70.5 23.8C70.5 25.1 70.3 26.4 70 27.7C69.7 28.9 69.1999 30.1 68.5999 31.1C67.9999 32.1 67.3 32.9 66.5 33.5C65.7 34.1 64.7 34.4 63.7 34.4C63 34.4 62.3 34.2 61.7 33.9C61.1 33.6 60.6999 33.2 60.2999 32.7C60.1999 33.4 60.0999 34.2 60.0999 35.1C60.0999 36 60 37 60 37.8C60 38.7 60.0999 39.5 60.2999 40C60.4999 40.6 60.7999 40.9 61.2999 41.2C61.4999 41.3 61.7 41.5 61.7 41.8C61.7 42 61.6 42.3 61.4 42.8C61.2 43.2 60.9999 43.6 60.5999 44C60.1999 44.3 59.4 44.4 58.7 44.4ZM64.4 30.1C65.6 30.1 66.4999 29.6 67.0999 28.7C67.6999 27.8 68.0999 26.7 68.0999 25.5C68.0999 24.5 67.9 23.6 67.4 23C66.9 22.4 66.2999 22.1 65.5999 22.1C64.7999 22.1 64.2 22.4 63.5 23C62.9 23.6 62.4 24.3 62 25.3C61.6 26.2 61.2 27.2 61 28.3C62 29.5 63.1 30.1 64.4 30.1Z" fill="black"/>
<path d="M58.7 44.9C57.9 44.9 57.2999 44.6 56.7999 44.1C56.3999 43.6 56.2 42.7 56.2 41.5C56.2 40.7 56.3 39.7 56.4 38.6C56.6 37.5 56.7 36.2 56.9 35C57.1 34 57.1999 32.9 57.2999 31.9C57.4999 30.8 57.6 29.7 57.7 28.7C57.8 27.7 57.9 26.7 57.9 25.9C57.9 25 57.7999 24.1 57.5999 23.5C57.3999 22.9 57.2 22.6 56.9 22.5C56.6 22.3 56.4 22.2 56.2 22.1C56 21.9 55.7 21.6 55.7 21.1C55.7 20.6 55.8999 20.2 56.0999 19.7C56.3999 19.2 56.7 18.8 57.2 18.4C57.7 18 58.3 17.8 59 17.8C60 17.8 60.7999 18.3 61.0999 19C61.3999 19.6 61.5 20.2 61.5 21.1C61.9 20.5 62.3999 19.9 62.7999 19.4C63.8999 18.3 65.1 17.8 66.5 17.8C67.9 17.8 69 18.4 69.9 19.6C70.7 20.7 71 22.2 71 24.1C71 25.4 70.8 26.8 70.5 28.1C70.1 29.4 69.6999 30.6 69.0999 31.6C68.4999 32.7 67.7 33.5 66.8 34.2C65.9 34.9 64.8 35.2 63.7 35.2C62.9 35.2 62.2 35 61.5 34.6C61.2 34.4 60.9 34.2 60.7 34C60.6 34.4 60.5999 34.9 60.5999 35.3C60.4999 36.2 60.5 37.1 60.5 37.9C60.5 38.8 60.5999 39.5 60.7999 40C60.9999 40.4 61.1999 40.7 61.5999 40.9C61.9999 41.1 62.2 41.5 62.2 42C62.2 42.3 62.1 42.6 61.9 43.1C61.7 43.6 61.4 44.1 61 44.5C60.4 44.7 59.6 44.9 58.7 44.9ZM58.9 18.6C58.5 18.6 58.0999 18.7 57.7999 19C57.3999 19.3 57.2 19.6 57 20C56.8 20.4 56.7 20.7 56.7 21C56.7 21.1 56.6999 21.2 56.7999 21.2C56.9999 21.3 57.0999 21.4 57.2999 21.5C57.9999 21.8 58.3999 22.3 58.5999 23.3C58.7999 24.1 58.9 24.9 58.9 26C58.9 26.9 58.8 27.9 58.7 28.9C58.6 30 58.4999 31.1 58.2999 32.2C58.0999 33.3 58 34.4 57.9 35.4C57.7 36.6 57.5 37.9 57.4 39C57.2 40.1 57.2 41 57.2 41.8C57.2 43 57.3999 43.6 57.5999 43.8C57.8999 44.1 58.1999 44.3 58.5999 44.3C59.1999 44.3 59.8 44.1 60 43.9C60.3 43.6 60.6 43.3 60.7 42.9C60.9 42.4 60.9 42.2 60.9 42.1C60.9 42 60.7999 41.9 60.7999 41.9C60.1999 41.5 59.8 41 59.5 40.4C59.3 39.8 59.2 39 59.2 38C59.2 37.2 59.2999 36.2 59.2999 35.3C59.3999 34.3 59.4999 33.5 59.5999 32.8L59.7999 31.6L60.5999 32.6C60.9999 33.1 61.4 33.4 61.9 33.7C62.4 34 62.8999 34.1 63.5999 34.1C64.4999 34.1 65.3999 33.8 66.0999 33.3C66.8999 32.7 67.4999 32 68.0999 31.1C68.6999 30.1 69.1 29 69.4 27.9C69.7 26.7 69.9 25.4 69.9 24.2C69.9 22.6 69.6 21.2 68.9 20.2C68.3 19.3 67.5 18.9 66.4 18.9C65.3 18.9 64.3 19.3 63.5 20.2C62.6 21.1 61.8 22.3 61.2 23.7L59.7 27.4L60.2 23.5C60.3 23.2 60.2999 22.9 60.2999 22.6C60.2999 22.3 60.4 22 60.4 21.8C60.4 20.9 60.3 20.2 60 19.6C59.9 18.7 59.3 18.6 58.9 18.6ZM64.4 30.6C63 30.6 61.6999 29.9 60.5999 28.6L60.4 28.4L60.5 28.1C60.8 27 61.0999 26 61.5999 25.1C62.0999 24.1 62.6 23.3 63.2 22.7C63.9 22 64.6999 21.7 65.5999 21.7C66.4999 21.7 67.2 22.1 67.8 22.8C68.3 23.5 68.5999 24.4 68.5999 25.6C68.5999 26.9 68.1999 28.1 67.5999 29.1C66.7999 30.1 65.7 30.6 64.4 30.6ZM61.5 28.1C62.4 29.1 63.3 29.5 64.4 29.5C65.4 29.5 66.1999 29.1 66.6999 28.3C67.2999 27.5 67.5999 26.5 67.5999 25.4C67.5999 24.5 67.4 23.8 67 23.3C66.6 22.8 66.1999 22.6 65.5999 22.6C64.8999 22.6 64.4 22.9 63.9 23.3C63.3 23.8 62.9 24.5 62.5 25.4C62.1 26.3 61.8 27.2 61.5 28.1Z" fill="black"/>
<path d="M58.7001 45.4C57.8001 45.4 57.1001 45.1 56.4001 44.5C55.9001 43.9 55.7001 42.9 55.7001 41.5C55.7001 40.8 55.8001 39.8 55.9001 38.9V38.6C56.0001 38 56.1001 37.4 56.2001 36.7C56.3001 36.1 56.3001 35.5 56.4001 34.9C56.6001 34 56.7 33 56.8 32.1V31.8C57 30.8 57.1001 29.8 57.2001 28.9V28.6C57.3001 27.6 57.4001 26.6 57.4001 25.8C57.4001 24.9 57.3 24.1 57.1 23.6C57 23.1 56.8001 23 56.7001 23L56.6 22.9C56.3 22.7 56.1 22.6 56 22.5L55.9001 22.4C55.7001 22.2 55.3 21.8 55.3 21C55.3 20.5 55.5001 20.1 55.7001 19.6L55.8 19.4C56.1 18.9 56.5 18.4 57.1 17.9C57.7 17.4 58.4001 17.2 59.2001 17.2C60.4001 17.2 61.4 17.8 61.8 18.7C61.9 19 62.1 19.3 62.1 19.6C62.2 19.5 62.3001 19.3 62.4001 19.2L62.6 19C63.8 17.8 65.1 17.2 66.7 17.2C68.2 17.2 69.5 17.9 70.5 19.2C71.3 20.3 71.7 21.9 71.7 24C71.7 25.2 71.5 26.7 71.2 28.1C70.8 29.4 70.4 30.7 69.7 31.7C69.2 32.7 68.4001 33.6 67.3001 34.4C66.4001 35.1 65.2001 35.5 63.9001 35.5C63.0001 35.5 62.2 35.3 61.5 34.8C61.4 34.8 61.4001 34.7 61.4001 34.7C61.4001 34.8 61.4001 34.9 61.4001 35.1C61.0001 36.2 61 37.1 61 37.9C61 38.7 61.1 39.4 61.3 39.8C61.5 40.1 61.6001 40.3 61.9001 40.4C62.5001 40.7 62.8 41.2 62.8 41.9C62.8 42.3 62.7 42.7 62.5 43.2C62.3 43.8 61.9 44.3 61.5 44.8L61.4001 44.9H61.3C60.3 45.3 59.5001 45.4 58.7001 45.4ZM60.1 32.8C60 33.6 59.9 34.4 59.8 35.4C59.8 35.8 59.8001 36.3 59.7001 36.8C59.7001 37.2 59.7001 37.7 59.7001 38C59.7001 38.9 59.8 39.7 60 40.2C60.3 40.7 60.6 41.1 61.1 41.4C61.2 41.5 61.4001 41.7 61.4001 42C61.4001 42.2 61.4001 42.5 61.2001 43C61.1001 43.4 60.8 43.8 60.5 44.1C60.6 44.1 60.7 44.1 60.8 44C61.1 43.7 61.3 43.3 61.5 42.9C61.7 42.5 61.8 42.2 61.8 42C61.8 41.7 61.7 41.5 61.5 41.3C60.9 41 60.7 40.6 60.5 40.2C60.3 39.6 60.1 38.8 60.1 37.9C60.1 37.1 60.1001 36.2 60.2001 35.2C60.2001 34.8 60.2 34.3 60.3 33.8L60.5 33.1C60.4 33 60.4 33 60.3 32.9L60.1 32.8ZM59.1 30.3C59 31 58.9 31.6 58.8 32.3C58.6 33.3 58.5001 34.2 58.4001 35.2V35.5C58.2001 36.6 58.0001 37.9 57.9001 39.1C57.7001 40.2 57.7001 41.1 57.7001 41.9C57.7001 43 57.9 43.5 58 43.5C58.3 43.8 58.5 43.9 58.6 43.9C59.1 43.9 59.6 43.7 59.6 43.6C59.9 43.3 60.1001 43.1 60.2001 42.8C60.3001 42.5 60.4001 42.3 60.4001 42.2C59.8001 41.8 59.4 41.3 59.1 40.6C58.9 39.9 58.7001 39 58.7001 38C58.7001 37.6 58.7001 37.2 58.7001 36.7C58.7001 36.2 58.8 35.8 58.8 35.3C58.9 34.2 59 33.4 59.1 32.7L59.5 30.4L61 32.3C61.4 32.8 61.7001 33 62.2001 33.3C62.6001 33.5 63 33.6 63.6 33.6C64.4 33.6 65.2001 33.3 65.8001 32.9C66.5001 32.4 67.1 31.8 67.7 30.8C68.2 30 68.6001 29 68.9001 27.7C69.2001 26.4 69.4001 25.2 69.4001 24.1C69.4001 22.5 69.1 21.2 68.5 20.4C68 19.6 67.4001 19.3 66.4001 19.3C65.4001 19.3 64.5001 19.7 63.9001 20.4C63.0001 21.3 62.2001 22.4 61.7001 23.8V23.9C62.1001 23.2 62.5001 22.7 62.9001 22.2C63.7001 21.4 64.6 21.1 65.7 21.1C66.7 21.1 67.5001 21.5 68.3001 22.4C68.9001 23.3 69.2 24.3 69.2 25.5C69.2 26.8 68.8 28.1 68.1 29.3C67.2 30.5 65.9 31 64.5 31C63 31 61.5 30.2 60.3 28.8L59.9001 28.4L60.1 27.8L59.1 30.3ZM56.7001 41.3C56.7001 41.4 56.7001 41.4 56.7001 41.5C56.7001 41.5 56.7001 41.5 56.7001 41.6C56.7001 41.5 56.7001 41.4 56.7001 41.3ZM57 37.8C57 38.1 56.9001 38.4 56.9001 38.7V39C56.9001 39.2 56.9001 39.3 56.9001 39.4C56.9001 39.2 56.9 39.1 57 38.9C56.9 38.6 57 38.2 57 37.8ZM57.5 34.7C57.5 34.8 57.4001 35 57.4001 35.1C57.3001 35.6 57.2001 36.2 57.2001 36.8C57.2001 37 57.1 37.3 57.1 37.5C57.2 36.7 57.3001 36 57.4001 35.3V35.1C57.4001 34.9 57.5 34.8 57.5 34.7ZM62.2001 34.4C62.7001 34.6 63.2001 34.7 63.7001 34.7C64.8001 34.7 65.7 34.4 66.5 33.8C67.5 33 68.2 32.3 68.7 31.4C69.3 30.4 69.7 29.2 70.1 28C70.4 26.7 70.6 25.3 70.6 24.1C70.6 22.2 70.3 20.8 69.6 19.9C68.8 18.8 67.8 18.3 66.6 18.3C65.3 18.3 64.2 18.8 63.3 19.8L63 20C62.9 20.1 62.8001 20.3 62.7001 20.4C62.9001 20.2 63.0001 20.1 63.2001 19.9C64.0001 18.9 65.1 18.5 66.5 18.5C67.8 18.5 68.7001 19 69.4001 20C70.1001 21 70.5 22.5 70.5 24.3C70.5 25.5 70.3 26.8 70 28.1C69.6 29.4 69.2 30.5 68.6 31.4C67.9 32.4 67.3 33.2 66.5 33.7C65.7 34.3 64.7001 34.6 63.7001 34.6C63.0001 34.6 62.6001 34.5 62.2001 34.4ZM58.4001 25.9C58.4001 26.7 58.3001 27.7 58.2001 28.7V29C58.1001 29.9 58 30.9 57.8 32V32.2C57.8 32.3 57.8 32.4 57.8 32.5C57.8 32.4 57.8001 32.3 57.9001 32.1C58.1001 31 58.2 29.9 58.3 28.8C58.3 27.9 58.4001 26.9 58.4001 25.9C58.4001 26 58.4001 26 58.4001 25.9ZM61 28.3C62 29.5 63.2001 30.1 64.4001 30.1C65.6001 30.1 66.5 29.7 67.2 28.8C67.8 27.8 68.1 26.7 68.1 25.6V25.5C68.1 26.7 67.7 27.8 67.1 28.6C66.5 29.5 65.6001 30 64.4001 30C63.1001 30 62.1 29.5 61.1 28.4L61 28.3ZM62.1 28C62.8 28.7 63.5001 29 64.4001 29C65.2001 29 65.9001 28.7 66.3001 28C66.8001 27.3 67.1 26.4 67.1 25.4C67.1 24.6 66.9 24 66.6 23.6C66.3 23.2 66 23.1 65.6 23.1C65.1 23.1 64.7 23.3 64.2 23.7C63.7 24.1 63.4001 24.6 62.9001 25.6C62.6001 26.4 62.3 27.2 62.1 28ZM57.2001 20.9L57.3 21C57.4 21 57.4 21.1 57.5 21.1C58.4 21.5 58.8 22.1 59.1 23.2C59.3 24 59.4001 24.8 59.4001 25.8L59.7001 23.4C59.8001 23.1 59.8 22.8 59.8 22.6C59.8 22.4 59.8001 22.2 59.9001 22C59.9001 21.9 59.9001 21.8 59.9001 21.8C59.9001 20.9 59.8 20.3 59.6 19.8V19.6C59.5 19.1 59.4 19 59 19C58.7 19 58.4 19.1 58.3 19.3C57.9 19.6 57.8 19.8 57.6 20.2C57.3 20.5 57.2001 20.7 57.2001 20.9ZM57.1 22.1C57.6 22.3 57.9 22.8 58 23.4C58.1 23.6 58.1001 23.8 58.2001 24.1C58.2001 23.9 58.1 23.7 58.1 23.5C57.9 22.5 57.6 22.2 57.1 22.1C56.9 21.9 56.8001 21.9 56.7001 21.8L56.6 21.7C56.4 21.6 56.3001 21.5 56.2001 21.3C56.2001 21.2 56.2001 21.1 56.2001 21.1C56.2001 21.3 56.3 21.5 56.5 21.7C56.7 21.8 56.9 21.9 57.1 22.1ZM60.5 19.5C60.8 20.1 60.9001 20.8 60.9001 21.8C60.9001 21.9 60.9 22.1 60.8 22.2C60.8 22.3 60.8 22.5 60.8 22.6C60.8 22.9 60.8001 23.3 60.7001 23.7L60.8 23.5C61 23 61.3 22.5 61.6 22L61 22.8V21.1C61 20.2 60.9001 19.7 60.7001 19.2C60.6001 19 60.4001 18.8 60.2001 18.6C60.4001 18.9 60.4 19.2 60.5 19.5Z" fill="black"/>
<path d="M74.1001 34.2C73.8001 34.2 73.6001 34.1 73.4001 33.9C73.2001 33.7 73.1001 33.5 73.1001 33.2C73.4001 31.1 73.7001 29 73.9001 26.9C74.1001 24.8 74.2001 22.6 74.2001 20.5C74.2001 18.6 74.1001 16.8 74.0001 15.3C73.9001 13.8 73.6001 12.3 73.0001 10.9C72.9001 10.6 72.8001 10.4 72.7001 10.2C72.6001 10 72.6001 9.8 72.6001 9.6C72.6001 9.1 72.8001 8.6 73.3001 8.2C73.8001 7.7 74.0001 7.5 74.5001 7.5C75.2001 7.5 75.9001 8.1 76.2001 9.2C76.5001 10.3 76.6001 12 76.6001 14.3C76.6001 17 76.5001 19.2 76.2001 21.3C75.9001 23.3 75.7001 24.8 75.5001 25.8L75.6001 25.9C76.0001 24.5 76.5001 23.3 77.1001 22.1C77.7001 20.9 78.4001 20 79.2001 19.3C80.0001 18.6 80.9001 18.2 81.9001 18.2C83.0001 18.2 83.8001 18.6 84.4001 19.4C85.0001 20.2 85.2001 21.3 85.2001 22.4C85.2001 22.9 85.1001 23.4 85.1001 23.9C85.0001 24.4 84.9001 24.8 84.8001 25.3C84.7001 25.7 84.6001 26.1 84.5001 26.5C84.4001 26.9 84.4001 27.4 84.4001 27.8C84.4001 28.6 84.6001 29.2 84.9001 29.8C85.2001 30.3 85.6001 30.7 86.1001 30.9C86.3001 31 86.4001 31 86.4001 31.1C86.5001 31.2 86.5001 31.4 86.5001 31.6C86.5001 31.9 86.4001 32.2 86.3001 32.6C86.2001 33.1 85.9001 33.4 85.6001 33.8C85.3001 34.2 84.8001 34.4 84.2001 34.4C83.4001 34.4 82.8001 34 82.3001 33.3C81.8001 32.6 81.6001 31.6 81.6001 30.5C81.6001 29.9 81.7001 29.4 81.8001 28.7C81.9001 28.1 82.0001 27.6 82.1001 27C82.2001 26.5 82.3001 26 82.4001 25.5C82.5001 25 82.5001 24.6 82.5001 24.3C82.5001 23.1 82.0001 22.5 81.0001 22.5C80.2001 22.5 79.5001 22.9 78.8001 23.6C78.2001 24.3 77.7001 25.2 77.2001 26.4C76.7001 27.5 76.4001 28.7 76.1001 29.9V31C76.1001 32 75.9001 32.8 75.4001 33.4C75.3001 33.9 74.7001 34.2 74.1001 34.2Z" fill="black"/>
<path d="M74.1 34.7C73.7 34.7 73.3 34.6 73 34.3C72.6 34 72.5 33.6 72.6 33.2C72.9 31.1 73.2 29 73.4 27C73.6 24.9 73.7 22.8 73.7 20.6C73.7 18.7 73.6 17 73.5 15.4C73.4 13.9 73.1 12.5 72.6 11.1C72.5 10.8 72.4 10.5 72.3 10.3C72.2 10 72.2 9.8 72.2 9.6C72.2 9 72.5 8.4 73 7.8C73.5 7.3 73.9 7 74.6 7C75.6 7 76.5 7.8 76.8 9.1C77.1 10.3 77.2 12 77.2 14.3C77.2 17 77.1 19.3 76.8 21.3C76.7 21.5 76.7 21.7 76.7 21.9C76.7 21.8 76.8 21.8 76.8 21.7C77.4 20.5 78.1 19.4 79 18.7C79.9 17.9 80.9 17.5 82 17.5C83.2 17.5 84.2 18 84.9 18.9C85.5 19.8 85.8 20.9 85.8 22.3C85.8 22.8 85.7 23.4 85.6 23.9C85.5 24.4 85.4 24.9 85.3 25.3C85.2 25.7 85.1 26.1 85 26.5C84.9 26.9 84.9 27.3 84.9 27.7C84.9 28.4 85.1 29 85.3 29.4C85.6 29.8 85.9 30.1 86.3 30.3C86.5 30.4 86.7 30.5 86.8 30.7C87 30.9 87 31.2 87 31.5C87 31.8 86.9 32.2 86.8 32.6C86.6 33.1 86.4 33.6 86 34C85.6 34.5 85 34.7 84.1 34.7C83.1 34.7 82.3 34.2 81.7 33.4C81.2 32.6 80.9 31.5 80.9 30.3C80.9 29.7 81 29.1 81.1 28.5C81.2 27.9 81.3 27.3 81.4 26.7C81.5 26.2 81.6 25.7 81.7 25.2C81.8 24.7 81.8 24.4 81.8 24.1C81.8 23 81.3 22.9 80.8 22.9C80.1 22.9 79.6 23.2 79 23.8C78.4 24.5 77.9 25.4 77.5 26.4C77.1 27.5 76.7 28.6 76.5 29.8V31C76.5 32.1 76.2 33 75.7 33.7C75.6 34.3 75 34.7 74.1 34.7ZM74.7 8C74.4 8 74.2 8.1 73.8 8.6C73.4 9 73.2 9.3 73.2 9.7C73.2 9.9 73.2 10 73.3 10.1C73.4 10.3 73.5 10.5 73.6 10.8C74.2 12.2 74.5 13.8 74.6 15.4C74.7 16.9 74.8 18.7 74.8 20.6C74.8 22.8 74.7 24.9 74.5 27.1C74.3 29.2 74 31.3 73.7 33.4C73.7 33.5 73.7 33.6 73.8 33.6C73.9 33.7 74.1 33.8 74.2 33.8C74.7 33.8 75.1 33.6 75.4 33.1C75.8 32.6 76 31.9 76 31V29.6C76.3 28.4 76.7 27.2 77.1 26.1C77.6 24.9 78.1 23.9 78.8 23.2C79.5 22.3 80.4 21.9 81.4 21.9C82.1 21.9 83.4 22.2 83.4 24.2C83.4 24.6 83.3 25 83.2 25.5C83.1 26 83 26.5 82.9 27C82.8 27.6 82.7 28.1 82.6 28.7C82.5 29.3 82.4 29.8 82.4 30.3C82.4 31.4 82.6 32.2 83 32.9C83.4 33.5 83.8 33.8 84.4 33.8C84.9 33.8 85.2 33.7 85.5 33.4C85.8 33.1 86 32.7 86.1 32.4C86.3 31.9 86.3 31.7 86.3 31.5C86.3 31.4 86.3 31.3 86.3 31.3C86.3 31.3 86.2 31.3 86.2 31.2C85.6 30.9 85.1 30.5 84.7 29.9C84.3 29.3 84.2 28.6 84.2 27.7C84.2 27.2 84.3 26.8 84.4 26.3C84.5 25.9 84.6 25.4 84.7 25C84.8 24.6 84.9 24.1 85 23.7C85.1 23.2 85.1 22.8 85.1 22.3C85.1 21.2 84.8 20.3 84.3 19.5C83.8 18.8 83.2 18.5 82.2 18.5C81.3 18.5 80.6 18.8 79.8 19.4C79.1 20.1 78.4 21 77.8 22.1C77.2 23.2 76.7 24.5 76.4 25.9L76.2 26.6L75.2 26L75.3 25.6C75.5 24.6 75.7 23.1 75.9 21.1C76.2 19.1 76.3 16.8 76.3 14.2C76.3 12 76.1 10.4 75.9 9.3C75.7 8.5 75.2 8 74.7 8Z" fill="black"/>
<path d="M84.1001 35.2C83.0001 35.2 82.0001 34.7 81.3001 33.7C80.7001 32.8 80.4001 31.6 80.4001 30.3C80.4001 29.7 80.5001 29 80.6001 28.4L80.9001 26.6L81.2001 25.1C81.3001 24.6 81.3001 24.4 81.3001 24.1C81.3001 23.4 81.1001 23.4 80.8001 23.4C80.3001 23.4 79.9001 23.6 79.4001 24.2C78.9001 24.8 78.4001 25.6 78.0001 26.6C77.6001 27.7 77.2001 28.7 77.0001 29.9V31C77.0001 32.1 76.7001 33.1 76.2001 33.9C76.0001 34.7 75.2001 35.2 74.1001 35.2C73.5001 35.2 73.0001 35 72.6001 34.7C72.1001 34.3 71.9001 33.8 72.1001 33.1C72.4001 31.1 72.7001 28.9 72.9001 27C73.1001 24.9 73.2001 22.8 73.2001 20.6C73.2001 18.8 73.1001 17.1 73.0001 15.4C72.9001 14 72.6001 12.6 72.1001 11.2C72.0001 10.9 71.9001 10.6 71.8001 10.5C71.6001 10.1 71.6001 9.8 71.6001 9.6C71.6001 8.9 71.9001 8.2 72.5001 7.5C73.0001 7 73.6001 6.5 74.5001 6.5C75.8001 6.5 76.8001 7.5 77.2001 9C77.5001 10.2 77.6001 11.7 77.6001 14.3C77.6001 16.4 77.5001 18.1 77.4001 19.5C77.8001 19 78.2001 18.6 78.6001 18.3C79.6001 17.4 80.7001 17 81.9001 17C83.2001 17 84.4001 17.6 85.2001 18.6C85.9001 19.6 86.2001 20.8 86.2001 22.3C86.2001 22.7 86.1001 23.3 86.0001 24C85.9001 24.5 85.8001 25 85.7001 25.4L85.4001 26.6C85.3001 26.9 85.3001 27.3 85.3001 27.7C85.3001 28.4 85.5001 28.9 85.6001 29.2C85.8001 29.5 86.1001 29.7 86.4001 29.9C86.6001 30 86.9001 30.2 87.1001 30.5C87.4001 30.8 87.4001 31.3 87.4001 31.6C87.4001 32 87.3001 32.4 87.2001 32.8C87.0001 33.4 86.7001 34 86.3001 34.4C85.8001 35.1 84.8001 35.2 84.1001 35.2ZM81.1001 22.4C81.9001 22.5 82.3001 23.1 82.3001 24.1C82.3001 24.4 82.3001 24.8 82.2001 25.3L81.6001 28.6C81.5001 29.2 81.4001 29.8 81.4001 30.3C81.4001 31.4 81.7001 32.4 82.1001 33.1C82.5001 33.7 83.0001 34 83.6001 34.1C83.1001 33.9 82.8001 33.5 82.5001 33.1C82.0001 32.3 81.8001 31.4 81.8001 30.2C81.8001 29.7 81.9001 29.3 82.0001 28.8V28.5C82.1001 28.2 82.1001 27.9 82.2001 27.6C82.2001 27.3 82.3001 27.1 82.3001 26.8L82.7001 25C82.8001 24.6 82.8001 24.3 82.8001 24.1C82.8001 22.9 82.3001 22.3 81.3001 22.3C81.3001 22.4 81.2001 22.4 81.1001 22.4ZM72.9001 10.4C73.0001 10.6 73.0001 10.8 73.1001 11C73.6001 12.5 73.9001 13.9 74.0001 15.4C74.1001 17.1 74.2001 18.8 74.2001 20.6C74.2001 22.8 74.1001 24.9 73.9001 27C73.7001 29 73.4001 31.1 73.1001 33.2C73.0001 33.5 73.1001 33.7 73.3001 33.9C73.4001 34 73.6001 34.1 73.7001 34.1C73.6001 34.1 73.6001 34 73.5001 34C73.3001 33.9 73.1001 33.8 73.1001 33.4C73.4001 31.3 73.7001 29.1 73.9001 27.1C74.1001 24.9 74.2001 22.8 74.2001 20.6C74.2001 18.7 74.1001 16.8 74.0001 15.4C73.9001 13.7 73.6001 12.2 73.0001 11C73.0001 10.7 73.0001 10.5 72.9001 10.4ZM74.2001 33.3C74.5001 33.3 74.8001 33.2 75.0001 32.9C75.4001 32.4 75.5001 31.8 75.5001 31.1V29.6C75.7001 28.9 75.9001 28.1 76.2001 27.3L75.1001 26.6C75.1001 26.8 75.1001 27 75.0001 27.2C74.8001 29.2 74.5001 31.3 74.2001 33.3ZM81.4001 21.4C82.6001 21.4 83.9001 22.1 83.9001 24.2C83.9001 24.6 83.8001 24.9 83.7001 25.3L83.3001 27.1C83.3001 27.4 83.2001 27.7 83.2001 27.9C83.2001 28.2 83.1001 28.4 83.1001 28.7V29C83.0001 29.5 83.0001 29.9 83.0001 30.3C83.0001 31.3 83.2001 32 83.5001 32.7C83.9001 33.2 84.1001 33.3 84.5001 33.3C84.9001 33.3 85.1001 33.2 85.2001 33C85.5001 32.7 85.6001 32.3 85.7001 32.2C85.9001 31.8 85.9001 31.7 85.9001 31.5C85.3001 31.2 84.8001 30.7 84.4001 30.1C83.9001 29.3 83.8001 28.5 83.8001 27.6C83.8001 27.1 83.9001 26.7 84.0001 26.3V26.1C84.1001 25.9 84.1001 25.7 84.2001 25.4C84.3001 25.2 84.3001 24.9 84.4001 24.7C84.4001 24.5 84.5001 24.3 84.5001 24.1C84.6001 23.9 84.6001 23.6 84.7001 23.4C84.8001 23 84.8001 22.6 84.8001 22.1C84.8001 21.2 84.6001 20.3 84.1001 19.6C83.5001 19.2 83.0001 19 82.2001 19C81.5001 19 80.9001 19.2 80.1001 19.8C79.4001 20.5 78.8001 21.4 78.2001 22.3C77.8001 23 77.5001 23.7 77.3001 24.4C77.6001 23.8 78.0001 23.3 78.4001 22.8C79.2001 21.9 80.2001 21.4 81.4001 21.4ZM75.8001 25.8C76.2001 24.5 76.7001 23.1 77.3001 21.9C77.9001 20.8 78.6001 19.9 79.4001 19.1C80.4001 18.4 81.1001 18.1 82.0001 18.1C81.0001 18.1 80.1001 18.4 79.2001 19.2C78.5001 19.8 77.8001 20.7 77.1001 22C77.1001 22.2 77.0001 22.3 76.9001 22.3C76.9001 22.3 77.0001 22.2 77.0001 22H76.1001C76.1001 23.5 76.0001 24.8 75.8001 25.8ZM73.7001 9.8C73.9001 10.1 74.0001 10.3 74.1001 10.6C74.7001 11.9 75.0001 13.5 75.1001 15.3C75.2001 16.7 75.3001 18.6 75.3001 20.5C75.3001 21 75.3001 21.6 75.3001 22.1C75.3001 21.7 75.4001 21.4 75.4001 21C75.7001 19.2 75.8001 17 75.8001 14.1C75.8001 12.3 75.7001 10.7 75.4001 9.3C75.3001 8.8 74.9001 8.4 74.7001 8.4C74.6001 8.4 74.5001 8.4 74.2001 8.8C73.8001 9.3 73.7001 9.5 73.7001 9.8ZM74.6001 7.5C74.1001 7.5 73.8001 7.7 73.4001 8.2C73.0001 8.7 72.7001 9.2 72.7001 9.6V9.7C72.7001 9.1 73.0001 8.7 73.4001 8.3C73.8001 7.8 74.1001 7.5 74.6001 7.5Z" fill="black"/>
<path d="M90.5 34.2C89.8 34.2 89.4 33.9 89.5 33.3C89.7 32.2 89.9 31.1 90.1 29.9C90.3 28.8 90.3 27.6 90.3 26.6C90.3 25.3 90.2 24.2 90.1 23.6C89.9 23 89.8 22.5 89.6 22.3C89.4 22 89.1 21.9 88.8 21.7C88.6 21.6 88.5 21.5 88.4 21.4C88.3 21.3 88.2 21.1 88.2 20.9C88.2 20.5 88.3 20.1 88.6 19.7C88.8 19.3 89.2 18.9 89.6 18.6C90 18.3 90.5 18.1 91 18.1C91.7 18.1 92.2 18.4 92.4 19C92.7 19.6 92.8 20.4 92.8 21.4C92.8 22.1 92.7 22.8 92.6 23.6C92.5 24.4 92.4 25.1 92.3 25.8L92.4 25.9C92.8 24.6 93.3 23.3 93.9 22.1C94.5 20.9 95.2 20 96 19.3C96.8 18.6 97.7 18.2 98.7 18.2C99.8 18.2 100.6 18.6 101.2 19.4C101.8 20.2 102.1 21.3 102.1 22.5C102.1 23 102 23.5 101.9 24C101.8 24.5 101.7 24.9 101.6 25.3C101.5 25.7 101.4 26.1 101.3 26.6C101.2 27.1 101.2 27.5 101.2 27.9C101.2 29.4 101.8 30.4 102.8 30.9C103.1 31.1 103.2 31.3 103.2 31.6C103.2 31.9 103.1 32.2 103 32.6C102.9 33.1 102.6 33.4 102.3 33.8C102 34.2 101.5 34.4 100.9 34.4C100.1 34.4 99.5 34 99 33.3C98.5 32.6 98.3 31.7 98.3 30.5C98.3 29.9 98.4 29.2 98.5 28.5C98.6 27.8 98.7 27.2 98.9 26.6C99 26.2 99.1 25.7 99.1 25.3C99.2 24.9 99.2 24.5 99.2 24.2C99.2 23 98.7 22.4 97.7 22.4C96.9 22.4 96.1 22.8 95.5 23.6C94.9 24.4 94.3 25.4 93.9 26.5C93.4 27.7 93.1 28.9 92.8 30.1V31C92.8 32 92.6 32.8 92.2 33.4C91.8 33.9 91.2 34.2 90.5 34.2Z" fill="black"/>
<path d="M90.5 34.7C89.9 34.7 89.5 34.5 89.3 34.2C89 34 88.9 33.7 89 33.2C89.2 32.1 89.4 30.9 89.6 29.8C89.8 28.7 89.8 27.6 89.8 26.6C89.8 25.3 89.7 24.3 89.6 23.7C89.4 23 89.3 22.7 89.2 22.6C89 22.4 88.8 22.3 88.6 22.2H88.5C88.3 22.1 88.1 21.9 88 21.8C87.8 21.6 87.7 21.3 87.7 20.9C87.7 20.4 87.9 20 88.1 19.5C88.4 19 88.7 18.6 89.2 18.2C89.7 17.8 90.3 17.6 91 17.6C91.9 17.6 92.5 18 92.9 18.8C93.2 19.5 93.4 20.3 93.4 21.4C93.4 21.6 93.4 21.8 93.4 22.1C93.5 22 93.5 21.9 93.6 21.8C94.2 20.6 94.9 19.6 95.8 18.8C96.7 18 97.7 17.6 98.8 17.6C100 17.6 101 18.1 101.7 19C102.3 19.9 102.7 21.1 102.7 22.4C102.7 23 102.6 23.5 102.5 23.9C102.4 24.4 102.3 24.8 102.2 25.3C102.1 25.7 102 26.1 101.9 26.5C101.8 26.9 101.8 27.3 101.8 27.7C101.8 28.9 102.3 29.8 103.1 30.2C103.6 30.5 103.8 30.9 103.8 31.4C103.8 31.7 103.7 32.1 103.6 32.5C103.4 33 103.2 33.5 102.8 33.9C102.4 34.4 101.8 34.6 100.9 34.6C99.9 34.6 99.1 34.1 98.5 33.3C98 32.5 97.7 31.4 97.7 30.2C97.7 29.5 97.8 28.9 97.9 28.1C98 27.4 98.2 26.8 98.3 26.2C98.4 25.8 98.5 25.4 98.5 24.9C98.6 24.5 98.6 24.1 98.6 23.9C98.6 22.8 98.1 22.7 97.6 22.7C96.9 22.7 96.3 23 95.8 23.7C95.2 24.4 94.7 25.4 94.3 26.5C93.9 27.6 93.5 28.8 93.2 30V31C93.2 32 92.9 33 92.5 33.6C92.1 34.3 91.3 34.7 90.5 34.7ZM88.9 21.2C89.3 21.4 89.6 21.6 89.9 21.9C90.2 22.2 90.4 22.7 90.6 23.4C90.8 24.1 90.8 25.1 90.8 26.5C90.8 27.6 90.7 28.7 90.5 29.9C90.3 31 90.1 32.2 89.9 33.3C89.9 33.4 89.9 33.5 90 33.5C90 33.5 90.1 33.6 90.5 33.6C91.1 33.6 91.5 33.4 91.8 32.9C92.2 32.4 92.4 31.7 92.4 30.8V29.8C92.7 28.6 93.1 27.3 93.5 26.1C94 24.9 94.5 23.8 95.2 23C95.9 22.1 96.8 21.6 97.8 21.6C98.5 21.6 99.8 21.9 99.8 23.9C99.8 24.3 99.7 24.7 99.7 25.1C99.6 25.5 99.5 26 99.4 26.4C99.3 27 99.1 27.6 99 28.2C98.9 28.8 98.8 29.4 98.8 30.1C98.8 31.1 99 32 99.4 32.6C99.8 33.2 100.2 33.5 100.8 33.5C101.3 33.5 101.6 33.4 101.9 33.1C102.2 32.8 102.4 32.4 102.5 32.1C102.7 31.6 102.7 31.4 102.7 31.2C102.7 31.1 102.7 31 102.5 30.9C101.2 30.3 100.5 29.1 100.5 27.4C100.5 26.9 100.6 26.5 100.6 26C100.7 25.5 100.8 25.1 100.9 24.7C101 24.3 101.1 23.8 101.2 23.4C101.3 23 101.3 22.5 101.3 22C101.3 20.9 101 19.9 100.5 19.2C100 18.5 99.4 18.2 98.4 18.2C97.5 18.2 96.8 18.5 96 19.1C95.3 19.8 94.6 20.7 94 21.8C93.4 22.9 92.9 24.2 92.6 25.5L92.4 26.1L91.4 25.7L91.5 25.3C91.6 24.7 91.7 24 91.8 23.1C91.9 22.3 92 21.6 92 21C92 20.1 91.9 19.4 91.6 18.8C91.4 18.4 91.1 18.2 90.6 18.2C90.2 18.2 89.8 18.3 89.5 18.6C89.1 18.9 88.9 19.2 88.7 19.6C88.5 20 88.4 20.3 88.4 20.6C88.4 20.7 88.4 20.8 88.5 20.8C88.8 21.1 88.9 21.2 88.9 21.2Z" fill="black"/>
<path d="M90.5 35.2C89.8 35.2 89.3 35 88.9 34.6C88.5 34.3 88.3 33.8 88.5 33.1C88.6 32.6 88.7 32 88.8 31.4C88.9 30.8 89 30.2 89.1 29.7C89.3 28.6 89.3 27.6 89.3 26.6C89.3 25.1 89.2 24.1 89.1 23.8C89 23.6 88.9 23 88.8 22.9C88.7 22.8 88.6 22.7 88.5 22.7H88.4L88.3 22.6C88 22.5 87.8 22.2 87.7 22.1C87.4 21.8 87.3 21.4 87.3 20.8C87.3 20.3 87.5 19.9 87.7 19.4L87.8 19.2C88.1 18.7 88.4 18.2 89.1 17.7C89.7 17.2 90.4 17 91.2 17C92.3 17 93.1 17.5 93.5 18.5C93.7 19.1 93.9 19.7 94 20.3C94.5 19.5 95 18.9 95.6 18.4C96.6 17.5 97.7 17.1 98.9 17.1C100.2 17.1 101.4 17.7 102.2 18.7C102.9 19.8 103.3 21.1 103.3 22.4C103.3 23.1 103.2 23.6 103.1 24C103.1 24.2 103 24.5 103 24.7C103 24.9 102.9 25.1 102.9 25.4L102.6 26.6C102.5 26.9 102.5 27.3 102.5 27.7C102.5 28.7 102.9 29.4 103.5 29.8C104.2 30.2 104.5 30.7 104.5 31.4C104.5 31.8 104.4 32.2 104.3 32.6C104.1 33.2 103.8 33.8 103.4 34.2C102.8 35 101.8 35 101.1 35C100 35 99 34.5 98.3 33.5C97.7 32.6 97.4 31.4 97.4 30.1C97.4 29.5 97.5 29 97.5 28.4L97.6 28C97.7 27.6 97.7 27.2 97.8 26.9C97.9 26.6 97.9 26.4 98 26.1C98.1 25.7 98.2 25.3 98.2 24.9V24.8C98.3 24.5 98.3 24.1 98.3 23.9C98.3 23.2 98.1 23.2 97.8 23.2C97.2 23.2 96.8 23.5 96.4 24C95.9 24.6 95.4 25.5 95 26.7C94.5 28 94.2 29.1 93.9 30.1V31C93.9 32 93.6 33.2 93.1 33.9C92.5 34.7 91.5 35.2 90.5 35.2ZM89.7 33.9C89.8 34.1 90.1 34.2 90.5 34.2C91 34.2 91.5 34 91.9 33.6C91.6 33.9 91.1 34.1 90.5 34.1C90.2 34.1 89.9 34 89.7 33.9ZM99 25C99 25.5 98.9 26 98.8 26.4C98.8 26.6 98.7 26.9 98.6 27.2C98.5 27.5 98.4 27.9 98.4 28.2L98.3 28.6C98.2 29.2 98.2 29.7 98.2 30.2C98.2 31.3 98.5 32.3 98.9 33C99.4 33.7 100.1 34.1 100.9 34.1C101.9 34.1 102.2 33.8 102.4 33.6C102.8 33.2 102.9 32.8 103.1 32.3C103.2 32 103.3 31.6 103.3 31.4C103.3 31.2 103.3 31 103.2 30.9C103.2 31 103.2 31.1 103.2 31.2C103.2 31.5 103.2 31.7 103 32.3C102.9 32.5 102.7 33 102.3 33.5C101.9 33.9 101.5 34 100.8 34C99.9 34 99.3 33.4 99 32.9C98.6 32.2 98.3 31.3 98.3 30.1C98.3 29.4 98.4 28.7 98.5 28.1C98.6 27.8 98.6 27.5 98.7 27.2C98.8 26.9 98.8 26.6 98.9 26.3C99 26.1 99 25.8 99.1 25.6C99.1 25.4 99.2 25.2 99.2 25C99.2 24.8 99.2 24.6 99.3 24.4C99.3 24.2 99.3 24 99.3 23.9C99.3 22.7 98.8 22.1 97.8 22.1C97.4 22.1 97.1 22.2 96.8 22.3C97.1 22.2 97.3 22.2 97.6 22.2C98.6 22.2 99.1 22.8 99.1 23.9C99.1 24.1 99.1 24.5 99 25ZM90.4 33.1C90.5 33.1 90.5 33.1 90.4 33.1C90.9 33.1 91.1 33 91.3 32.6C91.7 32.1 91.8 31.5 91.8 30.8V29.7C92.1 28.6 92.4 27.4 92.9 26C93.4 24.8 93.9 23.6 94.7 22.7C95.5 21.7 96.5 21.1 97.7 21.1C98.9 21.1 100.2 21.8 100.2 23.9C100.2 24.1 100.2 24.3 100.1 24.6C100.1 24.8 100.1 25 100.1 25.1V25.2C100.1 25.4 100 25.6 100 25.8C99.9 26 99.9 26.3 99.8 26.5C99.8 26.8 99.7 27.1 99.6 27.4C99.5 27.7 99.5 28 99.4 28.3C99.3 28.9 99.2 29.5 99.2 30.1C99.2 31 99.4 31.8 99.7 32.3C100.1 32.9 100.4 33 100.7 33C101.1 33 101.3 32.9 101.4 32.7C101.7 32.4 101.8 32 101.9 31.9C102 31.6 102.1 31.4 102.1 31.3C100.7 30.6 99.9 29.2 99.9 27.4C99.9 27.1 99.9 26.9 100 26.6C100 26.4 100 26.2 100 26C100.1 25.4 100.2 25 100.3 24.6C100.3 24.4 100.4 24.2 100.4 24C100.5 23.8 100.5 23.5 100.6 23.3C100.7 23 100.7 22.5 100.7 22C100.7 21 100.4 20.1 100 19.5C99.6 18.9 99.1 18.7 98.3 18.7C97.6 18.7 97 18.9 96.2 19.5C95.5 20.2 94.9 21.1 94.3 22C93.7 23.1 93.2 24.3 92.9 25.6L92.5 26.7L91.1 26.1C91.1 26.2 91.1 26.3 91.1 26.4C91.1 27.5 91 28.6 90.8 29.9C90.7 30.5 90.6 31 90.5 31.6C90.6 32.2 90.5 32.6 90.4 33.1ZM100.8 18.8L100.9 18.9C101.5 19.7 101.8 20.8 101.8 22C101.8 22.5 101.8 23.1 101.7 23.5C101.7 23.7 101.6 23.9 101.6 24.1C101.5 24.3 101.5 24.6 101.4 24.8C101.3 25.2 101.2 25.6 101.1 26.1C101.1 26.3 101.1 26.5 101.1 26.8C101.1 27 101.1 27.2 101.1 27.4C101.1 28.6 101.5 29.5 102.3 30.1C101.8 29.5 101.4 28.7 101.4 27.7C101.4 27.3 101.4 26.8 101.5 26.4L101.8 25.2C101.8 25 101.9 24.7 101.9 24.5C101.9 24.3 102 24.1 102 23.8C102.1 23.4 102.2 23 102.2 22.4C102.2 21.3 101.9 20.2 101.3 19.3C101.1 19.1 101 18.9 100.8 18.8ZM89.7 22.5C89.8 22.7 89.9 23 90.1 23.6C90.2 24 90.3 25 90.3 26.6C90.3 25.2 90.3 24.3 90.1 23.6C90 23.2 89.9 22.8 89.7 22.5ZM92 25.4L92.1 25.3C92.3 24.5 92.5 23.7 92.9 22.9V21.4C92.9 20.5 92.8 19.7 92.4 19C92.3 18.7 92.1 18.5 91.9 18.4C91.9 18.5 92 18.5 92 18.6C92.3 19.2 92.5 20 92.5 21C92.5 21.6 92.4 22.2 92.3 22.9V23.2C92.2 24.1 92.1 24.8 92 25.4ZM89.2 20.8C89.6 21 90 21.3 90.3 21.6C90.7 22 90.9 22.7 91.1 23.3C91.2 23.5 91.2 23.7 91.2 23.9C91.2 23.6 91.3 23.4 91.3 23.1V22.8C91.4 22.1 91.5 21.6 91.5 21.1C91.5 20.2 91.4 19.6 91.2 19.1C91.1 18.9 91 18.8 90.6 18.8C90.3 18.8 90 18.9 89.9 19.1C89.5 19.4 89.4 19.6 89.2 20C89.1 20.3 89 20.5 89 20.7L89.2 20.8ZM88.6 21.7L88.8 21.8C88.9 21.9 89.1 21.9 89.2 22C89.1 21.9 88.9 21.8 88.6 21.7L88.5 21.6L88.2 21.3C88.2 21.4 88.3 21.4 88.3 21.5C88.4 21.5 88.5 21.6 88.6 21.7Z" fill="black"/>
<path d="M171.2 34.3C170.6 34.3 170.1 34.1 169.8 33.7C169.4 33.3 169.2 32.5 169.1 31.3C169 30.4 169 29.4 168.8 28.4C168.6 27.4 168.5 26.3 168.3 25.4C168.1 24.5 167.9 23.8 167.6 23.2C167.4 22.9 167.3 22.7 167.1 22.6C166.9 22.4 166.7 22.3 166.3 22.3C165.9 22.3 165.7 21.9 165.7 21.3C165.7 20.3 165.9 19.4 166.4 19C166.9 18.5 167.4 18.2 167.9 18.2C168.5 18.2 169 18.5 169.4 19C169.8 19.5 170.1 20.2 170.3 21C170.5 21.8 170.7 22.8 170.8 23.8C170.9 24.8 171 25.9 171 26.9C171 27.3 171 27.7 171 28C171 28.3 171 28.7 171 29.1C171 29.4 171.1 29.6 171.1 29.7C171.2 29.9 171.4 30 171.7 30C172.2 30 172.7 29.8 173.3 29.5C173.9 29.2 174.4 28.7 174.9 28C175.4 27.3 175.6 26.4 175.6 25.2C175.6 24.6 175.5 24.1 175.4 23.7C175.2 23.3 175 22.9 174.8 22.6C174.7 22.5 174.6 22.3 174.6 22.2C174.5 22.1 174.5 21.9 174.5 21.7C174.5 21.2 174.7 20.8 175 20.5C175.3 20.2 175.7 20 176.1 19.8C176.5 19.6 176.8 19.6 177.1 19.6C177.4 19.6 177.6 19.7 177.7 19.9C177.9 20.1 178 20.4 178.1 20.9C178.2 21.2 178.3 21.6 178.3 22C178.4 22.4 178.4 22.9 178.4 23.4C178.4 24.2 178.4 24.8 178.3 25.4C178.2 25.9 178.2 26.3 178.1 26.7C178 27.1 178 27.4 177.9 27.7C177.8 28 177.8 28.4 177.8 28.8C177.8 29.3 177.9 29.6 178 29.7C178.2 29.9 178.4 30 178.7 30C179.9 30 180.8 29.5 181.6 28.5C182.3 27.5 182.7 26.2 182.7 24.8C182.7 24.3 182.6 23.8 182.5 23.4C182.4 22.9 182.1 22.5 181.8 22.1C181.6 21.8 181.5 21.6 181.4 21.5C181.3 21.3 181.2 21.1 181.2 20.9C181.2 20.4 181.4 20 181.7 19.6C182.1 19.2 182.4 18.9 182.9 18.7C183.4 18.4 183.8 18.3 184.1 18.3C184.7 18.3 185 18.6 185.2 19.3C185.4 20 185.5 20.7 185.5 21.5C185.5 22.9 185.3 24.3 185 25.8C184.7 27.3 184.2 28.7 183.6 30C183 31.3 182.3 32.4 181.4 33.2C180.6 34 179.5 34.4 178.5 34.4C177.5 34.4 176.6 34 176.2 33.2C175.8 32.4 175.6 31.4 175.7 30.3C175.1 31.5 174.4 32.5 173.5 33.2C172.9 33.9 172.1 34.3 171.2 34.3Z" fill="black"/>
<path d="M179.5 35.4C178 35.4 176.9 34.7 176.3 33.6C176.2 33.4 176.1 33.2 176.1 33C175.8 33.3 175.5 33.6 175.2 33.8C174.4 34.7 173.3 35.2 172.2 35.2C171.3 35.2 170.5 34.9 170 34.3C169.5 33.7 169.2 32.8 169.1 31.3C169.1 31 169 30.7 169 30.3C169 29.7 168.9 29.1 168.8 28.5C168.7 28 168.6 27.5 168.6 27C168.5 26.5 168.5 26 168.3 25.5C168.1 24.6 167.9 24 167.7 23.6L167.6 23.5C167.6 23.4 167.5 23.4 167.5 23.4H167.4L167.3 23.3C167.3 23.3 167.3 23.3 167.2 23.3C166.4 23.3 165.6 22.7 165.6 21.3C165.6 20.3 165.8 19 166.6 18.3C168.2 16.7 169.9 17 171.1 18.4C171.6 19 171.9 19.8 172.2 20.8C172.4 21.5 172.6 22.6 172.7 23.7C172.8 24.7 172.9 25.8 172.9 26.9V29C173.1 28.9 173.4 28.8 173.8 28.6C174.2 28.4 174.6 28 175 27.4C175.4 26.9 175.5 26.2 175.5 25.2C175.5 24.7 175.4 24.4 175.4 24C175.2 23.7 175.1 23.4 174.9 23.2C174.8 23 174.6 22.8 174.6 22.6C174.4 22.3 174.4 21.9 174.4 21.7C174.4 21 174.7 20.3 175.2 19.8C175.6 19.4 176.1 19.1 176.6 18.9C177.2 18.6 177.7 18.6 178.1 18.6C178.7 18.6 179.2 18.9 179.5 19.3C179.8 19.7 180 20.2 180.1 20.6C180.2 21 180.3 21.4 180.3 21.8C180.4 22.3 180.4 22.8 180.4 23.3C180.4 24.1 180.4 24.8 180.3 25.5C180.3 25.7 180.2 25.9 180.2 26.1C180.2 26.4 180.1 26.6 180.1 26.9C180.1 27 180 27.2 180 27.3C180 27.5 179.9 27.8 179.9 28C179.9 28.1 179.9 28.5 179.9 28.8C179.9 28.9 179.9 28.9 179.9 29C180.7 29 181.3 28.6 181.9 27.9C182.5 27.1 182.8 26 182.8 24.8C182.8 24.5 182.7 24.1 182.6 23.6C182.5 23.3 182.3 23 182.1 22.7C182 22.5 181.9 22.4 181.9 22.3C181.9 22.2 181.8 22.2 181.8 22.1L181.6 21.9C181.5 21.6 181.3 21.3 181.3 20.9C181.3 20 181.7 19.4 182 19L182.1 18.9C182.5 18.5 182.9 18.1 183.6 17.8C184.2 17.5 184.7 17.3 185.2 17.3C186.2 17.3 186.9 17.9 187.3 19C187.5 19.8 187.6 20.6 187.6 21.5C187.6 22.8 187.4 24.2 187.1 26C186.8 27.5 186.3 28.9 185.6 30.4C184.9 31.9 184.1 33.1 183.2 33.9C182.2 34.8 180.8 35.4 179.5 35.4Z" fill="black"/>
<path d="M192.8 34.3C191.8 34.3 191 33.9 190.4 33.2C189.8 32.5 189.6 31.4 189.6 30C189.6 29 189.7 28 190 26.9C190.1 26.5 190.2 26 190.3 25.6C190.4 25.2 190.4 24.7 190.4 24.3C190.4 23.2 190.1 22.4 189.6 22.1C189.1 21.7 188.8 21.4 188.8 21C188.8 20.6 189 20.2 189.2 19.8C189.5 19.4 189.8 19 190.2 18.8C190.6 18.5 191 18.4 191.4 18.4C192.6 18.4 193.2 19.6 193.2 22C193.2 22.8 193.1 23.5 193 24.2C192.9 24.9 192.8 25.5 192.7 26.1C192.6 26.5 192.5 26.9 192.5 27.3C192.4 27.7 192.4 28.1 192.4 28.4C192.4 29.7 192.9 30.4 193.9 30.4C194.8 30.4 195.7 29.8 196.5 28.5C197.3 27.3 198 25.5 198.5 23.2L198.4 22.5C198.3 21.2 198.6 20.2 198.9 19.6C199.3 18.9 199.9 18.6 200.7 18.6C201.4 18.6 201.7 18.9 201.7 19.4C201.7 19.6 201.6 19.8 201.6 20.1C201.5 20.4 201.5 20.7 201.4 21.1C201.2 22.1 201 23.1 200.9 24.1C200.7 25.2 200.7 26.2 200.7 27C200.7 28 200.8 28.9 201.1 29.5C201.4 30.2 201.8 30.6 202.5 30.8C202.7 30.9 202.8 30.9 203 31C203.1 31.1 203.2 31.4 203.2 31.7C203.2 32.3 203 32.9 202.6 33.5C202.2 34.1 201.6 34.4 200.8 34.4C199.3 34.4 198.5 33.1 198.5 30.4C198.5 29.9 198.6 29.3 198.6 28.3L198.5 28.2C197.3 32.2 195.3 34.3 192.8 34.3Z" fill="black"/>
<path d="M201.8 35.4C200.8 35.4 199.2 35 198.7 32.4C197 34.8 195.1 35.3 193.8 35.3C192.5 35.3 191.5 34.8 190.6 33.9C189.9 33.1 189.6 31.9 189.6 30C189.6 28.8 189.7 27.7 190 26.6C190 26.4 190.1 26.2 190.1 26C190.2 25.8 190.2 25.5 190.3 25.3C190.4 25 190.4 24.6 190.4 24.2C190.4 23.3 190.1 22.9 190.1 22.9L190 22.8C189.5 22.4 188.8 21.9 188.8 20.9C188.8 20.3 189.1 19.7 189.3 19.3L189.4 19.1C189.7 18.7 190.1 18.2 190.7 17.8C191.2 17.4 191.8 17.3 192.4 17.3C193.7 17.3 195.2 18.1 195.2 21.9C195.2 22.8 195.1 23.5 195 24.2C194.9 24.9 194.8 25.5 194.7 26V26.2C194.6 26.5 194.5 26.9 194.5 27.2V27.4C194.4 27.7 194.4 28 194.4 28.3C194.4 29.3 194.7 29.3 194.9 29.3C195.5 29.3 196.1 28.8 196.6 27.9C197.4 26.8 198 25.1 198.4 23.1L198.3 22.6C198.2 20.9 198.6 19.7 198.9 19.1C199.5 18.1 200.4 17.5 201.6 17.5C203.1 17.5 203.6 18.5 203.6 19.3C203.6 19.5 203.6 19.7 203.5 19.8C203.5 19.9 203.5 19.9 203.5 20V20.2L203.4 20.4C203.4 20.5 203.4 20.6 203.3 20.7C203.3 20.9 203.2 21.1 203.2 21.3C203 22.3 202.8 23.2 202.7 24.2C202.5 25.3 202.5 26.2 202.5 27C202.5 28.2 202.7 28.8 202.8 29.1C203 29.7 203.2 29.8 203.6 29.9L203.8 30H203.9C204 30 204.1 30.1 204.3 30.2L204.4 30.3L204.5 30.4C204.9 30.8 205 31.4 205 31.8C205 32.6 204.7 33.4 204.2 34.2C203.8 34.9 202.9 35.4 201.8 35.4Z" fill="black"/>
<path d="M209.8 34.3C208.8 34.3 208 33.9 207.4 33.2C206.8 32.5 206.6 31.4 206.6 30C206.6 29 206.7 28 207 26.9C207.1 26.5 207.2 26 207.3 25.6C207.4 25.2 207.4 24.7 207.4 24.3C207.4 23.2 207.1 22.4 206.6 22.1C206.1 21.7 205.8 21.4 205.8 21C205.8 20.6 206 20.2 206.2 19.8C206.5 19.4 206.8 19 207.2 18.8C207.6 18.5 208 18.4 208.4 18.4C209.6 18.4 210.2 19.6 210.2 22C210.2 22.8 210.1 23.5 210 24.2C209.9 24.9 209.8 25.5 209.7 26.1C209.6 26.5 209.5 26.9 209.5 27.3C209.4 27.7 209.4 28.1 209.4 28.4C209.4 29.7 209.9 30.4 210.9 30.4C211.8 30.4 212.7 29.8 213.5 28.5C214.3 27.3 215 25.5 215.5 23.2L215.4 22.5C215.3 21.2 215.6 20.2 215.9 19.6C216.3 18.9 216.9 18.6 217.7 18.6C218.4 18.6 218.7 18.9 218.7 19.4C218.7 19.6 218.7 19.8 218.6 20.1C218.5 20.4 218.5 20.7 218.4 21.1C218.2 22.1 218 23.1 217.9 24.1C217.7 25.2 217.7 26.2 217.7 27C217.7 28 217.8 28.9 218.1 29.5C218.4 30.2 218.8 30.6 219.5 30.8C219.7 30.9 219.8 30.9 220 31C220.1 31.1 220.2 31.4 220.2 31.7C220.2 32.3 220 32.9 219.6 33.5C219.2 34.1 218.6 34.4 217.8 34.4C216.3 34.4 215.5 33.1 215.5 30.4C215.5 29.9 215.6 29.3 215.6 28.3L215.5 28.2C214.1 32.2 212.2 34.3 209.8 34.3Z" fill="black"/>
<path d="M218.8 35.4C217.8 35.4 216.2 34.9 215.7 32.3C214.4 34.3 212.7 35.3 210.8 35.3C209.5 35.3 208.5 34.8 207.6 33.9C206.9 33.1 206.6 31.9 206.6 30C206.6 28.8 206.7 27.7 207 26.6C207 26.4 207.1 26.2 207.1 26C207.2 25.8 207.2 25.5 207.3 25.3C207.4 25 207.4 24.6 207.4 24.2C207.4 23.3 207.1 22.9 207.1 22.9L207 22.8C206.5 22.4 205.8 21.9 205.8 20.9C205.8 20.3 206.1 19.7 206.3 19.3L206.4 19.1C206.7 18.7 207.1 18.2 207.7 17.8C208.2 17.4 208.8 17.3 209.4 17.3C210.7 17.3 212.2 18.1 212.2 21.9C212.2 22.8 212.1 23.5 212 24.2C211.9 24.9 211.8 25.5 211.7 26V26.2C211.6 26.5 211.5 26.9 211.5 27.2V27.4C211.4 27.7 211.4 28 211.4 28.3C211.4 29.3 211.7 29.3 211.9 29.3C212.5 29.3 213.1 28.8 213.6 27.9C214.4 26.8 215 25.1 215.4 23.1L215.3 22.6C215.2 20.9 215.6 19.7 215.9 19.1C216.5 18.1 217.4 17.5 218.6 17.5C220.1 17.5 220.6 18.5 220.6 19.3C220.6 19.5 220.6 19.9 220.4 20.3C220.4 20.4 220.4 20.5 220.3 20.6C220.3 20.8 220.2 21 220.2 21.2C220 22.2 219.8 23.1 219.7 24.1C219.5 25.2 219.5 26.1 219.5 26.9C219.5 28.1 219.7 28.7 219.8 29C220 29.6 220.2 29.7 220.6 29.8L220.8 29.9H220.9C221 29.9 221.1 30 221.3 30.1L221.4 30.2L221.5 30.3C221.9 30.7 222 31.3 222 31.7C222 32.5 221.7 33.3 221.2 34.1C220.8 34.9 219.9 35.4 218.8 35.4Z" fill="black"/>
<path d="M224.8 44.4C224.2 44.4 223.7 44.2 223.4 43.8C223 43.4 222.9 42.6 222.9 41.5C222.9 40.7 223 39.8 223.1 38.7C223.3 37.6 223.4 36.4 223.6 35.1C223.8 34.1 223.9 33 224 32C224.2 30.9 224.3 29.8 224.4 28.8C224.5 27.7 224.6 26.8 224.6 25.9C224.6 24.9 224.5 24.1 224.3 23.4C224.1 22.7 223.8 22.2 223.2 22C223 21.9 222.8 21.8 222.6 21.6C222.4 21.4 222.3 21.3 222.3 21C222.3 20.6 222.4 20.2 222.7 19.8C222.9 19.4 223.3 19 223.7 18.7C224.1 18.4 224.6 18.2 225.1 18.2C225.8 18.2 226.3 18.5 226.5 19.1C226.8 19.7 226.9 20.5 226.9 21.5C226.9 21.8 226.9 22.1 226.8 22.4C226.8 22.7 226.7 23 226.7 23.3C227.3 21.9 228.1 20.6 229.1 19.6C230.1 18.6 231.2 18.1 232.4 18.1C233.6 18.1 234.6 18.6 235.3 19.6C236 20.6 236.4 22.1 236.4 23.8C236.4 25.1 236.2 26.4 235.9 27.7C235.6 28.9 235.1 30.1 234.5 31.1C233.9 32.1 233.2 32.9 232.4 33.5C231.6 34.1 230.6 34.4 229.6 34.4C228.9 34.4 228.2 34.2 227.6 33.9C227 33.6 226.6 33.2 226.2 32.7C226.1 33.4 226 34.2 226 35.1C225.9 36 225.9 37 225.9 37.8C225.9 38.7 226 39.5 226.2 40C226.4 40.6 226.7 40.9 227.2 41.2C227.4 41.3 227.6 41.5 227.6 41.8C227.6 42 227.5 42.3 227.3 42.8C227.1 43.2 226.9 43.6 226.5 44C226 44.3 225.4 44.4 224.8 44.4ZM230.2 30.1C231.4 30.1 232.3 29.6 232.9 28.7C233.6 27.8 233.9 26.7 233.9 25.5C233.9 24.5 233.7 23.6 233.2 23C232.7 22.4 232.1 22.1 231.4 22.1C230.6 22.1 230 22.4 229.3 23C228.7 23.6 228.2 24.3 227.8 25.3C227.3 26.2 227 27.2 226.8 28.3C227.8 29.5 228.9 30.1 230.2 30.1Z" fill="black"/>
<path d="M225.8 45.4C224.9 45.4 224.1 45.1 223.6 44.5C223 43.8 222.9 42.8 222.9 41.5C222.9 40.8 223 40 223.1 39.2V38.7C223.2 38 223.3 37.4 223.4 36.7C223.5 36.2 223.5 35.6 223.6 35C223.8 34.1 223.9 33.1 224 32.2V32C224.2 31 224.3 30 224.4 29.1L224.5 28.3C224.6 27.4 224.6 26.7 224.6 26C224.6 25.1 224.5 24.4 224.3 23.8C224.1 23.2 223.9 23.1 223.8 23.1L223.7 23C223.5 22.9 223.2 22.7 222.8 22.4C222.5 22.1 222.2 21.8 222.2 21.1C222.2 20.5 222.4 19.9 222.7 19.4C223 18.8 223.6 18.3 224 18C224.6 17.5 225.3 17.3 226 17.3C227.1 17.3 228 17.9 228.3 18.8C228.4 19.1 228.5 19.4 228.6 19.7C228.8 19.4 229 19.2 229.3 19C230.5 17.8 231.8 17.2 233.3 17.2C234.8 17.2 236.1 17.9 237 19.1C237.8 20.3 238.3 22 238.3 23.9C238.3 25.1 238.1 26.5 237.8 28C237.5 29.3 236.9 30.6 236.3 31.7C235.6 32.8 234.8 33.7 233.9 34.4C232.3 35.6 230.1 35.9 228.1 34.9L228 34.8C228 34.9 228 35.1 228 35.2V35.3C227.9 36.1 227.9 37.1 227.9 37.9C227.9 38.7 228 39.4 228.1 39.7C228.2 40.1 228.3 40.2 228.7 40.4C229.2 40.7 229.6 41.2 229.6 41.9C229.6 42.3 229.5 42.7 229.2 43.3C228.9 43.8 228.7 44.3 228.2 44.8L228 45C227.4 45.2 226.7 45.4 225.8 45.4ZM224.6 21.1C225.8 21.5 226.2 22.7 226.3 23.1C226.5 23.9 226.6 24.8 226.6 25.9C226.6 26.7 226.5 27.5 226.4 28.4L226.3 29.2C226.2 30.1 226.1 31.2 225.9 32.2V32.3C225.8 33.2 225.7 34.3 225.5 35.3C225.4 35.8 225.4 36.3 225.3 36.9C225.2 37.6 225.1 38.3 225 38.9V39.4C224.9 40.2 224.9 40.9 224.9 41.6C224.9 42.9 225.1 43.1 225.1 43.2L225.2 43.3C225.3 43.5 225.7 43.5 225.8 43.5C226.2 43.5 226.6 43.4 226.9 43.3C227.1 43 227.3 42.8 227.4 42.5C227.5 42.3 227.5 42.2 227.5 42.1C227 41.8 226.5 41.3 226.2 40.4C225.9 39.7 225.8 38.6 225.8 37.9C225.8 37.1 225.8 36.1 225.9 35.1C225.9 34.2 226 33.4 226.1 32.6L226.4 30.3L227.8 32.1C228.1 32.5 228.4 32.8 228.9 33C230.2 33.7 231.7 33.4 232.7 32.7C233.4 32.2 234 31.5 234.5 30.6C235.1 29.7 235.5 28.6 235.8 27.5C236.1 26.1 236.3 24.9 236.3 23.8C236.3 22.3 236 21 235.4 20.2C234.9 19.5 234.2 19.1 233.3 19.1C232.4 19.1 231.5 19.5 230.7 20.3C230 21 229.3 22 228.8 23.1C229 22.8 229.2 22.6 229.5 22.3C230.2 21.7 231.1 21.1 232.3 21.1C233.3 21.1 234.2 21.5 234.9 22.4C235.5 23.1 235.8 24.2 235.8 25.5C235.8 27 235.4 28.3 234.6 29.3C233.8 30.4 232.6 31.1 231.1 31.1C229.5 31.1 228.1 30.4 226.9 28.9L226.6 28.5L226.7 28C226.7 27.9 226.7 27.7 226.8 27.6L226.6 28.1V23.2C226.6 23 226.6 22.8 226.7 22.6C226.7 22.5 226.7 22.4 226.7 22.3V22.1L226.8 21.9C226.8 21.8 226.8 21.6 226.8 21.3C226.8 20.4 226.7 19.7 226.5 19.3L226.4 19.2C226.4 19.1 226.3 19 225.9 19C225.6 19 225.4 19.1 225.1 19.3C224.8 19.5 224.5 19.8 224.4 20L224.3 20.2C224.2 20.4 224.1 20.5 224.1 20.7C224.4 21 224.5 21 224.6 21.1ZM228.9 28C229.6 28.7 230.4 29.1 231.2 29.1C232 29.1 232.6 28.8 233.1 28.1C233.7 27.4 233.9 26.5 233.9 25.5C233.9 24.7 233.7 24 233.4 23.6C233.1 23.2 232.8 23.1 232.4 23.1C232 23.1 231.6 23.2 230.9 23.8C230.4 24.3 230 24.9 229.7 25.7L229.6 25.8C229.3 26.4 229.1 27.1 228.9 28Z" fill="black"/>
<path fill-rule="evenodd" clip-rule="evenodd" d="M19.5 0C25.8 0 30.8 1.5 34.5 4.5C38.3 7.5 40.2 11.8 40.1 17.2C40.1 20.3 39.5 23.2 38.3 25.9C36.6 29.9 33.8 32.4 33 33.1C28.4 37.2 22.6 37.7 17.5 37.7H16.4C16.3 37.7 8.4 37.6 3.1 33.6C0.6 31.8 0.3 30.1 0.4 29.2C0.4 28.2 0.9 27.6 1.4 27L1.5 26.8L1.8 26.5C1.8 26.4 1.9 26.3 2 26.2C2.1 26 2.3 25.3 2.8 21.4C3.1 19 3.3 16.7 3.3 14.6C3.3 14.3 3.3 14 3.3 13.7C3.3 13.4 3.2 13 3.2 12.6V12.4C3.2 12.3 3.2 12.2 3.2 12.1C3.2 12 3.1 11.9 3.1 11.8C1.8 12 0.8 11.5 0.3 10.4C0.1 9.9 0 9.3 0 8.7C0 7.3 0.4 6.1 1.3 5C2.3 4 3.5 3.3 5.2 2.6C6.7 1.9 8.9 1.3 11.5 0.8C14.1 0.3 16.8 0 19.5 0ZM20 8.5C22.4 8.5 24.5 8.8 26.3 9.5C28.2 10.1 29.8 11.2 31.1 12.9C32.4 14.4 33 16.4 33 18.6C33 20.6 32.5 22.3 31.5 23.8C30.5 25.2 29.2 26.3 27.6 27.2C26 28 24.2 28.7 22.5 29.1C20.5 29.5 18.7 29.7 16.9 29.7C15.1 29.7 13.7 29.4 12.7 28.8C11.8 28.2 10.7 27.1 10.7 24.7C10.7 23.4 10.8 22.2 10.9 21.2C11 20.8 11 20.4 11.1 20C11.2 19.2 11.3 18.4 11.5 17.6C11.7 16.5 11.9 15.4 12.1 14.2C12.2 13.5 12.2 12.6 12.3 11.8C12.3 11.4 12.4 11 12.4 10.6C12.4 9.9 12.9 9.3 13.6 9.1C14.1 9 15.1 8.8 16.4 8.7C17.5 8.6 18.7 8.5 20 8.5Z" fill="black"/>
<path d="M117.4 28.1C117 28.1 116 29.5 115.8 29.7C115 30.4 115 30.4 114.7 30.5C114.4 30.6 113.4 30.7 112.7 30.7C111.8 30.7 111 30.2 110.5 29.6C110.2 29.2 109.8 27.8 110.1 27.5C110.5 27.2 111.7 28 112.7 28C113.9 28 115 27.8 116 27.2C117.1 26.6 117.6 25.7 118.2 24.9C118.7 24 119.1 22.9 119.1 21.8C119.1 20.6 119 19.2 118 18.3C117.1 17.4 115.9 16.9 114.4 16.9C112.9 16.9 111.4 17.3 110.1 18.4C108.9 19.4 107.9 20.8 107.2 22.4C106.4 24 106.1 25.8 106.1 27.8C106.1 30 106.6 31.8 107.6 33C108.7 34.4 110.2 35 112.1 35C114.3 35 116.3 34.1 117.6 32.2C118.4 31.3 118.8 30.6 118.8 29.7C118.8 29.3 118.7 29 118.5 28.7C118.1 28.3 117.8 28.1 117.4 28.1ZM111.5 22.1C112.2 21.5 113 21.3 113.7 21.3C114.2 21.3 114.8 21.4 115.2 21.8C115.4 22 115.7 22.4 115.7 22.8C115.7 23.4 115.5 23.8 115 24.2C114.3 24.7 113.7 24.9 112.8 24.9C112.3 24.9 111.7 24.9 111.3 24.8C110.9 24.7 110.6 24.6 110.2 24.5C110.4 23.3 110.8 22.6 111.5 22.1Z" fill="black" stroke="black" stroke-width="0.5"/>
</svg>
