<svg width="45" height="45" viewBox="0 0 45 45" fill="none" xmlns="http://www.w3.org/2000/svg">
<path d="M17.6922 44.3101V44.3988L28.1129 44.4241C28.1256 43.8163 28.1256 43.2086 28.1256 42.6008V42.3476V42.2463V40.5496C28.1256 39.0935 28.1256 37.5741 28.1129 36.0799C28.1129 35.5356 28.0749 35.0037 27.9989 34.472C27.8596 33.4463 27.4419 32.6107 26.7327 31.9142C26.5935 31.775 26.6061 31.5091 26.8341 31.3825L27.138 31.3318C27.2772 31.3065 27.4039 31.2812 27.5305 31.2685C29.1765 31.0532 30.4806 30.6987 31.6328 30.1669C33.8867 29.116 35.3302 27.5333 36.0392 25.3174C36.4697 23.9626 36.6976 22.5319 36.723 20.9238C36.7736 18.6573 36.1151 16.7708 34.7477 15.1627C34.5704 14.9601 34.4944 14.5803 34.5831 14.3271C35.0136 13.0482 35.0516 11.7314 34.6717 10.2753C34.4944 9.57889 34.3551 9.161 34.1526 9.04705C33.95 8.93309 33.5068 9.03438 32.8105 9.2623C31.5189 9.68009 30.2527 10.3006 29.0498 11.0983C28.6827 11.3388 28.3408 11.4022 27.9229 11.3009C24.6183 10.4526 21.2122 10.4526 17.8062 11.3009C17.515 11.3768 17.1351 11.3135 16.8819 11.1489C15.4258 10.174 14.7547 9.83209 13.1086 9.32561C12.2477 9.05971 11.8171 8.93309 11.488 9.14835C10.3864 9.87009 11.0068 13.6306 11.2221 14.2384C11.2474 14.3017 11.3361 14.5297 11.2727 14.7955C11.2347 14.9474 11.1588 15.0867 11.0321 15.2387C10.1838 16.2009 9.62666 17.2773 9.36076 18.4548C8.85429 20.7212 9.00624 23.013 9.84192 25.4567C10.4244 27.1534 11.3614 28.4196 12.7035 29.3312C14.1343 30.2936 15.7676 30.9013 17.6796 31.1799C17.9328 31.2052 18.1988 31.2558 18.4772 31.2938L18.9838 31.3698C19.2117 31.4964 19.2243 31.7624 19.0851 31.9015C18.4013 32.5853 17.9962 33.383 17.8189 34.434C17.7809 34.6492 17.6289 34.9151 17.401 35.0037C16.3628 35.4089 14.7927 35.8773 13.1719 35.2443C12.2603 34.8898 11.5007 34.2187 10.9308 33.231C10.3737 32.3068 9.70264 31.6357 8.85429 31.2052C8.25919 30.9013 7.75271 30.7873 7.25891 30.8633C7.24624 30.8633 7.18294 30.8886 7.11963 30.9013C7.01833 30.9266 7.00567 30.9393 7.00567 30.9519C6.98035 30.9899 7.04366 31.0659 7.11963 31.1419C7.28423 31.3065 7.42351 31.4331 7.47416 31.4711C7.54986 31.5342 7.63813 31.6098 7.72646 31.6856L7.7274 31.6864C7.84135 31.8003 7.96797 31.9015 8.10725 32.0155C8.44911 32.2941 8.79099 32.5853 9.04422 32.9526C9.33545 33.3703 9.57602 33.8388 9.80393 34.2947C9.95587 34.5985 10.1205 34.9024 10.2851 35.1937C10.551 35.6495 10.8422 36.1306 11.2094 36.4852C11.9311 37.1942 12.8935 37.5361 14.3368 37.5994C15.0028 37.624 15.6567 37.6007 16.3455 37.5761L16.4007 37.5741L16.4013 37.5741C16.7177 37.5614 17.034 37.5487 17.3504 37.5487C17.515 37.5487 17.6543 37.6754 17.6669 37.84C17.6669 37.8906 17.6796 37.9666 17.6796 38.0552C17.6796 38.4478 17.6922 38.8276 17.6922 39.2201C17.7049 40.3217 17.7176 41.4612 17.7176 42.5754L17.6922 44.2595V44.3101Z" fill="black"/>
<path d="M40.4 2.99335C41.2 2.99335 42 3.79157 42 4.5898V40.4102C42 41.2084 41.2 42.0067 40.4 42.0067H27.7H17.3H4.6C3.8 41.9069 3 41.1086 3 40.3104V4.5898C3 3.79157 3.8 2.99335 4.6 2.99335H40.4ZM40.4 0H4.6C2.1 0 0 2.09534 0 4.5898V40.4102C0 42.8049 2.1 44.9002 4.6 44.9002H17.3H27.7H40.4C42.9 44.9002 45 42.8049 45 40.3104V4.5898C45 2.09534 42.9 0 40.4 0Z" fill="black"/>
</svg>
