<svg width="35" height="35" viewBox="0 0 35 35" fill="none" xmlns="http://www.w3.org/2000/svg">
<path d="M13.7608 34.5244V34.5936L21.8658 34.6133C21.8757 34.1396 21.8757 33.666 21.8757 33.1923V33.192V32.9946V32.9157V31.5931V31.5924C21.8757 30.4576 21.8757 29.2735 21.8658 28.1089C21.8658 27.6847 21.8363 27.27 21.7771 26.8556C21.6688 26.056 21.3439 25.4047 20.7923 24.8617C20.6841 24.7532 20.6939 24.546 20.8712 24.4473L21.1076 24.4078C21.2158 24.388 21.3144 24.3683 21.4128 24.3584C22.6931 24.1906 23.7074 23.9143 24.6035 23.4997C26.3565 22.6805 27.4793 21.4468 28.0307 19.7195C28.3655 18.6634 28.5428 17.5482 28.5626 16.2947C28.6019 14.5279 28.0897 13.0574 27.0262 11.8039C26.8883 11.6459 26.8292 11.3499 26.8982 11.1525C27.233 10.1556 27.2626 9.12913 26.9671 7.99409C26.8292 7.45124 26.7209 7.1255 26.5634 7.03667C26.4058 6.94784 26.0611 7.0268 25.5195 7.20446C24.5149 7.53013 23.5301 8.01381 22.5945 8.63563C22.309 8.8231 22.0431 8.87252 21.718 8.79355C19.1478 8.1323 16.4986 8.1323 13.8495 8.79355C13.623 8.85272 13.3275 8.80338 13.1306 8.67507C11.9981 7.91513 11.4761 7.64862 10.1958 7.25381C9.52621 7.04654 9.1913 6.94784 8.93533 7.11564C8.07853 7.67824 8.56107 10.6096 8.72852 11.0834C8.7482 11.1327 8.81719 11.3104 8.76788 11.5176C8.73832 11.636 8.67929 11.7446 8.58075 11.8631C7.92096 12.6131 7.48764 13.4522 7.28083 14.3701C6.88691 16.1367 7.00509 17.9232 7.65507 19.8281C8.10809 21.1507 8.83687 22.1377 9.88072 22.8483C10.9936 23.5985 12.2639 24.0722 13.751 24.2894C13.948 24.3091 14.1548 24.3485 14.3714 24.3781L14.7654 24.4374C14.9427 24.5361 14.9481 24.704 14.8398 24.8124C14.308 25.3454 13.9929 25.9672 13.855 26.7865C13.8254 26.9543 13.7072 27.1615 13.53 27.2306C12.7225 27.5464 11.5013 27.9116 10.2407 27.4181C9.53163 27.1418 8.94083 26.6187 8.49758 25.8488C8.0643 25.1283 7.54236 24.6052 6.88253 24.2696C6.41967 24.0327 6.18289 23.9896 5.81348 23.9896C5.56613 23.9896 5.48958 24.0228 5.44471 24.0722C5.42502 24.1018 5.47864 24.2005 5.53773 24.2597C5.66575 24.388 5.77408 24.4867 5.81348 24.5163C5.87237 24.5655 5.94105 24.6246 6.00977 24.6836L6.01044 24.6842C6.09907 24.773 6.19755 24.8518 6.30588 24.9407C6.57177 25.1579 6.83768 25.3849 7.03463 25.6712C7.26115 25.9968 7.44826 26.362 7.62552 26.7174C7.74369 26.9542 7.87172 27.1911 7.99974 27.4181C8.20656 27.7734 8.43305 28.1485 8.71865 28.4249C9.27997 28.9775 10.0285 29.2441 11.1511 29.2934C11.6691 29.3126 12.1777 29.2944 12.7135 29.2752L12.7563 29.2737L12.7566 29.2737C13.0027 29.2638 13.2488 29.2539 13.495 29.2539C13.623 29.2539 13.7313 29.3526 13.7411 29.4809C13.7411 29.5204 13.751 29.5796 13.751 29.6487C13.751 29.9547 13.7608 30.2508 13.7608 30.5567C13.7707 31.4154 13.7806 32.3037 13.7806 33.1722L13.7608 34.485V34.5244Z" fill="black"/>
<path d="M31.4222 2.33333C32.0444 2.33333 32.6667 2.95556 32.6667 3.57778V31.5C32.6667 32.1222 32.0444 32.7444 31.4222 32.7444H21.5444H13.4556H3.57778C2.95556 32.6667 2.33333 32.0444 2.33333 31.4222V3.57778C2.33333 2.95556 2.95556 2.33333 3.57778 2.33333H31.4222ZM31.4222 0H3.57778C1.63333 0 0 1.63333 0 3.57778V31.5C0 33.3667 1.63333 35 3.57778 35H13.4556H21.5444H31.4222C33.3667 35 35 33.3667 35 31.4222V3.57778C35 1.63333 33.3667 0 31.4222 0Z" fill="black"/>
</svg>
