<svg width="35" height="35" viewBox="0 0 35 35" fill="none" xmlns="http://www.w3.org/2000/svg">
<path fill-rule="evenodd" clip-rule="evenodd" d="M3.57778 0H31.4222C33.3667 0 35 1.63333 35 3.57778V31.4222C35 33.3667 33.3667 35 31.4222 35H21.8699C21.8753 34.4237 21.8753 33.5198 21.8753 33.1339V32.937V32.8582V31.5386C21.8753 30.406 21.8753 29.2243 21.8654 28.0621C21.8654 27.6388 21.8358 27.2251 21.7767 26.8115C21.6684 26.0138 21.3435 25.3639 20.7919 24.8221C20.6836 24.7139 20.6934 24.5071 20.8708 24.4086L21.1071 24.3692C21.1239 24.3661 21.1404 24.3631 21.1567 24.3601C21.2459 24.3436 21.3292 24.3283 21.4124 24.3199C22.6926 24.1525 23.7069 23.8768 24.6031 23.4631C26.3561 22.6458 27.4788 21.4148 28.0303 19.6913C28.3651 18.6376 28.5424 17.5248 28.5621 16.2741C28.6015 14.5112 28.0893 13.0439 27.0258 11.7932C26.8879 11.6356 26.8288 11.3402 26.8978 11.1433C27.2326 10.1486 27.2621 9.12441 26.9667 7.99189C26.8288 7.45024 26.7204 7.12522 26.5629 7.03659C26.4053 6.94796 26.0606 7.02674 25.5191 7.20401C24.5145 7.52896 23.5297 8.01157 22.5941 8.632C22.3086 8.81906 22.0426 8.86837 21.7176 8.78958C19.1474 8.12979 16.4982 8.12979 13.8491 8.78958C13.6226 8.84861 13.3271 8.79938 13.1302 8.67136C11.9976 7.9131 11.4757 7.64718 10.1954 7.25325C9.52578 7.04644 9.19087 6.94796 8.93491 7.11538C8.0781 7.67673 8.56064 10.6016 8.72809 11.0743C8.74777 11.1235 8.81676 11.3009 8.76745 11.5076C8.73789 11.6257 8.67886 11.7341 8.58032 11.8523C7.92053 12.6007 7.48721 13.4379 7.2804 14.3537C6.88648 16.1165 7.00466 17.899 7.65464 19.7996C8.10766 21.1193 8.83644 22.1041 9.88029 22.8131C10.9931 23.5617 12.2635 24.0343 13.7506 24.251C13.8718 24.2631 13.9969 24.2827 14.1256 24.3029C14.2059 24.3154 14.2877 24.3283 14.371 24.3396L14.765 24.3987C14.9422 24.4972 14.952 24.7041 14.8438 24.8123C14.3119 25.3441 13.9968 25.9645 13.8589 26.782C13.8294 26.9494 13.7112 27.1562 13.5339 27.2251C12.7264 27.5402 11.5052 27.9046 10.2446 27.4122C9.53558 27.1365 8.94478 26.6145 8.50153 25.8463C8.06825 25.1275 7.54631 24.6055 6.88648 24.2707C6.42362 24.0343 6.0297 23.9457 5.64563 24.0048C5.64143 24.0048 5.63008 24.0084 5.61462 24.0132C5.59381 24.0198 5.56556 24.0287 5.5373 24.0343C5.45851 24.054 5.44866 24.0639 5.44866 24.0737C5.42897 24.1032 5.47821 24.1624 5.5373 24.2215C5.66532 24.3495 5.77365 24.448 5.81305 24.4775C5.87186 24.5265 5.94044 24.5853 6.00906 24.6442L6.01001 24.645C6.0901 24.725 6.17823 24.797 6.2744 24.8756C6.28466 24.8839 6.29501 24.8924 6.30545 24.9009C6.57134 25.1176 6.83725 25.3441 7.0342 25.6298C7.26072 25.9547 7.44783 26.3191 7.62509 26.6736C7.74326 26.9099 7.87129 27.1463 7.99931 27.3729C8.20613 27.7274 8.43262 28.1016 8.71822 28.3774C9.27954 28.9288 10.0281 29.1947 11.1506 29.244C11.6687 29.2631 12.1773 29.245 12.7131 29.2258L12.7559 29.2243L12.7563 29.2243C13.0024 29.2144 13.2484 29.2045 13.4945 29.2045C13.6226 29.2045 13.7309 29.3031 13.7407 29.4311C13.7407 29.448 13.7425 29.4686 13.7446 29.4921C13.7474 29.5232 13.7506 29.5592 13.7506 29.5985C13.7506 29.7512 13.753 29.9014 13.7555 30.0516C13.7579 30.2017 13.7604 30.3519 13.7604 30.5045C13.7703 31.3613 13.7801 32.2476 13.7801 33.1142L13.7604 34.424V34.4634V35H13.4556H3.57778C1.63333 35 0 33.3667 0 31.5V3.57778C0 1.63333 1.63333 0 3.57778 0Z" fill="black"/>
</svg>
