<svg width="35" height="35" viewBox="0 0 35 35" fill="none" xmlns="http://www.w3.org/2000/svg">
<path d="M31.4222 2.33333C32.0444 2.33333 32.6667 2.95556 32.6667 3.57778V31.5C32.6667 32.1222 32.0444 32.7444 31.4222 32.7444H21.5444H13.4556H3.57778C2.95556 32.6667 2.33333 32.0444 2.33333 31.4222V3.57778C2.33333 2.95556 2.95556 2.33333 3.57778 2.33333H31.4222ZM31.4222 0H3.57778C1.63333 0 0 1.63333 0 3.57778V31.5C0 33.3667 1.63333 35 3.57778 35H13.4556H21.5444H31.4222C33.3667 35 35 33.3667 35 31.4222V3.57778C35 1.63333 33.3667 0 31.4222 0Z" fill="black"/>
<path d="M7.46664 7.85558C7.93331 7.38891 8.55553 7.15558 9.33331 7.15558C10.0333 7.15558 10.5778 7.38891 11.0444 7.7778C11.4333 8.16669 11.6666 8.78891 11.6666 9.48891C11.6666 10.1889 11.4333 10.8111 10.9666 11.2778C10.5 11.7445 9.87775 11.9778 9.09997 11.9778C8.39997 11.9778 7.85553 11.7445 7.46664 11.3556C6.99998 10.9667 6.84442 10.4222 6.84442 9.64447C6.68886 8.94447 6.99998 8.32225 7.46664 7.85558Z" fill="black"/>
<path d="M11.8999 26.2111C11.7444 26.6 11.3555 26.9889 10.8888 27.3C10.4221 27.6111 9.79992 27.8444 9.02214 27.8444C8.32214 27.8444 7.69992 27.6111 7.31103 27.2222C6.84436 26.8333 6.68881 26.1333 6.68881 25.2C6.68881 24.7333 6.76659 24.1889 6.84436 23.7222C6.92214 23.2555 7.0777 22.7889 7.15547 22.3222C7.31103 21.8555 7.38881 21.3889 7.54436 20.9222C7.62214 20.4555 7.69992 19.9889 7.69992 19.4444C7.69992 19.1333 7.62214 18.8222 7.54436 18.5111C7.46659 18.2778 7.31103 18.1222 7.0777 17.9666C6.76659 17.8111 6.53325 17.6555 6.29992 17.5C5.98881 17.2666 5.83325 16.9555 5.83325 16.5666C5.83325 16.1778 5.98881 15.7889 6.29992 15.4C6.61103 15.0111 6.99992 14.7 7.46659 14.4666C7.93325 14.2333 8.4777 14.0778 9.02214 14.0778C9.64436 14.0778 10.111 14.2333 10.4221 14.6222C10.7333 14.9333 10.8888 15.3222 10.9666 15.8666C11.0444 16.3333 11.1221 16.8 11.1221 17.1889C11.1221 17.8889 11.0444 18.5111 10.9666 19.2111C10.8888 19.8333 10.7333 20.4555 10.6555 21C10.5777 21.3889 10.4999 21.7778 10.4999 22.0889C10.4221 22.4 10.4221 22.7111 10.4221 22.9444C10.4221 23.3333 10.4999 23.6444 10.6555 23.8778C10.8888 24.1111 11.1999 24.3444 11.5888 24.5C11.8999 24.6555 12.0555 24.9666 12.0555 25.2778C12.211 25.4333 12.0555 25.7444 11.8999 26.2111Z" fill="black"/>
<path d="M29.011 26.1334C28.8555 26.5223 28.6221 26.9112 28.2333 27.3C27.8444 27.6889 27.2221 27.8445 26.5221 27.8445C25.5888 27.8445 24.811 27.5334 24.2666 26.8334C23.7221 26.2112 23.4888 25.3556 23.4888 24.3445C23.4888 23.8 23.5666 23.2556 23.6444 22.7112C23.7221 22.1667 23.8777 21.7 24.0333 21.2334C24.111 20.9223 24.1888 20.5334 24.2666 20.2223C24.3444 19.9112 24.3444 19.6 24.3444 19.3667C24.3444 18.5889 24.0333 18.3556 23.2555 18.3556C22.4777 18.3556 21.8555 18.6667 21.311 19.2112C20.6888 19.8334 20.1444 20.6112 19.7555 21.4667C19.2888 22.4 18.9777 23.3334 18.6666 24.2667V24.9667C18.6666 25.8223 18.4333 26.5223 17.9666 27.1445C17.4999 27.7667 16.7999 28 15.9444 28C15.3999 28 15.011 27.8445 14.7777 27.6112C14.6221 27.3778 14.5444 27.1445 14.6221 26.8334C14.8555 25.9 15.011 25.0445 15.1666 24.1112C15.3221 23.1778 15.3999 22.3223 15.3999 21.5445C15.3999 20.4556 15.3221 19.6778 15.2444 19.2112C15.0888 18.6667 14.9333 18.4334 14.8555 18.3556C14.6999 18.2 14.4666 18.0445 14.1555 17.9667C13.9221 17.8889 13.7666 17.7334 13.611 17.6556C13.4555 17.5 13.2999 17.2667 13.2999 16.9556C13.2999 16.5667 13.4555 16.1778 13.6888 15.7889C13.9221 15.4 14.311 15.0112 14.7777 14.7778C15.2444 14.4667 15.7888 14.3112 16.411 14.3112C17.2666 14.3112 17.8888 14.6223 18.1999 15.2445C18.511 15.7889 18.6666 16.4889 18.6666 17.3445C18.6666 17.6556 18.6666 18.0445 18.5888 18.4334C18.7444 18.1223 18.8999 17.8889 19.0555 17.6556C19.6777 16.6445 20.3777 15.8667 21.2333 15.2445C22.0888 14.6223 23.0999 14.3112 24.1888 14.3112C25.4333 14.3112 26.3666 14.7 26.9888 15.4778C27.611 16.1778 27.9222 17.1112 27.9222 18.2C27.9222 18.6667 27.8444 19.0556 27.7666 19.4445C27.6888 19.8334 27.611 20.2223 27.4555 20.5334C27.3777 20.8445 27.2999 21.1556 27.2221 21.5445C27.1444 21.8556 27.1444 22.1667 27.1444 22.5556C27.1444 23.5667 27.611 24.1889 28.5444 24.5778C29.1666 24.8112 29.2444 25.2778 29.2444 25.5112C29.1666 25.4334 29.1666 25.7445 29.011 26.1334Z" fill="black"/>
</svg>
