<svg width="35" height="35" viewBox="0 0 35 35" fill="none" xmlns="http://www.w3.org/2000/svg">
<path d="M31.4222 0H3.57778C1.63333 0 0 1.63333 0 3.57778V31.5C0 33.3667 1.63333 35 3.57778 35H13.4556H21.5444H31.4222C33.3667 35 35 33.3667 35 31.4222V3.57778C35 1.63333 33.3667 0 31.4222 0ZM7.46667 7.85556C7.93333 7.38889 8.55556 7.15556 9.33333 7.15556C10.0333 7.15556 10.5778 7.38889 11.0444 7.77778C11.4333 8.16667 11.6667 8.78889 11.6667 9.48889C11.6667 10.1889 11.4333 10.8111 10.9667 11.2778C10.5 11.7444 9.87778 11.9778 9.1 11.9778C8.4 11.9778 7.85556 11.7444 7.46667 11.3556C7 10.9667 6.84444 10.4222 6.84444 9.64444C6.68889 8.94444 7 8.32222 7.46667 7.85556ZM11.9 26.2111C11.7444 26.6 11.3556 26.9889 10.8889 27.3C10.4222 27.6111 9.8 27.8444 9.02222 27.8444C8.32222 27.8444 7.7 27.6111 7.31111 27.2222C6.84444 26.8333 6.68889 26.1333 6.68889 25.2C6.68889 24.7333 6.76667 24.1889 6.84444 23.7222C6.92222 23.2556 7.07778 22.7889 7.15556 22.3222C7.31111 21.8556 7.38889 21.3889 7.54444 20.9222C7.62222 20.4556 7.7 19.9889 7.7 19.4444C7.7 19.1333 7.62222 18.8222 7.54444 18.5111C7.46667 18.2778 7.31111 18.1222 7.07778 17.9667C6.76667 17.8111 6.53333 17.6556 6.3 17.5C5.98889 17.2667 5.83333 16.9556 5.83333 16.5667C5.83333 16.1778 5.98889 15.7889 6.3 15.4C6.61111 15.0111 7 14.7 7.46667 14.4667C7.93333 14.2333 8.47778 14.0778 9.02222 14.0778C9.64444 14.0778 10.1111 14.2333 10.4222 14.6222C10.7333 14.9333 10.8889 15.3222 10.9667 15.8667C11.0444 16.3333 11.1222 16.8 11.1222 17.1889C11.1222 17.8889 11.0444 18.5111 10.9667 19.2111C10.8889 19.8333 10.7333 20.4556 10.6556 21C10.5778 21.3889 10.5 21.7778 10.5 22.0889C10.4222 22.4 10.4222 22.7111 10.4222 22.9444C10.4222 23.3333 10.5 23.6444 10.6556 23.8778C10.8889 24.1111 11.2 24.3444 11.5889 24.5C11.9 24.6556 12.0556 24.9667 12.0556 25.2778C12.2111 25.4333 12.0556 25.7444 11.9 26.2111ZM29.0111 26.1333C28.8556 26.5222 28.6222 26.9111 28.2333 27.3C27.8444 27.6889 27.2222 27.8444 26.5222 27.8444C25.5889 27.8444 24.8111 27.5333 24.2667 26.8333C23.7222 26.2111 23.4889 25.3556 23.4889 24.3444C23.4889 23.8 23.5667 23.2556 23.6444 22.7111C23.7222 22.1667 23.8778 21.7 24.0333 21.2333C24.1111 20.9222 24.1889 20.5333 24.2667 20.2222C24.3444 19.9111 24.3444 19.6 24.3444 19.3667C24.3444 18.5889 24.0333 18.3556 23.2556 18.3556C22.4778 18.3556 21.8556 18.6667 21.3111 19.2111C20.6889 19.8333 20.1444 20.6111 19.7556 21.4667C19.2889 22.4 18.9778 23.3333 18.6667 24.2667V24.9667C18.6667 25.8222 18.4333 26.5222 17.9667 27.1444C17.5 27.7667 16.8 28 15.9444 28C15.4 28 15.0111 27.8444 14.7778 27.6111C14.6222 27.3778 14.5444 27.1444 14.6222 26.8333C14.8556 25.9 15.0111 25.0444 15.1667 24.1111C15.3222 23.1778 15.4 22.3222 15.4 21.5444C15.4 20.4556 15.3222 19.6778 15.2444 19.2111C15.0889 18.6667 14.9333 18.4333 14.8556 18.3556C14.7 18.2 14.4667 18.0444 14.1556 17.9667C13.9222 17.8889 13.7667 17.7333 13.6111 17.6556C13.4556 17.5 13.3 17.2667 13.3 16.9556C13.3 16.5667 13.4556 16.1778 13.6889 15.7889C13.9222 15.4 14.3111 15.0111 14.7778 14.7778C15.2444 14.4667 15.7889 14.3111 16.4111 14.3111C17.2667 14.3111 17.8889 14.6222 18.2 15.2444C18.5111 15.7889 18.6667 16.4889 18.6667 17.3444C18.6667 17.6556 18.6667 18.0444 18.5889 18.4333C18.7444 18.1222 18.9 17.8889 19.0556 17.6556C19.6778 16.6444 20.3778 15.8667 21.2333 15.2444C22.0889 14.6222 23.1 14.3111 24.1889 14.3111C25.4333 14.3111 26.3667 14.7 26.9889 15.4778C27.6111 16.1778 27.9222 17.1111 27.9222 18.2C27.9222 18.6667 27.8444 19.0556 27.7667 19.4444C27.6889 19.8333 27.6111 20.2222 27.4556 20.5333C27.3778 20.8444 27.3 21.1556 27.2222 21.5444C27.1444 21.8556 27.1444 22.1667 27.1444 22.5556C27.1444 23.5667 27.6111 24.1889 28.5444 24.5778C29.1667 24.8111 29.2444 25.2778 29.2444 25.5111C29.1667 25.4333 29.1667 25.7444 29.0111 26.1333Z" fill="black"/>
</svg>
