<svg width="45" height="45" viewBox="0 0 45 45" fill="none" xmlns="http://www.w3.org/2000/svg">
<path d="M40.4 0H4.6C2.1 0 0 2.1 0 4.6V40.5C0 42.9 2.1 45 4.6 45H17.3H27.7H40.4C42.9 45 45 42.9 45 40.4V4.6C45 2.1 42.9 0 40.4 0ZM9.6 10.1C10.2 9.5 11 9.2 12 9.2C12.9 9.2 13.6 9.5 14.2 10C14.7 10.5 15 11.3 15 12.2C15 13.1 14.7 13.9 14.1 14.5C13.5 15.1 12.7 15.4 11.7 15.4C10.8 15.4 10.1 15.1 9.6 14.6C9 14.1 8.8 13.4 8.8 12.4C8.6 11.5 9 10.7 9.6 10.1ZM15.3 33.7C15.1 34.2 14.6 34.7 14 35.1C13.4 35.5 12.6 35.8 11.6 35.8C10.7 35.8 9.9 35.5 9.4 35C8.8 34.5 8.6 33.6 8.6 32.4C8.6 31.8 8.7 31.1 8.8 30.5C8.9 29.9 9.1 29.3 9.2 28.7C9.4 28.1 9.5 27.5 9.7 26.9C9.8 26.3 9.9 25.7 9.9 25C9.9 24.6 9.8 24.2 9.7 23.8C9.6 23.5 9.4 23.3 9.1 23.1C8.7 22.9 8.4 22.7 8.1 22.5C7.7 22.2 7.5 21.8 7.5 21.3C7.5 20.8 7.7 20.3 8.1 19.8C8.5 19.3 9 18.9 9.6 18.6C10.2 18.3 10.9 18.1 11.6 18.1C12.4 18.1 13 18.3 13.4 18.8C13.8 19.2 14 19.7 14.1 20.4C14.2 21 14.3 21.6 14.3 22.1C14.3 23 14.2 23.8 14.1 24.7C14 25.5 13.8 26.3 13.7 27C13.6 27.5 13.5 28 13.5 28.4C13.4 28.8 13.4 29.2 13.4 29.5C13.4 30 13.5 30.4 13.7 30.7C14 31 14.4 31.3 14.9 31.5C15.3 31.7 15.5 32.1 15.5 32.5C15.7 32.7 15.5 33.1 15.3 33.7ZM37.3 33.6C37.1 34.1 36.8 34.6 36.3 35.1C35.8 35.6 35 35.8 34.1 35.8C32.9 35.8 31.9 35.4 31.2 34.5C30.5 33.7 30.2 32.6 30.2 31.3C30.2 30.6 30.3 29.9 30.4 29.2C30.5 28.5 30.7 27.9 30.9 27.3C31 26.9 31.1 26.4 31.2 26C31.3 25.6 31.3 25.2 31.3 24.9C31.3 23.9 30.9 23.6 29.9 23.6C28.9 23.6 28.1 24 27.4 24.7C26.6 25.5 25.9 26.5 25.4 27.6C24.8 28.8 24.4 30 24 31.2V32.1C24 33.2 23.7 34.1 23.1 34.9C22.5 35.7 21.6 36 20.5 36C19.8 36 19.3 35.8 19 35.5C18.8 35.2 18.7 34.9 18.8 34.5C19.1 33.3 19.3 32.2 19.5 31C19.7 29.8 19.8 28.7 19.8 27.7C19.8 26.3 19.7 25.3 19.6 24.7C19.4 24 19.2 23.7 19.1 23.6C18.9 23.4 18.6 23.2 18.2 23.1C17.9 23 17.7 22.8 17.5 22.7C17.3 22.5 17.1 22.2 17.1 21.8C17.1 21.3 17.3 20.8 17.6 20.3C17.9 19.8 18.4 19.3 19 19C19.6 18.6 20.3 18.4 21.1 18.4C22.2 18.4 23 18.8 23.4 19.6C23.8 20.3 24 21.2 24 22.3C24 22.7 24 23.2 23.9 23.7C24.1 23.3 24.3 23 24.5 22.7C25.3 21.4 26.2 20.4 27.3 19.6C28.4 18.8 29.7 18.4 31.1 18.4C32.7 18.4 33.9 18.9 34.7 19.9C35.5 20.8 35.9 22 35.9 23.4C35.9 24 35.8 24.5 35.7 25C35.6 25.5 35.5 26 35.3 26.4C35.2 26.8 35.1 27.2 35 27.7C34.9 28.1 34.9 28.5 34.9 29C34.9 30.3 35.5 31.1 36.7 31.6C37.5 31.9 37.6 32.5 37.6 32.8C37.5 32.7 37.5 33.1 37.3 33.6Z" fill="black"/>
</svg>
